<svg xmlns="http://www.w3.org/2000/svg"  viewBox="0 0 23405 16144" xmlns:xlink="http://www.w3.org/1999/xlink">
<g fill="#FEFEFE" fill-rule="evenodd">
	<path d="M15775 3445c2584,0 4692,2107 4692,4691 0,2584 -2108,4691 -4692,4691 -2584,0 -4691,-2107 -4691,-4691 0,-2584 2107,-4691 4691,-4691zm0 2045c1458,0 2647,1188 2647,2646 0,1458 -1189,2646 -2647,2646 -1457,0 -2646,-1188 -2646,-2646 0,-1458 1189,-2646 2646,-2646z"/> 
	<polygon points="14276,8600 14044,8600 14044,8296 14061,8127 13928,8600 13747,8600 13614,8118 13631,8296 13631,8600 13398,8600 13398,8051 13398,7823 13705,7823 13837,8296 13969,7823 14276,7823 14276,8371 "/>
	<path d="M18078 8296c0,21 -3,41 -8,61 -6,21 -14,41 -24,62 -20,39 -46,73 -79,102 -33,30 -73,53 -118,71 -46,17 -93,26 -143,26l-17 0c-30,0 -59,-3 -86,-8 -26,-5 -53,-13 -79,-24 -48,-18 -88,-45 -122,-78 -33,-35 -59,-76 -76,-124 -17,-48 -26,-103 -26,-164 0,-71 10,-134 29,-188 20,-54 47,-98 82,-133 36,-34 76,-60 122,-77 45,-16 95,-25 148,-25 97,0 175,19 232,55 57,36 96,78 118,126 22,48 35,94 39,140l-240 0c-27,-84 -70,-127 -131,-127l-10 0c-27,0 -51,11 -72,32 -21,20 -37,48 -48,82 -10,35 -16,70 -16,106 0,37 6,72 17,104 10,33 26,59 48,78 22,20 48,30 79,30 30,0 58,-10 83,-29 25,-19 42,-52 50,-98l248 0zm3555 85c0,37 -10,72 -30,105 -20,34 -51,61 -93,82 -42,21 -93,32 -154,32l-437 0 0 -549 0 -228 380 0c64,0 117,11 162,32 44,21 77,49 99,83 21,34 32,69 32,105 0,33 -8,63 -25,89 -16,27 -39,48 -70,62 28,9 53,23 74,42 21,19 36,42 46,67 6,12 9,25 12,38 3,12 4,26 4,40zm-272 -306c0,-16 -7,-30 -21,-41 -14,-11 -33,-16 -58,-16l-107 0 0 117 98 0c28,0 50,-6 65,-18 16,-12 23,-26 23,-42zm29 280c0,-18 -7,-34 -20,-47 -14,-14 -32,-20 -55,-20l-140 0 0 126 140 0c25,0 44,-6 56,-17 13,-11 19,-25 19,-42zm2015 245l-258 0 0 -549 0 -228 258 0 0 548 0 229zm-338 -274c0,35 -7,68 -20,101 -14,32 -34,62 -61,88 -28,27 -61,47 -101,62 -40,15 -85,23 -134,23l-387 0 0 -548 0 -226 255 0 0 235 137 0c50,0 95,8 135,22 40,15 72,35 98,59 26,25 45,53 58,85 13,32 20,65 20,99zm-251 9c0,-22 -7,-40 -20,-56 -13,-16 -31,-23 -55,-23l-122 0 0 159 117 1c26,0 45,-8 59,-24 14,-16 21,-35 21,-57z"/>
	<path d="M668 8020c0,33 -6,65 -19,97 -12,32 -30,61 -55,86 -24,25 -55,45 -92,60 -37,14 -80,22 -127,22l-133 0 0 235 -242 0 0 -548 0 -228 367 0c49,0 92,8 128,23 20,8 37,17 53,27 15,10 29,22 43,35 25,26 44,56 57,89 13,33 20,67 20,102zm-238 -9c0,-22 -7,-41 -21,-57 -13,-17 -32,-25 -57,-25l-110 0 0 160 117 0c22,0 39,-7 52,-23 12,-15 19,-34 19,-55zm1134 509l-242 0 -24 -100 -234 0 -24 100 -242 0 181 -548 77 -228 250 0 182 548 76 228zm-313 -261l-70 -253 -71 253 141 0zm1324 422l-247 0 0 -162 -366 0 0 156 -260 2 0 -335c21,0 41,-9 59,-27 19,-19 34,-40 47,-65 12,-24 20,-44 24,-59 12,-38 22,-87 30,-147 9,-59 16,-118 21,-175 4,-58 7,-99 7,-125l507 0 101 0 0 548 0 18 77 2 0 369zm-306 -367l0 -379 -168 0 -1 45c0,30 -2,63 -5,99 -3,34 -10,73 -21,117 -11,44 -27,84 -47,118l242 0zm1209 206l-226 0 0 -285 8 -129 -248 414 -230 0 0 -548 0 -228 236 0 0 280 -6 124 248 -404 218 0 0 548 0 228z"/>
	<path d="M11368 3466l343 -288c55,-47 106,-75 153,-85 42,-8 81,-4 118,11 36,15 66,39 90,70 30,37 44,77 42,120 -2,43 -15,82 -39,117l4 5c18,-12 39,-22 62,-28 24,-7 48,-10 75,-9 26,1 53,8 81,22 27,14 52,35 75,62 37,44 57,89 60,136 3,46 -7,92 -30,136 -13,21 -30,43 -52,66 -21,23 -49,48 -81,75l-327 274 -574 -684zm267 -9l123 146 133 -112c28,-23 45,-46 52,-68 11,-31 5,-60 -18,-87 -26,-32 -57,-41 -92,-28 -18,4 -42,18 -73,44l-125 105zm226 269l138 164 148 -124c30,-25 49,-48 57,-69 15,-38 9,-74 -19,-107 -27,-33 -61,-45 -102,-36 -17,4 -41,20 -73,47l-149 125zm1872 -1491l-258 84 -54 -166 719 -234 54 166 -258 84 223 684 -204 66 -222 -684zm2556 398l-145 -672 -4 -1 -75 645 -214 -26 109 -887 299 37 133 637 285 -586 295 36 -109 887 -207 -25 83 -644 -4 -1 -307 617 -139 -17zm1581 47l197 64c-9,29 -26,60 -51,94 -25,34 -56,62 -93,84 -89,56 -204,64 -346,25 -129,-42 -217,-107 -265,-195 -56,-100 -60,-225 -10,-378 52,-159 132,-266 241,-321 87,-43 193,-46 318,-9 130,42 216,106 260,190 37,73 45,155 25,245l-198 -64c8,-38 4,-76 -14,-116 -17,-39 -56,-68 -117,-87 -66,-22 -126,-11 -180,32 -29,23 -53,52 -71,85 -19,33 -34,69 -45,108 -27,84 -31,156 -12,218 19,66 63,110 131,132 59,19 108,16 146,-9 37,-26 65,-59 84,-98zm795 164l456 -183 216 119 -512 184 96 608 -226 -125 -65 -541 -3 -2 -211 388 -185 -103 434 -781 185 102 -188 332 3 2zm950 611l334 281 -103 123 -334 -281 -132 158 388 325 -111 132 -549 -461 575 -685 542 456 -112 133 -381 -320 -117 139z"/>
	<path d="M11203 2411c-12,33 -37,65 -73,95 -54,45 -116,52 -187,22 -72,-30 -144,-88 -216,-175 -48,-57 -86,-110 -113,-159 -27,-49 -39,-96 -36,-142 3,-45 25,-86 68,-122 43,-35 77,-55 105,-60l58 70c-32,5 -66,22 -100,51 -38,32 -47,73 -27,121 20,48 60,108 119,178 122,146 213,195 270,147 38,-31 61,-64 71,-99l61 73zm266 -1066l390 623 -84 52 -341 -545 -113 70 243 388c40,65 58,115 53,150 -5,35 -35,70 -92,105l-46 -74c24,-15 37,-31 39,-48 2,-17 -9,-44 -33,-81l-292 -468 276 -172zm673 -387l88 -46 112 590c9,47 13,83 11,109 -1,26 -9,48 -22,66 -14,19 -37,36 -68,52l-41 -80c16,-8 28,-16 35,-23 8,-7 12,-18 14,-32 2,-14 -1,-36 -9,-65l-385 -437 89 -45 275 332 -99 -421zm1037 243l98 -37 -231 -601 93 -36 263 687 -473 181 -263 -686 93 -36 230 601 97 -37 -230 -601 93 -36 230 601zm705 -700l6 326 130 -30 -136 -296zm-91 582l3 -756 90 -21 334 678 -97 23 -68 -133 -163 38 -1 148 -98 23zm826 -172l-90 -730 94 -12 62 511 130 -534 92 -12 90 730 -94 12 -62 -507 -131 530 -91 12zm94 -794c-32,3 -59,-2 -81,-18 -23,-16 -36,-40 -40,-72l65 -8c2,14 7,25 17,33 9,8 19,12 30,10 13,-1 23,-7 30,-17 8,-11 10,-23 9,-37l65 -8c4,34 -2,61 -20,81 -17,20 -42,32 -75,36zm812 707l-12 -644 -135 3 -2 -92 372 -7 2 92 -136 2 11 644 -100 2zm649 5l51 -733 294 20 -7 89 -194 -13 -15 216 179 13 -6 88 -179 -12 -17 247 194 14 -7 92 -293 -21zm1414 -207c41,9 73,8 95,-4 22,-12 38,-40 48,-84 11,-46 9,-78 -4,-98 -14,-20 -42,-34 -84,-44l-40 -9 -53 230 38 9zm-18 88l-40 -10 -73 315 -97 -22 166 -717 139 33c139,32 193,115 162,251 -31,132 -116,182 -257,150zm918 45l-177 273 124 48 53 -321zm-401 431l425 -625 87 34 -103 748 -93 -36 18 -148 -156 -60 -84 123 -94 -36zm1317 -133l-92 -46 -181 354c-32,64 -68,103 -106,116l129 66 250 -490zm-262 588l-174 -88 -66 130 -88 -45 109 -213c37,19 78,-16 124,-105l223 -439 263 134 -291 573 30 15 -110 215 -88 -44 68 -133zm474 269l390 -624 80 50 -273 436 437 -334 79 50 -390 623 -80 -50 271 -432 -436 329 -78 -48zm1292 20c64,54 87,116 67,184 -20,69 -69,149 -146,241 -73,87 -145,146 -215,177 -70,30 -133,22 -190,-26 -55,-46 -74,-107 -55,-182 19,-75 64,-155 136,-241 50,-60 97,-107 140,-142 43,-34 87,-54 131,-58 45,-5 89,11 132,47zm-57 68c-35,-29 -74,-30 -117,-2 -43,28 -94,77 -154,149 -123,146 -155,243 -97,292 58,49 149,1 272,-146 60,-71 100,-130 120,-178 19,-47 11,-85 -24,-115z"/>
	<path d="M11118 13772c62,50 83,107 66,171 -18,65 -62,141 -133,228 -67,83 -133,140 -198,170 -65,29 -125,22 -179,-21 -52,-43 -71,-100 -54,-170 16,-71 57,-147 123,-228 46,-57 89,-102 129,-135 40,-34 81,-52 122,-57 42,-5 83,9 124,42zm-52 64c-33,-27 -70,-27 -109,0 -40,27 -87,74 -142,142 -113,139 -142,231 -87,276 56,45 140,-2 253,-141 55,-68 91,-124 109,-169 18,-44 10,-80 -24,-108zm234 929c-32,-3 -67,-19 -103,-45 -53,-38 -73,-93 -62,-165 11,-72 48,-151 110,-236 41,-57 80,-103 119,-138 38,-36 79,-58 121,-66 42,-8 84,4 126,35 42,30 68,57 79,81l-50 69c-13,-28 -36,-54 -70,-79 -38,-28 -76,-27 -116,2 -39,30 -84,79 -135,149 -105,145 -129,238 -72,279 37,27 72,41 106,42l-53 72zm302 204l311 -517 -109 -65 44 -74 299 180 -44 73 -109 -65 -311 517 -81 -49zm804 -138l-192 238 112 57 80 -295zm-415 363l457 -541 77 40 -169 688 -83 -43 31 -136 -140 -71 -89 106 -84 -43zm1158 -217l-258 639 -85 -34 226 -560 -116 -46 -161 398c-27,66 -55,107 -84,122 -29,16 -73,12 -131,-11l31 -76c25,10 44,11 58,3 13,-8 28,-31 44,-70l193 -479 283 114zm287 636l14 -41c10,-29 10,-53 -1,-73 -11,-21 -36,-37 -75,-51l-29 -10 -75 218 34 11c68,24 112,5 132,-54zm30 -527l-96 280 29 10c130,45 179,116 145,213l-23 67c-10,29 -25,53 -46,73 -21,20 -46,33 -76,39 -30,6 -62,3 -95,-9l-150 -51 224 -652 88 30zm278 798l167 -669 91 22 -64 255 160 40 63 -255 90 22 -167 669 -89 -22 82 -330 -160 -40 -82 330 -91 -22zm921 -515c78,15 124,55 139,120 15,66 11,153 -10,264 -21,105 -53,186 -96,243 -43,57 -99,78 -167,65 -67,-13 -109,-54 -128,-124 -19,-70 -19,-157 1,-260 14,-72 31,-132 51,-180 20,-47 47,-83 81,-107 35,-24 78,-31 129,-21zm-15 81c-42,-8 -74,9 -97,52 -22,42 -42,106 -59,192 -34,176 -16,270 53,284 71,13 123,-68 157,-243 17,-86 23,-153 17,-201 -5,-47 -29,-75 -71,-84zm356 659l60 -687 275 24 -7 84 -182 -16 -18 202 168 15 -8 83 -167 -15 -20 232 182 16 -8 86 -275 -24zm1216 -369c57,-5 82,-40 77,-103l-4 -41c-4,-51 -35,-75 -92,-70l-50 5 19 213 50 -4zm206 207c4,48 -6,89 -30,124 -25,34 -68,54 -130,60l-155 13 -60 -687 151 -13c111,-10 170,32 178,124l5 61c6,67 -20,114 -80,142 72,15 111,58 117,128l4 48zm-95 -4l-3 -36c-6,-66 -39,-97 -98,-91l-53 4 20 229 57 -5c27,-2 48,-11 61,-26 14,-15 19,-40 16,-75zm378 157l-96 -682 88 -13 67 478 112 -503 87 -12 96 683 -88 12 -66 -474 -115 499 -85 12zm728 -743l-94 23 90 362c17,65 16,115 -3,147l131 -32 -124 -500zm176 577l-177 44 33 133 -90 23 -54 -218c38,-10 46,-60 23,-151l-112 -448 269 -67 146 584 30 -7 55 220 -89 22 -34 -135zm366 -90l-190 -663 85 -24 133 464 41 -514 84 -24 190 662 -85 25 -132 -460 -43 510 -83 24zm583 -198l-204 -661 78 -31 267 407 -91 -479 75 -30 315 617 -81 32 -206 -438 95 483 -58 24 -267 -414 156 458 -79 32zm525 -996c70,-36 131,-33 183,10 52,42 103,113 154,214 49,95 74,178 74,250 1,71 -29,123 -91,154 -61,31 -120,25 -178,-19 -58,-43 -110,-112 -158,-205 -33,-66 -57,-123 -71,-173 -14,-50 -15,-95 -2,-135 12,-40 42,-72 89,-96zm37 74c-38,19 -52,52 -44,100 8,47 32,109 72,187 81,160 153,224 216,191 65,-32 56,-128 -25,-288 -40,-78 -77,-134 -110,-168 -34,-35 -70,-42 -109,-22zm940 160c-15,29 -42,56 -79,80 -55,35 -114,35 -177,-1 -63,-36 -123,-99 -181,-187 -38,-59 -67,-113 -86,-161 -20,-49 -25,-94 -18,-136 8,-42 34,-78 78,-106 43,-29 78,-43 104,-44l46 71c-31,2 -63,14 -99,37 -39,25 -52,62 -39,109 13,47 43,107 90,179 98,150 176,206 235,168 39,-25 64,-53 77,-84l49 75zm314 -192l-355 -488 -103 74 -50 -69 282 -205 50 70 -103 74 355 488 -76 56zm446 -570l-29 -33c-20,-23 -41,-35 -64,-36 -23,0 -50,13 -81,40l-23 20 151 174 27 -24c54,-47 60,-94 19,-141zm-441 -290l194 223 23 -20c104,-90 190,-96 257,-19l46 53c20,23 34,49 41,77 6,28 5,56 -5,85 -10,29 -28,55 -55,79l-119 104 -453 -521 71 -61z"/>
	<path d="M17606 14373l-389 -555 173 616 -12 3 -211 60 -252 -896 12 -3 297 -84 376 540 39 -657 12 -3 297 -84 252 896 -12 3 -211 60 -174 -616 -42 676 -13 4 -142 40zm-1224 -295l385 -31 15 179 -385 32 29 355 -12 1 -219 18 -76 -927 12 -1 674 -55 14 179 -454 38 17 212z"/>
</g>
<g fill="#E31E24" fill-rule="evenodd">
	<path d="M15102 2680c-139,17 -250,-7 -333,-71 -98,-78 -156,-192 -175,-341 -18,-146 12,-269 88,-369 34,-47 78,-82 130,-106 52,-23 111,-39 176,-47 63,-7 122,-6 179,4 56,11 107,34 153,71 47,36 85,83 115,142 30,59 49,124 58,195 9,73 6,141 -9,204 -14,64 -40,120 -77,169 -68,83 -170,132 -305,149zm-21 -171c34,-4 66,-14 97,-30 30,-16 55,-46 73,-90 19,-54 24,-122 14,-203 -10,-80 -31,-144 -63,-192 -46,-61 -110,-86 -193,-76 -37,5 -70,15 -100,31 -29,16 -53,46 -71,90 -22,54 -28,121 -18,202 10,82 32,146 66,192 29,40 59,63 92,71 33,8 67,10 103,5z"/>
	<path d="M4585 8142c0,52 -9,102 -26,150 -16,48 -42,91 -76,129 -34,39 -77,69 -129,91 -51,23 -110,34 -177,34 -66,0 -126,-11 -178,-33 -53,-23 -97,-53 -132,-92 -35,-38 -61,-82 -79,-131 -18,-49 -27,-99 -27,-151 0,-52 9,-103 26,-152 17,-49 44,-93 78,-133 35,-41 78,-73 129,-97 28,-12 56,-22 84,-29 29,-7 59,-10 91,-10 65,0 123,11 175,34 52,23 96,55 131,94 36,39 63,83 81,132 9,26 16,52 21,77 5,26 8,52 8,77l0 10zm-266 -19c0,-45 -7,-83 -21,-113 -13,-30 -31,-53 -53,-67 -22,-15 -44,-22 -68,-22 -28,0 -53,8 -75,23 -23,15 -41,39 -54,71 -13,32 -20,71 -20,117 0,70 14,125 41,163 26,38 63,57 108,57 46,0 80,-20 105,-60 25,-40 37,-96 37,-169z"/>
	<path d="M13389 13466l42 -104 26 11c52,21 106,26 162,17 56,-10 99,-36 128,-80l12 5 152 61 -345 864 -11 -5 -204 -81 242 -607 -204 -81zm753 961c-121,-29 -203,-92 -244,-191 -42,-100 -47,-220 -15,-363 33,-143 89,-250 170,-322 80,-71 181,-94 303,-66l12 3c108,24 182,72 220,143 38,71 58,144 60,219 2,35 0,69 -4,103 -5,33 -10,63 -16,89 -6,26 -14,55 -24,87 -10,32 -24,63 -40,95 -34,67 -84,123 -149,170 -65,47 -152,59 -260,34l-13 -1zm40 -148c53,10 94,-3 125,-39 30,-36 54,-78 70,-125 9,-22 15,-43 21,-64 5,-21 9,-40 14,-58 4,-18 8,-38 12,-59 5,-22 8,-44 9,-66 6,-51 2,-98 -9,-144 -12,-46 -44,-75 -96,-88 -52,-10 -93,2 -124,38 -31,36 -55,78 -71,124 -8,22 -14,43 -20,65 -6,21 -10,41 -14,59 -5,18 -9,37 -13,59 -4,22 -7,44 -10,67 -5,49 -1,97 11,142 13,46 44,75 95,89zm546 -27l206 21c0,2 0,3 0,5 1,2 1,4 0,5 2,32 14,61 35,90 21,29 54,46 100,51 44,4 78,-5 101,-26 24,-21 41,-45 51,-72 6,-15 10,-28 13,-42 2,-13 4,-25 5,-36 6,-54 -3,-96 -26,-125 -23,-29 -50,-48 -80,-57 -4,-1 -8,-2 -12,-3 -4,-1 -8,-1 -12,-2 -7,0 -15,0 -23,0 -8,0 -16,1 -25,2 -19,3 -37,9 -54,16 -17,8 -30,20 -40,35l-13 -1 -204 -21 108 -491 13 2 591 59 -16 161 -449 -45 -44 188c32,-17 66,-28 101,-33 34,-5 72,-6 113,-2l12 1c88,9 159,44 214,104 54,60 76,140 67,238 -10,96 -49,173 -118,231 -69,57 -165,80 -287,68l-12 0c-112,-12 -192,-44 -240,-96 -48,-52 -76,-107 -85,-164 -1,-11 -2,-22 -2,-32 0,-10 0,-20 0,-30l12 1z"/>
	<path d="M15775 6830c720,0 1307,586 1307,1306 0,720 -587,1306 -1307,1306 -719,0 -1306,-586 -1306,-1306 0,-720 587,-1306 1306,-1306zm0 846c254,0 461,207 461,460 0,254 -207,460 -461,460 -253,0 -460,-206 -460,-460 0,-253 207,-460 460,-460z"/>
</g>
<polygon fill="#7D7D7D" points="5205,5429 7771,5429 8575,7125 9467,5429 11833,5429 9869,8196 11900,11075 9356,11075 8307,9178 7392,11075 4937,11075 6990,8218 "/>
<polygon fill="#2B2A29" points="19889,8600 19582,8600 19400,8296 19351,8347 19351,8600 19095,8600 19095,8051 19095,7823 19351,7823 19351,8059 19558,7823 19855,7823 19582,8118 "/>
<path fill="#9D9E9E" d="M6355 8139c0,-1631 -1885,-2107 -2966,-1619l0 895c210,-124 451,-130 683,-141 537,-24 972,319 972,865 0,545 -435,888 -972,864 -232,-11 -473,-17 -683,-141l0 895c1081,488 2966,12 2966,-1618z"/>
</svg>
