<svg xmlns="http://www.w3.org/2000/svg" viewBox="0 0 5838 3226" xmlns:xlink="http://www.w3.org/1999/xlink">
   <path fill="#FEFEFE" d="M5506 0l-5174 0c-183,0 -332,155 -332,346l0 2534c0,191 149,346 332,346l5174 0c183,0 332,-155 332,-346l0 -2534c0,-191 -149,-346 -332,-346z"/>
   <path fill="#26448C" d="M2554 465l0 467 -48 -60c-32,-41 -50,-93 -50,-146l0 -261 -128 0 0 243c0,82 27,162 78,226l155 198 0 48 -121 0c-62,0 -112,51 -112,113l0 110c0,62 50,113 112,113l129 0c63,0 113,-51 113,-113l0 -115c0,0 0,-1 0,-2l0 -821 -128 0zm7 914c0,8 -7,15 -15,15l-82 0c-9,0 -16,-7 -16,-15l0 -61c0,-9 7,-16 16,-16l97 0 0 77zm622 1258l0 -823 0 0 0 -60c0,-21 -17,-39 -39,-39l-136 0c-105,0 -172,78 -179,207 -1,11 -1,21 -1,30l0 0 0 274c0,138 -24,369 -28,411l-61 0 0 129 512 0 0 -129 -68 0zm-128 0l-126 0c15,-136 27,-253 27,-411l0 -310 0 0c0,-39 9,-72 52,-72l47 0 0 0 0 793zm-1163 -883l0 1012 128 0 0 -392 148 -189c50,-64 78,-144 78,-226l0 -244 -315 0c-22,0 -39,18 -39,39zm128 89l98 0 0 134c0,52 -18,104 -51,146l-47 60 0 -340zm-128 -1340l0 1013 128 0 0 -393 148 -189c50,-64 78,-144 78,-226l0 -243 -315 0c-22,0 -39,17 -39,38zm128 89l98 0 0 134c0,53 -18,105 -51,146l-47 60 0 -340zm950 932c55,0 101,-21 134,-63 33,-41 49,-96 49,-164l0 -117 -127 0 0 120c0,33 -5,57 -16,73 -10,14 -23,21 -40,21 -18,0 -31,-6 -41,-20 -10,-15 -15,-37 -15,-71l0 -629c0,-34 5,-56 15,-71 10,-14 23,-20 41,-20 17,0 30,7 40,22 11,15 16,40 16,72l0 120 127 0 0 -117c0,-68 -16,-123 -49,-163 -33,-43 -79,-64 -134,-64 -56,0 -101,21 -135,64 -32,40 -49,95 -49,163l0 617c0,68 17,123 49,164 34,42 79,63 135,63zm1369 -1070c-106,0 -174,78 -181,209 -1,11 -1,20 -1,30l0 606 0 3 0 5c0,145 68,232 182,232 106,0 174,-79 181,-210 1,-10 1,-20 1,-30l0 -606 0 -3 0 -4c0,-146 -68,-232 -182,-232zm54 887c-1,25 -10,66 -54,66 -44,0 -53,-41 -54,-65 0,-10 0,-682 0,-691 1,-25 10,-66 54,-66 44,0 52,41 54,66 0,11 0,672 0,690zm-836 120c32,-41 49,-96 49,-164l0 -117 -127 0 0 120c0,33 -6,57 -17,73 -10,14 -23,22 -40,22 -18,0 -31,-7 -40,-21 -11,-15 -16,-37 -16,-71l0 -629c0,-34 5,-56 16,-71 9,-14 22,-20 40,-20 17,0 30,7 40,22 11,15 17,39 17,72l0 120 127 0 0 -117c0,-68 -17,-123 -49,-163 -34,-43 -79,-64 -135,-64 -56,0 -101,21 -135,64 -32,40 -48,95 -48,163l0 617c0,68 16,123 48,164 34,42 79,63 135,63 56,0 101,-21 135,-63zm399 246c-106,0 -173,77 -180,207 0,11 -1,21 -1,30l0 594 0 2 0 5c0,143 68,229 180,229 106,0 173,-77 180,-207 1,-10 1,-20 1,-30l0 -593 0 -3 0 -4c0,-144 -67,-230 -180,-230zm53 872c-1,24 -10,65 -53,65 -43,0 -52,-41 -53,-65 -1,-9 -1,-667 -1,-677 2,-24 10,-65 54,-65 43,0 51,41 53,65 0,11 0,660 0,677zm-1366 -864l-136 0c-105,0 -172,78 -179,207 -1,11 -1,21 -1,30l0 814 128 0 0 -390 98 0 0 390 129 0 0 -1012c0,-21 -17,-39 -39,-39zm-90 532l-98 0 0 -331c0,-39 9,-72 52,-72l47 0 -1 403zm990 -217l-99 143 0 -458 -128 0 0 1051 128 0 0 -390 99 -141 0 531 128 0 0 -1051 -128 0 0 315zm1384 -1437l0 -128 -263 0c-21,0 -39,17 -39,38l0 974c0,21 18,39 39,39l263 0 0 -129 -173 0 0 -462 165 0 0 -128 -165 0 0 -204 173 0zm-1095 707l1 0 0 -177 52 -67c13,11 46,44 46,99l0 361 128 0 0 -371c0,-72 -32,-141 -89,-188l-5 -3 16 -20c50,-64 78,-144 78,-226l0 -243 -129 0 0 261c0,53 -18,105 -50,146l-47 60 0 -467 -129 0 0 386 0 449 0 216 128 0 0 -216z"/>
   <path fill="#E31E24" d="M971 1952c-97,0 -176,-283 -176,-633 0,-350 79,-633 176,-633 4,0 7,0 11,1 -23,-77 -53,-149 -89,-214 229,276 240,604 240,604l0 -1c9,75 13,157 13,243 0,350 -78,633 -175,633zm601 424l-251 0c27,-155 193,-224 268,-522 99,-394 -96,-647 -232,-770 -1,0 12,436 -127,701 40,-160 63,-349 63,-551 0,-575 -184,-1041 -410,-1041 -226,0 -409,466 -409,1041 0,574 183,1040 409,1040 137,0 258,-170 332,-431 31,-20 84,-21 94,-21 95,0 170,118 21,316 -79,114 -104,184 -110,238l-272 0c-28,0 -43,14 -43,39l0 224c-63,4 -113,56 -113,120l0 7 824 0 0 -351c0,-25 -16,-39 -44,-39zm-34 -1793c0,53 -43,95 -95,95 -53,0 -96,-42 -96,-95 0,-53 43,-95 96,-95 52,0 95,42 95,95zm-95 -118c-66,0 -119,53 -119,118 0,65 53,119 119,119 65,0 118,-54 118,-119 0,-65 -53,-118 -118,-118zm18 95c0,11 -6,17 -17,17l-18 0 0 -34 14 0c7,0 10,1 13,2 7,3 8,10 8,15zm7 33c12,-6 19,-19 19,-34 0,-17 -8,-29 -21,-35 -6,-3 -12,-3 -24,-3l-42 0 0 125 26 0 0 -46 18 0 24 46 29 0 -26 -48c-1,-2 -2,-4 -3,-5zm3330 1810c16,1 43,7 43,35 0,29 -27,35 -43,36 -6,0 -362,0 -369,0 -16,-1 -43,-7 -43,-35 0,-29 27,-35 43,-36 8,0 357,0 369,0zm-499 35c0,71 52,115 138,120 7,1 14,1 20,1l313 0 2 0 3 0c96,0 153,-45 153,-120 0,-71 -51,-115 -138,-120 -7,0 -13,-1 -20,-1l-313 0 -2 0 -3 0c-95,0 -153,45 -153,120zm101 335l-12 -60 532 0 0 -85 -596 0c-13,0 -23,12 -20,25l23 120 73 0zm524 -901l-75 0 0 75 75 0 0 -75zm-525 -11l-12 -60 537 0 0 -85 -601 0c-13,0 -23,12 -20,25l23 120 73 0zm402 311c-62,0 -77,-22 -102,-59 -29,-42 -67,-99 -179,-99 -21,0 -61,0 -82,0 -52,-1 -99,22 -123,60 -11,17 -17,38 -17,62 0,71 53,116 140,121l27 0 0 -86c0,0 -42,0 -45,0 -17,-1 -44,-7 -44,-35 0,-29 27,-35 44,-36 6,0 78,0 100,0 66,0 83,24 108,61 28,41 66,97 173,97l94 0 0 -1 8 0c12,0 21,-9 21,-21l0 -222 -85 0 0 158 -38 0zm710 -2077l-4563 0c53,13 104,42 151,87l4412 0c86,0 156,76 156,169l0 2523c0,93 -70,169 -156,169l-5182 0c-86,0 -156,-76 -156,-169l0 -2523c0,-93 70,-169 156,-169l338 0c47,-45 98,-74 151,-87l-489 0c-134,0 -243,115 -243,256l0 2523c0,141 109,256 243,256l5182 0c134,0 243,-115 243,-256l0 -2523c0,-141 -109,-256 -243,-256z"/>
   <path fill="#26448C" d="M5172 2606l-40 0 0 167 40 0 0 -61 193 0 0 -45 -193 0 0 -61zm60 -201c-38,0 -60,7 -77,23 -16,17 -25,38 -25,63 0,25 9,47 25,63 19,18 37,23 84,23l19 0c25,0 60,0 83,-23 17,-16 26,-38 26,-63 0,-25 -9,-46 -26,-63 -24,-23 -54,-23 -84,-23l-25 0zm12 45c47,0 59,2 70,12 8,7 12,17 12,29 0,12 -5,22 -12,29 -11,11 -33,11 -57,11l-12 0c-29,0 -51,0 -62,-11 -8,-7 -13,-17 -13,-29 0,-12 5,-22 13,-29 10,-9 23,-12 61,-12zm121 -302l-233 0 0 45 126 60 -126 61 0 45 233 0 0 -46 -136 0 88 -45 0 -30 -88 -45 136 0 0 -45zm-72 -218l0 46c19,5 33,17 33,39 0,13 -5,23 -12,30 -10,8 -21,11 -66,11 -45,0 -56,-3 -66,-11 -7,-7 -12,-17 -12,-30 0,-22 15,-34 33,-39l0 -46c-48,8 -73,42 -73,86 0,25 9,46 25,63 24,23 53,22 93,22 40,0 69,1 93,-22 16,-17 26,-38 26,-63 0,-43 -25,-78 -74,-86zm72 -85l-122 0 122 -82 0 -55 -124 86 -109 -79 0 55 110 75 -110 0 0 45 233 0 0 -45z"/>
</svg>
