<svg xmlns="http://www.w3.org/2000/svg" viewBox="0 0 1640 2397" xmlns:xlink="http://www.w3.org/1999/xlink">
  <path fill="#C7383B" d="M0 0c547,0 1093,0 1640,0 0,0 0,1 0,1 0,796 0,1595 0,2390 0,1 0,2 0,3l0 0c0,1 0,2 -2,2 0,0 -1,0 -3,0 -16,1 -33,0 -50,0 -526,0 -1062,0 -1585,0 0,-798 0,-1597 0,-2395 0,0 0,-1 0,-1z"/>
  <path fill="#FEFEFE" d="M1050 1758c4,0 4,-8 0,-6 -3,1 -3,5 0,6zm-83 -167c-33,4 -65,9 -98,13 -42,6 -89,10 -134,15 -43,5 -89,11 -130,19 -29,5 -67,8 -96,15 -11,3 -22,6 -27,11 -8,6 -9,25 -2,32 6,6 14,3 23,2 6,-2 13,-2 18,-3 11,-3 22,-7 32,-9 22,-6 45,-10 67,-14 69,-11 142,-21 212,-31 24,-3 49,-5 72,-9 23,-3 46,-9 69,-12 22,-4 45,-7 62,-19 -9,-18 -44,-13 -68,-10zm-92 -52c-84,11 -161,24 -244,37 -26,4 -65,6 -94,11 -12,2 -23,4 -27,9 -6,9 -3,37 4,42 7,5 26,2 36,0 33,-5 61,-17 94,-22 67,-12 132,-23 198,-35 21,-4 42,-10 64,-13 34,-5 74,-4 103,-15 8,-3 21,-9 19,-20 -1,-11 -18,-12 -30,-11 -45,2 -82,12 -123,17zm-424 46c9,1 19,-3 28,-5 17,-4 36,-8 53,-11 9,-2 19,-3 27,-6 3,-1 5,-4 7,-5 6,5 13,0 20,-3 4,-2 8,-4 14,-5 11,-2 23,-1 37,-2 1,-1 1,-3 3,-4 2,-1 8,-1 13,-1 13,-1 29,0 41,-2 8,-1 16,-4 23,-6 24,-6 56,-3 83,-5 16,-1 36,-4 52,-6 33,-5 70,-8 105,-12 17,-1 35,-4 50,-8 8,-2 15,-6 21,-8 13,-4 32,-2 32,-16 0,-12 -16,-17 -29,-15 -1,0 -1,0 -1,0 -25,1 -50,6 -75,9 -14,1 -27,0 -40,0 -13,-1 -27,1 -40,2 -52,4 -104,9 -154,15 -101,10 -190,33 -290,46 -5,22 -2,48 20,48zm38 -247c13,-1 24,1 33,4 10,4 22,12 23,25 2,11 -4,21 -9,27 -20,19 -66,25 -103,19 -14,-3 -28,-8 -29,-21 -1,-7 1,-12 4,-19 2,-4 4,-11 8,-14 3,-3 10,-5 16,-7 5,-2 11,-4 18,-6 13,-4 25,-7 39,-8zm-69 -14c-9,6 -19,12 -26,21 -12,16 -21,50 -9,72 16,31 80,25 116,15 14,-4 29,-10 40,-19 11,-8 21,-20 22,-37 1,-14 -3,-25 -8,-33 -5,-10 -10,-17 -18,-22 -15,-10 -39,-5 -57,-2 -4,1 -11,3 -15,1 -7,-2 -4,-11 -14,-11 0,0 0,1 0,1 -15,0 -21,7 -31,14zm600 -49c0,19 -6,36 -10,52 -3,17 -7,35 -7,55 -123,16 -259,19 -386,31 -8,-25 -6,-62 -5,-92 50,-11 106,-13 158,-20 52,-7 105,-16 161,-18 -3,22 -8,46 -10,72 0,6 -1,20 2,24 2,2 6,1 9,2 14,-28 17,-68 25,-102 16,-2 34,-5 50,-6 5,-1 11,-2 13,2zm14 51c4,-19 6,-39 13,-52 1,-4 6,-8 6,-11 0,0 0,-2 0,-3 -1,-9 -14,-16 -23,-15 -11,1 -24,5 -37,8 -12,3 -27,6 -39,3 -5,-2 -8,-7 -15,-8 -3,4 -4,9 -9,11 -4,3 -12,4 -18,4 -21,3 -45,2 -65,3 -27,3 -55,7 -80,10 -54,6 -113,14 -168,7 -22,29 -11,88 -3,122 2,5 4,11 5,16 1,8 -1,16 4,19 6,3 18,-2 25,-3 28,-3 55,-5 81,-7 55,-6 104,-13 155,-21 52,-8 113,-4 159,-17 -7,-23 5,-43 9,-66zm98 -55c12,-2 25,1 34,5 8,4 17,10 15,23 0,9 -5,16 -10,22 -9,11 -21,22 -37,28 -16,5 -44,9 -46,-12 -1,-8 2,-16 5,-22 5,-13 12,-24 21,-33 5,-5 10,-10 18,-11zm-61 48c-4,17 -3,36 8,46 8,7 20,9 33,8 23,-1 42,-12 57,-25 14,-11 30,-30 30,-54 0,-16 -11,-27 -23,-34 -6,-3 -13,-5 -19,-8 -7,-3 -15,-9 -23,-7 -18,3 -37,9 -53,15 0,5 -4,8 -4,11 1,4 7,4 10,7 -8,12 -13,25 -16,41zm29 334c26,-47 44,-98 70,-145 13,-22 27,-45 39,-68 13,-24 24,-48 37,-72 12,-23 25,-47 36,-71 10,-25 20,-50 33,-74 6,-12 13,-22 20,-35 5,-10 13,-27 12,-41 -1,-10 -8,-14 -18,-14 -21,1 -43,3 -63,4 -63,3 -126,6 -187,11 -81,6 -160,15 -236,28 -115,18 -226,37 -344,52 -38,5 -77,8 -116,17 0,17 3,31 7,43 2,4 4,11 6,12 2,1 10,0 16,-1 35,-1 64,-11 95,-17 55,-11 109,-17 161,-29 18,-5 37,-6 56,-8 38,-5 75,-12 111,-18 5,-1 9,-1 13,-3 3,-1 6,-4 10,-5 8,-3 18,-4 27,-5 19,-3 39,-5 59,-5 41,-1 82,-4 118,-10 18,-3 36,-7 55,-9 57,-8 121,-8 184,-6 -9,23 -20,46 -31,68 -11,23 -20,46 -31,68 -20,45 -44,89 -65,133 -22,43 -45,87 -66,132 -10,22 -20,45 -30,69 -7,17 -14,35 -21,53 -2,5 -6,16 -8,17 -3,1 -14,1 -20,1 -35,-2 -64,-5 -99,-6 -14,0 -28,1 -40,2 -26,1 -53,2 -81,2 -27,0 -55,-1 -82,0 -55,2 -106,5 -157,9 -26,2 -50,5 -75,8 -24,4 -49,8 -76,7 0,0 0,0 0,0 -16,-61 -27,-128 -36,-201 -2,-17 -4,-35 -6,-53 -3,-36 -2,-74 -9,-108 -3,-17 0,-40 -6,-53 -1,-3 -4,-6 -6,-7 -14,-6 -15,11 -16,25 -1,9 0,22 2,30 3,20 6,39 9,58 5,40 9,80 14,119 4,40 10,78 17,115 5,28 10,56 18,82 3,8 7,18 12,21 4,3 12,3 19,3 21,2 40,-3 56,-7 22,-5 49,-8 74,-10 52,-4 105,-8 157,-11 82,-4 166,-2 246,-6 27,-1 53,-3 79,3 -1,2 -1,4 -2,6 -1,2 -3,4 -2,6 9,1 6,-9 10,-11 1,-1 3,-1 4,-1 3,-1 8,-3 11,-3 19,-3 39,1 57,-1 -4,-9 -14,-12 -23,-14 -10,-2 -21,-4 -33,-4 8,-26 22,-49 35,-72zm-68 -608c6,-2 18,-6 19,-14 1,-5 -4,-11 -8,-13 -9,-6 -34,-5 -47,-5 -50,3 -97,9 -142,16 -45,7 -90,13 -140,19 -46,5 -93,11 -138,19 -22,4 -43,10 -65,14 -12,2 -23,3 -34,6 -10,2 -23,6 -29,11 -4,5 -9,22 -3,32 4,7 19,6 29,5 19,-3 35,-9 50,-14 8,-2 16,-7 26,-5 0,30 -11,75 10,90 15,-21 12,-59 12,-93 51,-17 113,-20 171,-28 57,-9 115,-19 174,-25 8,32 6,73 20,98 2,-1 5,0 7,0 12,-28 0,-66 2,-99 27,-5 60,-6 86,-14zm171 -166c-9,21 -10,47 -16,71 -8,35 -18,68 -22,107 -3,23 -2,52 7,67 2,3 3,4 6,4 3,-1 4,-3 5,-6 2,-7 2,-20 2,-29 0,-14 0,-28 2,-38 4,-25 11,-44 16,-66 7,-34 9,-73 25,-98 3,-5 15,-17 10,-29 -2,-5 -10,-9 -15,-8 -10,2 -17,16 -20,25zm26 -54c16,-3 32,-5 43,-11 7,-4 15,-12 15,-21 1,-18 -15,-22 -33,-22 -18,1 -46,8 -59,17 -11,9 -20,31 -8,48 11,-4 26,-8 42,-11zm-44 -511c-5,6 -3,29 -3,41 0,86 0,171 0,257 0,13 -2,34 4,39 4,3 14,3 23,3 42,0 83,0 125,0 15,0 40,2 46,-4 5,-5 4,-18 4,-29 0,-12 1,-22 -2,-28 -4,-5 -20,-3 -30,-3 -27,0 -53,0 -81,0 -4,0 -13,0 -15,-2 -3,-2 -1,-14 -1,-19 0,-14 0,-29 0,-43 0,-6 -2,-17 1,-19 4,-3 16,-1 23,-1 18,0 29,0 46,0 7,0 18,1 22,-2 4,-4 2,-21 2,-29 0,-9 2,-24 -2,-29 -3,-5 -12,-4 -21,-4 -17,0 -29,0 -47,0 -7,0 -20,1 -23,-1 -2,-2 -1,-10 -1,-16 0,-6 0,-12 0,-17 0,-8 -3,-28 1,-33 2,-2 9,-1 14,-1 27,0 52,0 78,0 11,0 22,0 27,-5 4,-4 3,-19 3,-27 0,-9 1,-22 -2,-27 -4,-6 -13,-6 -23,-6 -24,0 -43,0 -66,0 -28,0 -63,-1 -89,1 -5,0 -11,0 -13,4zm-393 23c0,93 0,182 0,276 0,13 -1,33 5,38 6,5 31,3 44,3 87,0 170,0 256,0 12,0 35,2 41,-3 7,-5 5,-27 5,-41 0,-85 0,-169 0,-254 0,-11 2,-34 -2,-41 -5,-8 -22,-6 -36,-6 -11,0 -26,-1 -32,5 -5,5 -3,22 -3,35 0,76 0,147 0,222 0,6 0,14 -2,16 -2,4 -10,3 -15,3 -5,0 -11,0 -16,0 -8,0 -27,1 -31,-2 -3,-3 -2,-9 -2,-17 0,-76 0,-150 0,-226 0,-11 2,-26 -3,-31 -6,-7 -22,-5 -33,-5 -11,0 -27,-1 -33,4 -6,5 -4,24 -4,36 0,69 0,137 0,206 0,9 2,29 -2,33 -2,2 -10,2 -15,2 -6,0 -11,0 -16,0 -9,0 -27,2 -31,-2 -4,-4 -2,-22 -2,-32 0,-70 0,-139 0,-207 0,-11 2,-27 -1,-33 -4,-7 -15,-7 -26,-7 -11,0 -22,0 -29,1 -18,1 -17,8 -17,27zm-152 93c1,0 1,0 1,0 5,6 5,16 7,24 5,16 9,32 13,49 2,8 5,17 4,25 -14,1 -33,1 -47,0 -1,-8 2,-16 4,-24 4,-17 7,-32 11,-50 2,-7 3,-18 6,-23 0,-1 1,-1 1,-1zm-47 -100c-24,100 -48,201 -72,300 -2,6 -5,17 -1,21 2,3 9,3 14,3 7,0 11,0 17,0 10,0 24,2 31,-1 7,-4 9,-18 11,-28 1,-4 2,-9 3,-15 2,-4 3,-10 6,-13 4,-3 13,-2 20,-2 15,0 25,0 40,0 6,0 15,-1 19,1 4,3 5,9 6,13 1,6 3,11 4,16 2,9 4,23 11,27 4,2 10,2 17,2 6,0 12,0 18,0 8,0 27,2 31,-4 4,-5 -1,-15 -2,-22 -6,-22 -11,-43 -16,-64 -8,-31 -14,-54 -22,-86 -11,-43 -21,-84 -32,-128 -3,-10 -7,-35 -14,-39 -7,-4 -25,-2 -36,-2 -14,0 -28,0 -36,1 -14,1 -14,8 -17,20zm-296 -20c10,-1 45,-3 52,3 5,4 4,20 4,30 0,20 0,38 0,59 0,8 -2,24 3,28 4,3 24,1 32,1 6,0 11,0 16,0 6,0 13,0 15,-2 4,-3 3,-17 3,-27 0,-22 0,-36 0,-59 0,-12 -2,-26 4,-30 6,-5 20,-4 32,-4 15,0 30,-2 35,7 2,3 2,12 2,19 0,92 0,180 0,272 0,15 3,39 -5,44 -6,4 -20,3 -29,3 -14,0 -31,2 -37,-6 -4,-6 -2,-24 -2,-35 0,-33 0,-61 0,-94 0,-6 0,-15 -2,-17 -4,-4 -24,-2 -32,-2 -6,0 -12,0 -17,0 -5,0 -13,-1 -16,2 -4,4 -2,27 -2,37 0,27 0,52 0,78 0,13 2,30 -5,34 -6,5 -20,3 -30,3 -13,0 -31,2 -36,-6 -4,-7 -2,-28 -2,-40 0,-84 0,-168 0,-253 0,-12 -2,-36 3,-41 3,-4 9,-4 14,-4zm788 517c-12,14 -42,12 -52,-4 -9,-14 -8,-41 -1,-53 4,-7 12,-13 24,-15 14,-1 26,5 31,12 9,14 8,48 -2,60zm30 -91c-15,-11 -37,-16 -62,-14 -9,0 -17,1 -25,3 -22,7 -38,20 -45,40 -6,15 -7,34 -3,50 6,30 29,48 60,53 16,2 34,2 51,-2 27,-7 49,-28 51,-62 2,-34 -9,-56 -27,-68zm-749 39c-5,10 -21,10 -36,9l0 -30c0,-1 0,-1 0,-1 12,0 23,-1 30,3 6,3 9,12 6,19zm45 -28c-4,-8 -11,-14 -18,-18 -14,-7 -33,-5 -54,-5l-58 0c-1,0 -1,0 -1,1l0 142c17,0 34,1 50,0l0 -53c39,2 73,-2 82,-29 4,-11 4,-27 -1,-38zm67 65c6,-17 11,-34 17,-51 6,17 12,34 17,51l-34 0zm45 -88l-54 0c-20,47 -40,95 -59,143l49 0c4,-7 5,-17 9,-24l55 0c2,8 5,16 8,24l51 0c-19,-48 -40,-95 -59,-143zm191 110l-49 0c5,-23 10,-46 10,-74 0,0 0,-1 1,-1 13,0 26,0 39,0 -1,25 0,51 -1,75zm50 0l0 -110 -133 0c0,0 0,0 0,1 1,42 -1,81 -15,109l-15 0c-1,21 0,43 0,64l39 0c0,-10 0,-21 1,-31 33,0 67,0 100,0l0 31 40 0 0 -64 -17 0zm42 -109c0,47 0,95 0,142 15,0 31,0 46,0 20,-25 40,-53 59,-78 1,26 0,53 1,78 15,0 30,0 46,0 0,-48 0,-95 0,-143 -15,0 -31,0 -46,0 -20,25 -40,53 -60,78 0,-26 0,-52 0,-78 -15,0 -30,0 -45,0 -1,0 -1,0 -1,1z"/>
  <path fill="#FEFEFE" d="M525 2043c0,-23 -5,-63 -56,-63 -37,0 -60,21 -60,54l0 41c0,37 24,48 44,48 6,0 14,-2 20,-5 4,-2 5,-3 6,-3 2,0 2,1 2,2l0 7c0,11 0,31 -25,31 -22,0 -10,-6 -37,-6 -4,0 -4,3 -4,4l0 22c0,5 -2,15 44,15 63,0 66,-43 66,-67l0 -80zm-74 -11c0,-9 5,-17 15,-17 11,0 15,8 15,17l0 36c0,10 -5,17 -15,17 -9,0 -15,-6 -15,-17l0 -36zm93 96c0,42 26,62 58,62 31,0 58,-20 58,-62l0 -86c0,-42 -27,-62 -58,-62 -32,0 -58,20 -58,62l0 86zm43 -92c0,-16 8,-20 15,-20 14,0 15,14 15,20l0 98c0,4 -1,20 -15,20 -7,0 -15,-5 -15,-20l0 -98zm106 109c-4,0 -8,1 -8,8l0 27c0,3 0,8 8,8l5 0c1,0 2,1 2,2l0 2c0,6 -2,11 -7,12 -5,1 -8,0 -8,4l0 10c0,2 0,5 4,5l4 0c17,0 34,-14 34,-37l0 -33c0,-3 0,-8 -8,-8l-26 0zm64 -163c-10,0 -11,5 -11,11l0 15c0,10 5,10 11,10l48 0c2,0 3,2 3,3 0,1 0,2 -11,29 -26,70 -31,107 -31,124l0 4c0,5 0,10 10,10l22 0c10,0 10,-5 10,-10 1,-32 17,-95 35,-135 13,-28 17,-30 17,-36l0 -14c0,-6 -1,-11 -11,-11l-92 0zm187 196c0,9 5,10 10,10l23 0c6,0 11,-1 11,-10l0 -72c0,-2 -1,-5 3,-5l47 0c6,0 6,-4 6,-6l0 -26c0,-2 -1,-6 -7,-6l-46 0c-4,0 -3,-3 -3,-5l0 -31c0,-5 3,-5 5,-5l56 0c2,0 9,0 9,-7l0 -22c0,-6 0,-11 -10,-11l-94 0c-9,0 -10,5 -10,11l0 185zm176 -108c0,-1 2,-2 2,-1l24 58c2,5 4,8 8,8l10 0c5,0 7,-5 8,-8l23 -55c0,-1 0,-1 1,-1 1,0 1,1 1,2l0 105c0,5 0,10 10,10l23 0c5,0 10,-1 10,-10l0 -185c0,-6 0,-11 -10,-11l-25 0c-7,0 -9,6 -11,8l-32 63c0,1 -1,5 -3,5 -1,0 -2,-4 -3,-5l-32 -64c-1,-1 -4,-7 -11,-7l-26 0c-10,0 -10,5 -10,11l0 185c0,9 5,10 10,10l23 0c5,0 10,-1 10,-10l0 -108z"/>
</svg>
