<svg xmlns="http://www.w3.org/2000/svg" viewBox="0 0 6773 5393" xmlns:xlink="http://www.w3.org/1999/xlink">
   <path fill="#124A8C" d="M2339 1038l0 0 -1 -2 -8 0c0,0 -19,20 -37,132 -19,113 -26,153 -26,153l17 -12c0,0 83,-192 55,-271zm-271 677l3 -1 0 0c74,-39 146,-234 146,-234l-5 -21c0,0 -25,33 -87,128 -63,95 -62,123 -62,123 0,3 2,5 5,5zm1629 444l-979 -419c-32,-14 -55,-40 -67,-69l1 2c-16,-35 -20,-74 -13,-113 0,0 13,-71 15,-87 5,-23 0,-33 -7,-35l-217 -80 -28 -10 0 0 0 0c-6,-1 -11,-3 -16,-4 -24,-5 -50,-7 -76,-4 -39,4 -74,18 -105,38 14,67 50,126 100,170l0 32c0,30 12,55 28,61l0 0 1348 540c42,17 23,68 77,96 30,15 66,1 84,-3 18,-3 47,-11 67,-3 12,4 22,9 29,11 5,2 8,3 8,3 10,5 12,-6 12,-14l-261 -112zm-1352 -538c-14,9 -14,-23 -14,-40l0 -34c0,0 21,-17 26,-29 4,29 3,93 -12,103zm39 -175c-78,7 -117,-50 -117,-50 0,0 54,-22 117,-4 23,7 77,48 0,54z"/>
   <path fill="#E31E29" d="M5636 9l-5 -2c-13,-4 -28,-7 -43,-7 -3,0 -5,0 -7,0 -5,0 -10,1 -15,2 -57,7 -110,27 -157,55l0 0 -2454 1469 -221 -80c0,0 -24,-7 -44,8l240 87 -110 66c-11,-4 -24,-6 -36,-6 -5,0 -9,0 -13,1l-1 0c-21,2 -37,20 -37,41 0,9 3,17 7,23l0 1c10,14 22,26 37,35l731 315c6,0 19,1 15,-15 -9,-36 -85,-68 -85,-68 -9,-4 -17,-11 -23,-20l0 0c-5,-9 -3,-20 6,-26l2 -1 1 -1c905,-543 2020,-1592 2167,-1732 29,-25 52,-57 65,-95l1 -5c1,-3 2,-6 2,-10 0,-15 -10,-29 -23,-35zm-1693 1901c2,3 5,4 8,3l0 0 352 -116 1 0c6,-2 10,-8 10,-13l0 -37c0,0 -2,-28 -31,-51 -28,-23 -85,-51 -128,-51 -44,0 -72,46 -84,66 -12,19 -123,188 -127,193l0 0 0 1 0 0 -1 5zm505 -36l-4 -4c-37,-27 -85,-38 -133,-24l-486 161c0,0 -19,4 40,25 0,0 199,66 243,66 37,0 103,-33 141,-52 0,0 178,-85 202,-127 4,-6 7,-12 7,-19 1,-5 0,-9 -1,-13 -2,-5 -5,-10 -9,-13zm-1314 136l-565 -224c-22,-7 -40,-12 -40,-12 -8,-2 -15,-3 -24,-3 -12,0 -24,3 -34,8l-1 1 -1414 652 -19 8c-3,2 -8,4 -8,8 0,4 2,5 2,5 0,0 10,8 50,6l0 0c0,0 1374,-147 2052,-422 5,-3 8,-8 8,-13 0,-6 -3,-11 -7,-14z"/>

<g fill="#2b2a29">   
	<polygon  points="751,3249 883,3249 883,4272 751,4272 751,3279 24,4272 0,4272 0,3249 133,3249 133,4091 749,3249 "/>
	<path d="M1974 4166l0 24c-99,62 -208,94 -328,94 -159,0 -294,-52 -407,-154 -113,-102 -169,-226 -169,-371 0,-145 56,-269 168,-371 113,-103 249,-155 408,-155 119,0 228,32 328,95l0 24c-8,-7 -21,-17 -38,-27 -18,-12 -53,-26 -109,-45 -56,-18 -114,-28 -172,-28 -128,0 -232,47 -316,140 -81,93 -123,217 -123,367 0,152 42,275 126,368 85,93 189,141 316,141 159,0 269,-63 303,-90l13 -12z"/>
	<path d="M2851 4272l-23 0 -531 -638 0 638 -131 0 0 -1023 131 0 0 362c159,-1 267,-121 255,-362l138 0c0,115 -37,206 -113,274 -76,67 -164,101 -262,104l536 645z"/>
	<path d="M3242 3249l132 0 0 1023 -132 0 0 -618 -274 0 -453 618 -23 0 750 -1023zm-261 387l261 0 0 -356 -261 356z"/>
	<polygon  points="4172,3249 4172,3265 3930,3265 3930,4272 3797,4272 3797,3265 3555,3265 3555,3249 "/>
	<path d="M4352 3640c-7,33 -10,72 -10,115 0,152 45,275 135,371 90,96 200,142 328,140 115,-1 226,-38 294,-84 68,-46 124,-95 149,-125l17 -24 0 30c-7,11 -17,24 -76,74 -29,25 -60,46 -93,65 -65,39 -182,77 -301,79 -159,3 -300,-48 -420,-152 -120,-105 -181,-230 -181,-374 0,-145 56,-270 170,-371 113,-102 247,-154 406,-154 135,0 250,39 346,115 96,76 156,175 182,295l-946 0zm154 -292c-78,69 -128,160 -151,275l797 0c-10,-100 -50,-188 -119,-264 -68,-76 -152,-114 -251,-114 -106,0 -198,34 -276,103z"/>
	<polygon  points="6047,3249 6179,3249 6179,4272 6047,4272 6047,3280 5321,4272 5298,4272 6047,3250 "/>
	<path d="M6484 3877c84,0 153,18 208,54 54,36 81,80 81,133 0,56 -25,105 -79,145 -53,39 -123,60 -210,63l-132 0 0 -1023 132 0 0 628zm0 384c47,-5 87,-25 120,-62 33,-37 49,-80 49,-130 0,-102 -66,-178 -169,-180l0 372z"/>

	<path d="M1224 5065c0,-36 -11,-66 -31,-89 -27,-33 -67,-51 -119,-51l-181 0 0 389 54 0 0 -111 127 0c47,0 82,-15 109,-40 25,-25 41,-59 41,-98zm-277 91l0 -184 125 0c36,0 60,12 77,31 14,16 22,37 22,62 0,23 -9,45 -22,62 -15,18 -38,29 -71,29l-131 0zm462 -231l-173 389 56 0 33 -75 232 0 34 75 57 0 -173 -389 -66 0zm26 50l12 0 90 217 -192 0 90 -217zm382 -50l-35 251c-5,26 -11,49 -24,65 -13,15 -28,27 -56,27l0 125 41 0 8 -79 320 0 8 79 43 0 0 -125 -41 0 0 -343 -264 0zm212 46l0 297 -233 0c20,-21 30,-47 34,-79l32 -218 167 0zm214 -46l-51 0 0 389 51 0 250 -316 0 316 50 0 0 -389 -52 0 -248 316 0 -316zm579 -7c-62,0 -114,23 -151,62 -34,36 -54,85 -54,139 0,53 20,102 53,138 36,39 89,64 152,64 62,0 113,-23 150,-61 36,-36 56,-85 56,-141 0,-56 -21,-107 -58,-144 -37,-36 -88,-57 -148,-57zm-153 201c0,-44 16,-80 41,-108 28,-29 68,-47 112,-47 44,0 83,17 111,46 25,27 41,65 41,109 0,44 -15,81 -41,109 -27,30 -66,47 -111,47 -44,0 -84,-17 -112,-48 -25,-28 -41,-64 -41,-108zm807 37c54,0 100,-10 136,-30 -8,44 -21,78 -46,102 -23,23 -56,35 -99,35 -48,0 -82,-10 -125,-38l-29 42c47,35 92,48 155,48 61,0 108,-22 141,-56 47,-47 67,-117 67,-188 0,-74 -18,-140 -61,-185 -32,-34 -76,-55 -138,-55 -57,0 -106,18 -141,51 -31,29 -49,69 -49,116 0,52 19,89 49,115 35,30 87,43 140,43zm1 -274c44,0 74,15 96,39 33,37 43,92 43,147l0 6c-41,21 -75,31 -140,31 -40,0 -75,-10 -99,-31 -21,-17 -31,-42 -31,-76 0,-35 11,-61 32,-81 25,-24 59,-35 99,-35zm525 378c-50,0 -92,-21 -123,-53 -31,-31 -52,-78 -52,-134 0,-56 18,-101 49,-133 30,-34 74,-56 126,-56 52,0 95,22 126,56 30,32 49,77 49,133 0,56 -21,103 -52,134 -32,32 -74,53 -123,53zm0 55c65,0 121,-24 162,-64 47,-44 75,-107 75,-178 0,-65 -25,-127 -66,-171 -43,-44 -101,-71 -171,-71 -71,0 -129,27 -172,71 -41,44 -66,106 -66,171 0,71 28,135 75,179 41,39 97,63 163,63zm313 -48c0,25 17,44 44,44 27,0 43,-19 43,-44 0,-25 -16,-42 -43,-42 -27,0 -44,17 -44,42zm341 -4c-64,0 -96,-16 -147,-60l-34 38c43,47 90,74 181,74 75,0 118,-20 151,-48 34,-31 48,-71 48,-109 0,-31 -7,-52 -21,-73 -13,-19 -31,-33 -56,-42l0 -4c14,-10 25,-21 32,-35 8,-15 11,-32 11,-51 0,-40 -18,-68 -46,-89 -34,-25 -77,-33 -119,-33 -67,0 -114,15 -162,60l32 36c42,-34 74,-46 124,-46 30,0 62,2 85,17 19,11 30,29 30,55 0,20 -4,35 -15,45 -13,17 -34,26 -62,26l-125 0 0 50 130 0c40,0 67,8 82,26 14,14 21,34 21,58 0,27 -9,50 -27,68 -25,24 -56,37 -113,37zm471 -338l0 389 53 0 0 -171 210 0 0 -48 -210 0 0 -122 237 0 0 -48 -290 0zm363 0l0 389 50 0 0 -319 4 0 148 210 16 0 148 -210 4 0 0 319 53 0 0 -389 -63 0 -147 209 -149 -209 -64 0z"/>
</g>
</svg>
