<svg xmlns="http://www.w3.org/2000/svg" viewBox="0 0 8367 3260" xmlns:xlink="http://www.w3.org/1999/xlink">
	<rect fill="#FFED00" width="7586" height="3260" rx="662" ry="662"/> 
	
	<rect fill="#252322" x="130" y="130" width="7326" height="3000" rx="532" ry="532"/>
	<path fill="#a3a3a3" d="M662 130l6262 0c292,0 532,239 532,532l0 444c-984,388 -2244,621 -3614,621 -1416,0 -2715,-249 -3712,-661l0 -404c0,-293 239,-532 532,-532z"/>
	<g fill="#FFED00" fill-rule="evenodd">
		<path d="M2844 2882c-25,-6 -50,-11 -74,-17 0,-14 0,-28 0,-39 30,6 61,11 92,19 -2,12 -4,24 -4,37 -6,0 -10,0 -14,0zm632 -2c-31,-2 -62,-4 -92,-6 0,-13 0,-27 0,-39 43,2 88,6 133,10 0,12 0,24 2,35 -16,0 -29,0 -43,0zm-2924 -9c-33,-22 -85,-49 -91,-63 93,-31 33,-95 2,-134 4,-65 7,-127 11,-189 -15,2 -31,4 -46,5 19,-11 39,-23 58,-35 -51,-19 -97,-29 -136,-37 243,-103 296,-70 559,-44 -27,-22 -55,-43 -82,-65 33,0 146,68 189,55 20,-49 25,-96 31,-143 -2,-651 -4,-1302 -6,-1953 447,0 893,0 1340,2 407,26 654,250 875,603 282,600 214,1600 -476,1910 -208,54 -405,23 -610,33 92,14 185,27 279,41 -470,0 -940,0 -1408,0 47,-12 94,-22 141,-31 -121,-61 -168,-43 -267,17 -2,-2 -4,-4 -6,-4 21,-29 37,-60 43,-91 25,2 51,4 78,8 0,-201 -133,-119 -222,-141 21,-17 42,-35 66,-50 -144,-65 -162,-57 -296,-57 -10,16 -18,31 -26,47 -9,0 -19,2 -29,4 0,41 18,142 82,169 25,-31 51,-62 78,-93 41,124 45,84 236,101 -22,21 -98,16 -117,16 -8,11 -16,23 -24,35 18,13 35,29 53,45 -113,0 -199,-102 -288,-112 -30,59 37,104 21,151 -4,0 -8,0 -12,0zm2735 -4c-39,-16 -74,-35 -94,-51 24,0 72,18 121,23 -4,2 -6,6 -8,10 4,4 20,12 37,14 -19,0 -39,2 -56,4zm-2850 -76c-21,-6 -43,-12 -64,-18 0,-14 0,-27 0,-39 27,8 55,16 84,23 0,8 0,16 2,24 -8,2 -16,6 -22,10zm2606 2c0,-12 0,-24 0,-36 18,0 37,0 57,0 -2,10 -4,22 -4,34 -18,0 -35,0 -53,2zm-1885 -113c0,-8 0,-16 0,-24 20,0 41,0 63,0 -2,6 -4,14 -4,22 -20,0 -39,0 -59,2zm673 0c0,-8 0,-16 0,-24 31,0 62,0 95,0 -2,6 -3,14 -3,22 -32,0 -63,0 -92,2zm-1433 -43c-6,-16 -11,-32 -17,-45 6,-4 13,-8 21,-10 10,4 18,25 27,55 -11,0 -21,0 -31,0zm632 -10c-24,-25 -47,-49 -68,-72 5,-4 5,-4 74,2 -2,23 -4,47 -6,70zm-478 -29c0,-14 0,-26 2,-37 22,-2 45,-2 68,-2 -2,11 -2,23 -2,37 -23,0 -46,0 -68,2zm1745 -39c-12,-20 -12,-30 -10,-35 2,-2 4,-4 8,-4 6,11 13,23 21,37 -8,0 -13,0 -19,2zm-778 -22c-4,-9 -8,-19 -12,-29 2,-2 4,-2 6,-2 10,10 24,12 49,18 -16,7 -33,17 -43,13zm409 -62c0,-20 0,-39 0,-59 8,0 18,0 28,0 -2,18 -4,37 -4,57 -8,0 -16,0 -24,2zm536 -2c-87,-12 -148,-22 -216,-18 -55,-193 -115,-122 -209,-146 10,10 20,20 30,31 -82,0 -203,-44 -223,34 -31,-24 -50,-24 -64,-18 0,4 10,23 4,29 -131,-8 -222,-68 -325,14 -39,-8 -73,-39 -90,-47 -62,0 -105,-12 -146,-19 -45,44 -76,-18 -106,-41 24,-18 47,-35 73,-53 25,8 27,53 78,64 3,-7 9,-15 15,-21 14,0 37,25 72,39 0,-2 2,-4 4,-6 -13,-23 -21,-31 -17,-41 11,16 23,31 35,49 13,-24 21,-49 23,-63 105,4 211,8 316,12 0,-2 2,-4 4,-6 -45,-27 -55,-23 -86,-29 10,-12 19,-23 29,-33 -78,-39 -279,12 -343,21 -56,0 -97,-25 -142,-19 2,-16 6,-29 10,-43 -12,-6 -24,-10 -34,-14 94,-46 45,-97 153,28 37,-2 74,-2 111,-2 9,-26 9,-26 11,-55 59,6 119,14 180,22 21,-359 31,-704 41,-1045 29,150 -18,355 48,511 53,-53 6,-624 4,-708 72,-2 144,-4 217,-4 0,-17 0,-35 2,-53 54,55 109,82 198,22 143,43 279,93 419,191 262,251 236,785 39,1088 49,13 109,11 172,13 2,2 4,4 6,6 -143,6 -248,21 -371,78 -2,4 -2,8 -2,14 36,0 71,0 108,0 -39,80 -84,48 -135,48 -2,2 -4,4 -6,6 16,27 31,57 49,86 25,-2 43,-20 74,-25 6,7 12,17 18,27 -24,12 -22,2 -30,29 8,8 18,16 28,24 27,-18 43,-37 91,-34 -27,55 -70,57 -117,57zm-1005 -14c0,-15 0,-29 0,-43 7,0 15,0 25,0 -2,14 -4,28 -4,41 -8,0 -16,0 -21,2zm-749 -31c-25,-6 -51,-12 -76,-15 -2,-8 -4,-16 -4,-22 31,4 63,10 94,16 0,7 2,15 4,23 -6,-2 -12,-2 -18,-2zm-206 -15c0,-10 0,-18 0,-26 13,0 27,0 40,0 -1,8 -1,16 -1,24 -14,0 -28,0 -39,2zm1783 -38c-27,-56 -23,-35 -18,-81 2,2 4,4 8,5 0,4 16,71 10,76zm-427 -46c0,-12 0,-24 0,-35 24,0 47,0 72,0 -2,9 -4,21 -4,33 -23,0 -46,0 -68,2zm-659 -12c-13,-21 -15,-33 -17,-47 8,-2 17,-4 27,-4 8,16 16,32 23,47 -11,0 -23,2 -33,4zm-867 -21c0,-14 0,-28 0,-39 35,0 70,0 107,0 -2,11 -4,23 -4,37 -35,0 -70,0 -103,2zm902 -121c-7,-16 -13,-30 -19,-43 10,-4 19,-8 29,-10 8,16 16,31 24,49 -12,0 -24,2 -34,4zm1815 -6c55,0 111,0 168,0 -57,0 -113,0 -168,0zm-92 -4c4,0 10,0 16,0 -6,0 -12,0 -16,0zm-1300 -94c0,-163 8,-306 30,-448 17,55 52,407 -30,448zm-234 -27c-7,-12 -13,-23 -19,-35 6,-2 12,-2 19,-2 4,12 10,23 16,35 -6,0 -12,0 -16,2zm36 -142c-6,-12 -12,-24 -16,-35 4,-2 10,-4 16,-4 5,12 11,23 17,37 -6,0 -12,0 -17,2zm-211 -94c-14,-48 -51,-97 -49,-103 6,6 74,49 86,88 -14,4 -25,9 -37,15zm799 -1019c0,-8 0,-16 0,-23 14,0 29,0 45,0 -2,5 -2,13 -2,21 -16,0 -29,0 -43,2zm-136 -45c0,-16 0,-29 0,-43 8,0 15,0 23,0 -2,14 -4,27 -4,41 -8,0 -13,0 -19,2zm-82 -58c0,-18 2,-35 4,-53 -68,0 -135,0 -201,0 10,-2 21,-4 33,-6 0,-15 0,-31 2,-47 72,20 211,82 304,20 0,43 -6,49 -41,54 -50,-50 -95,32 -101,32zm563 -32c10,-19 14,-17 31,-27 4,2 8,4 12,6 0,4 0,8 2,14 -16,2 -31,4 -45,7z"/>
		<path d="M2844 2882c-25,-6 -50,-11 -74,-17 0,-14 0,-28 0,-39 30,6 61,11 92,19 -2,12 -4,24 -4,37 -6,0 -10,0 -14,0zm-1773 -25l8 -9c34,-8 68,-15 103,-22 -23,-11 -42,-20 -61,-26l338 -380c0,12 0,25 0,39 5,-2 13,-2 21,-2 0,-13 2,-27 4,-41 -9,0 -15,0 -22,0l37 -42c88,-43 173,4 287,11 6,-6 -4,-25 -4,-29 14,-6 33,-6 64,18 20,-78 141,-34 223,-34 -10,-11 -20,-21 -30,-31 94,24 154,-47 209,146 68,-4 129,6 216,18 47,0 90,-2 117,-57 -48,-3 -64,16 -91,34 -10,-8 -20,-16 -28,-24 8,-27 6,-17 30,-29 -6,-10 -12,-20 -18,-27 -31,5 -49,23 -74,25 -18,-29 -33,-59 -49,-86 2,-2 4,-4 6,-6 51,0 96,32 135,-48 -37,0 -72,0 -108,0 0,-6 0,-10 2,-14 123,-57 228,-72 371,-78 -2,-2 -4,-4 -6,-6 -63,-2 -123,0 -172,-13 180,-276 217,-743 24,-1014l461 -519c68,76 131,164 192,262 282,600 214,1600 -476,1910 -208,54 -405,23 -610,33 92,14 185,27 279,41 -460,0 -920,0 -1378,0zm523 -589l60 -69c4,2 8,3 11,5 -10,10 -19,21 -29,33 31,6 41,2 86,29 -2,2 -4,4 -4,6 -42,-1 -83,-3 -124,-4zm1882 612c-31,-2 -62,-4 -92,-6 0,-13 0,-27 0,-39 43,2 88,6 133,10 0,12 0,24 2,35 -16,0 -29,0 -43,0zm-189 -13c-39,-16 -74,-35 -94,-51 24,0 72,18 121,23 -4,2 -6,6 -8,10 4,4 20,12 37,14 -19,0 -39,2 -56,4zm-244 -74c0,-12 0,-24 0,-36 18,0 37,0 57,0 -2,10 -4,22 -4,34 -18,0 -35,0 -53,2zm-1212 -113c0,-8 0,-16 0,-24 31,0 62,0 95,0 -2,6 -3,14 -3,22 -32,0 -63,0 -92,2zm466 -121c-12,-20 -12,-30 -10,-35 2,-2 4,-4 8,-4 6,11 13,23 21,37 -8,0 -13,0 -19,2zm-778 -22c-4,-9 -8,-19 -12,-29 2,-2 4,-2 6,-2 10,10 24,12 49,18 -16,7 -33,17 -43,13zm409 -62c0,-20 0,-39 0,-59 8,0 18,0 28,0 -2,18 -4,37 -4,57 -8,0 -16,0 -24,2zm359 -100c-27,-56 -23,-35 -18,-81 2,2 4,4 8,5 0,4 16,71 10,76zm-427 -46c0,-12 0,-24 0,-35 24,0 47,0 72,0 -2,9 -4,21 -4,33 -23,0 -46,0 -68,2zm1191 -160c55,0 111,0 168,0 -57,0 -113,0 -168,0zm-92 -4c4,0 10,0 16,0 -6,0 -12,0 -16,0z"/>
		<path d="M1722 1512c-17,-3 -34,-7 -50,-10 -21,-135 3,-287 -20,-405 -4,132 -8,265 -12,399 -207,-40 -406,-86 -595,-137 -1,-364 -2,-727 -4,-1091 447,0 893,0 1340,2 294,19 505,141 683,341l-461 519c-18,-27 -39,-52 -63,-74 -140,-98 -276,-148 -419,-191 -89,60 -144,33 -198,-22 -2,18 -2,36 -2,53 -73,0 -145,2 -217,4 2,66 31,432 18,612zm327 -723c0,-8 0,-16 0,-23 14,0 29,0 45,0 -2,5 -2,13 -2,21 -16,0 -29,0 -43,2zm-136 -45c0,-16 0,-29 0,-43 8,0 15,0 23,0 -2,14 -4,27 -4,41 -8,0 -13,0 -19,2zm-82 -58c0,-18 2,-35 4,-53 -68,0 -135,0 -201,0 10,-2 21,-4 33,-6 0,-15 0,-31 2,-47 72,20 211,82 304,20 0,43 -6,49 -41,54 -50,-50 -95,32 -101,32zm563 -32c10,-19 14,-17 31,-27 4,2 8,4 12,6 0,4 0,8 2,14 -16,2 -31,4 -45,7z"/>
	</g>
	
	<path fill="#FEFEFE" d="M2169 1160l5893 0c168,0 305,139 305,310l0 276c0,171 -137,311 -305,311l-5893 0c-168,0 -305,-140 -305,-311l0 -276c0,-171 137,-310 305,-310z"/>
	<path fill="#E51A4B" d="M2169 1160l4183 0c167,0 304,139 304,310l0 276c0,171 -137,311 -304,311l-4183 0c-168,0 -305,-140 -305,-311l0 -276c0,-171 137,-310 305,-310z"/>

	<path fill="#e7345e" d="M2169 1160l4183 0c132,0 245,87 287,207 -793,210 -1751,333 -2781,333 -709,0 -1383,-58 -1994,-163l0 -67c0,-171 137,-310 305,-310z"/>

	<g fill="#FEFEFE">
		<path d="M2375 1437l-134 0 0 351 134 0c52,0 87,-12 106,-37 20,-26 30,-72 30,-138 0,-67 -10,-113 -30,-138 -19,-26 -54,-38 -106,-38zm-250 -94l253 0c88,0 154,22 196,68 42,45 63,116 63,211 0,49 -7,92 -21,127 -14,35 -35,64 -63,86 -22,17 -45,29 -70,37 -25,7 -59,10 -102,10l-256 0 0 -539z"/>
		<path d="M2932 1450l-81 208 164 0 -83 -208zm-57 -107l123 0 235 539 -129 0 -51 -128 -239 0 -49 128 -123 0 233 -539z"/>
		<polygon points="3271,1343 3418,1343 3643,1730 3638,1343 3756,1343 3756,1882 3621,1882 3385,1474 3390,1882 3271,1882 "/>
		<path d="M4095 1435c-48,0 -83,15 -104,45 -21,29 -31,79 -31,147 0,59 10,101 30,125 20,24 55,36 105,36l190 0 0 94 -196 0c-43,0 -77,-3 -102,-10 -24,-8 -48,-20 -69,-37 -28,-22 -50,-51 -64,-86 -14,-35 -21,-78 -21,-127 0,-95 21,-166 63,-211 43,-46 108,-68 197,-68l192 0 0 92 -190 0z"/>
		<path d="M4597 1437c-42,0 -73,10 -95,30 -21,21 -33,52 -35,95l320 0 0 94 -321 0c0,47 11,81 31,102 20,20 53,30 100,30l190 0 0 94 -195 0c-44,0 -78,-3 -102,-10 -25,-8 -48,-20 -70,-37 -28,-22 -49,-51 -63,-86 -14,-35 -21,-78 -21,-127 0,-95 21,-166 63,-211 42,-46 107,-68 196,-68l192 0 0 94 -190 0z"/>
		<path d="M5046 1424l90 0 0 406 -90 0 0 -406zm339 412c-70,0 -121,-17 -154,-51 -33,-34 -50,-86 -50,-157 0,-71 17,-124 50,-158 33,-34 85,-51 154,-51 68,0 119,17 152,51 33,34 50,87 50,158 0,71 -17,123 -50,157 -33,34 -84,51 -152,51zm-1 -67c39,0 67,-12 85,-35 19,-23 28,-58 28,-106 0,-48 -9,-84 -28,-107 -18,-23 -47,-34 -85,-34 -38,0 -67,11 -85,34 -18,23 -28,59 -28,107 0,48 10,83 28,106 18,23 47,35 85,35zm226 -8l167 0c23,0 40,-4 51,-12 10,-8 15,-21 15,-38 0,-17 -5,-29 -16,-38 -11,-8 -27,-12 -50,-12l-135 0 0 -69 133 0c23,0 40,-4 50,-12 11,-8 16,-20 16,-37 0,-17 -5,-29 -16,-37 -10,-8 -27,-12 -50,-12l-165 0 0 -70 195 0c46,0 80,9 101,27 22,17 33,44 33,81 0,19 -4,36 -13,52 -9,15 -23,29 -42,43 19,10 33,23 42,38 9,15 14,34 14,57 0,35 -11,61 -33,80 -22,19 -53,28 -93,28l-204 0 0 -69zm372 -1l68 0 0 70 -68 0 0 -70zm163 -133c-18,-13 -31,-27 -40,-44 -9,-16 -14,-34 -14,-54 0,-36 11,-62 33,-79 21,-17 55,-26 101,-26l109 0c45,0 79,9 101,26 22,17 33,43 33,78 0,20 -5,39 -14,55 -9,17 -22,31 -40,44 20,8 35,20 45,36 9,15 14,35 14,59 0,35 -11,61 -33,80 -22,19 -53,28 -93,28l-134 0c-41,0 -72,-9 -94,-28 -22,-19 -32,-45 -32,-80 0,-24 4,-43 14,-59 10,-15 24,-28 44,-36zm103 34c-22,0 -39,4 -49,12 -11,8 -16,21 -16,38 0,17 5,30 15,38 11,8 27,12 50,12l63 0c23,0 40,-4 50,-12 11,-8 16,-21 16,-38 0,-17 -5,-29 -16,-38 -11,-8 -27,-12 -50,-12l-63 0zm1 -167c-22,0 -39,4 -50,12 -10,8 -16,20 -16,37 0,17 5,29 16,37 11,8 27,12 50,12l62 0c23,0 39,-4 50,-12 10,-8 16,-20 16,-37 0,-17 -6,-30 -16,-37 -11,-8 -27,-12 -50,-12l-62 0z"/>
		<path fill="#FEFEFE" d="M4442 2441l-147 0 0 -79 393 0 0 79 -147 0 0 375 -99 0 0 -375zm263 143c0,-78 19,-136 56,-174 38,-38 94,-57 171,-57 77,0 134,19 170,57 37,39 56,98 56,179 0,80 -19,139 -56,178 -36,39 -93,58 -170,58 -78,0 -135,-19 -172,-58 -36,-39 -55,-100 -55,-183zm227 -154c-41,0 -72,13 -92,39 -20,25 -30,64 -30,116 0,56 9,97 29,123 20,26 51,39 93,39 41,0 72,-13 92,-39 20,-26 30,-66 30,-119 0,-54 -10,-94 -30,-120 -20,-26 -51,-39 -92,-39zm291 -68l141 0 115 348 116 -348 140 0 0 454 -94 0 8 -354 -116 354 -102 0 -120 -358 10 358 -98 0 0 -454zm793 77c-40,0 -68,13 -86,38 -17,25 -26,66 -26,124 0,49 9,85 25,105 17,20 46,31 87,31l157 0 0 79 -162 0c-35,0 -63,-3 -84,-9 -20,-7 -39,-17 -57,-31 -24,-19 -41,-43 -53,-73 -11,-29 -17,-65 -17,-106 0,-81 17,-140 52,-178 35,-38 89,-57 162,-57l159 0 0 77 -157 0zm227 -77l95 0 0 218 179 -218 115 0 -183 221 184 233 -122 0 -173 -226 0 226 -95 0 0 -454z"/>
	</g>

	<path fill="#252422" d="M6960 1636c0,-68 4,-119 13,-151 8,-32 23,-59 43,-79 21,-21 49,-36 84,-46 35,-10 79,-15 131,-15l176 0 0 94 -186 0c-50,0 -86,10 -109,31 -23,21 -35,54 -36,100l331 0 0 94 -331 0 0 221 -116 0 0 -249z"/>
	<polygon fill="#252422" points="7485,1345 7655,1345 7795,1759 7936,1345 8105,1345 8105,1885 7992,1885 8001,1464 7860,1885 7737,1885 7591,1460 7603,1885 7485,1885 "/>
</svg>
