<svg xmlns="http://www.w3.org/2000/svg" viewBox="0 0 1465 1503" xmlns:xlink="http://www.w3.org/1999/xlink">
	<g fill="#fbbd00">
		<polygon points="559,986 621,986 551,1503 851,916 766,916 849,600 689,601 801,0 514,695 613,695 "/>
		<polygon points="822,705 849,600 689,601 801,0 514,695 613,695 611,705 "/>
		<polygon points="559,986 621,986 551,1503 851,916 766,916 798,795 594,795 "/>
	</g>
	<g fill="#FEFEFE">
		<path d="M0 978l0 -378 55 0 55 155 52 -155 58 0 0 316 -58 0 0 -157 -37 107 -33 0 -33 -106 0 218 -59 0zm362 -62l-14 -63 -44 0 -14 63 -59 0 70 -316 50 0 70 314 67 -165 -61 -149 58 0 34 81 34 -81 60 0 -63 149 69 167 -62 0 -38 -96 -35 96 -63 0 -1 0 -58 0zm-23 -117l-14 -70 -13 70 27 0zm1067 176l0 -219 -36 107 -34 0 -33 -106 0 156 -59 0 0 -316 55 0 55 155 53 -155 58 0 0 378 -59 0zm-277 -53c-9,0 -18,-2 -27,-4 -9,-3 -18,-8 -26,-15 -8,-7 -14,-16 -19,-29 -5,-11 -7,-25 -7,-44l0 -230 59 0 0 236c0,10 2,17 5,21 4,5 8,7 15,7 7,0 12,-2 15,-7 4,-5 6,-12 6,-21l0 -236 59 0 0 230c0,18 -3,33 -7,44 -5,12 -12,22 -20,29 -8,7 -16,12 -26,15 -9,2 -18,4 -27,4zm-174 -6l0 -157 -36 107 -34 0 -33 -106 0 156 -59 0 0 -316 55 0 55 155 53 -155 58 0 0 316 -59 0zm-259 -1l71 0 -138 356 66 -355 -60 0 54 -316 61 0 -54 315zm-82 -315l143 -361 -68 361 -75 0z"/>
		<path d="M696 1256l0 -41 41 0 -10 41 -31 0zm198 2l0 -191 90 0 0 36 -51 0 0 42 43 0 0 37 -43 0 0 76 -39 0zm200 0l0 -90 -16 54 -24 0 -17 -54 0 90 -37 0 0 -191 36 0 30 96 29 -96 36 0 0 191 -37 0zm-712 -132c0,25 3,37 11,46 6,9 17,13 28,13 2,0 6,0 9,-2l-32 74 38 0 36 -90c5,-11 8,-27 8,-41 0,-20 -2,-32 -9,-43 -8,-11 -21,-18 -39,-18 -17,0 -32,5 -40,18 -6,8 -10,19 -10,43zm49 -29c4,0 7,1 9,4 3,5 3,15 3,25 0,11 0,21 -3,26 -2,3 -5,4 -9,4 -3,0 -7,-1 -9,-4 -3,-5 -3,-15 -3,-26 0,-10 0,-20 3,-25 2,-3 6,-4 9,-4zm166 106c0,-11 -1,-21 -6,-30 -2,-6 -6,-10 -11,-14 4,-4 8,-8 10,-12 4,-10 5,-19 5,-29 0,-16 -2,-30 -14,-41 -8,-8 -20,-12 -34,-12 -13,0 -24,4 -33,12 -11,11 -14,25 -14,41 0,10 1,19 5,29 3,4 6,8 11,12 -5,4 -9,8 -12,14 -4,9 -5,19 -5,30 0,18 1,32 14,44 9,8 22,13 35,13 13,0 26,-5 35,-13 13,-12 14,-26 14,-44zm-37 -2c0,10 0,18 -3,22 -2,3 -6,4 -9,4 -4,0 -7,-1 -9,-4 -3,-4 -3,-12 -3,-22 0,-11 0,-19 3,-23 2,-3 5,-4 9,-4 3,0 7,1 9,4 3,4 3,12 3,23zm-23 -80c0,-15 1,-19 4,-22 2,-1 4,-2 7,-2 3,0 5,1 7,2 2,3 3,7 3,22 0,14 -1,18 -3,21 -2,1 -4,2 -7,2 -3,0 -5,-1 -7,-2 -3,-3 -4,-7 -4,-21zm314 82c0,-11 -1,-21 -5,-30 -3,-6 -7,-10 -12,-14 5,-4 8,-8 10,-12 5,-10 6,-19 6,-29 0,-16 -3,-30 -14,-41 -9,-8 -21,-12 -34,-12 -13,0 -25,4 -33,12 -12,11 -14,25 -14,41 0,10 0,19 5,29 2,4 6,8 10,12 -5,4 -9,8 -11,14 -5,9 -6,19 -6,30 0,18 1,32 14,44 9,8 22,13 35,13 13,0 26,-5 35,-13 13,-12 14,-26 14,-44zm-37 -2c0,10 0,18 -3,22 -2,3 -5,4 -9,4 -3,0 -7,-1 -9,-4 -3,-4 -3,-12 -3,-22 0,-11 0,-19 3,-23 2,-3 6,-4 9,-4 4,0 7,1 9,4 3,4 3,12 3,23zm-23 -80c0,-15 2,-19 4,-22 2,-1 4,-2 7,-2 3,0 5,1 7,2 3,3 4,7 4,22 0,14 -1,18 -4,21 -2,1 -4,2 -7,2 -3,0 -5,-1 -7,-2 -2,-3 -4,-7 -4,-21z"/>
	</g>
</svg>
