<svg xmlns="http://www.w3.org/2000/svg" viewBox="0 0 16874 10292" xmlns:xlink="http://www.w3.org/1999/xlink">
 <g fill="#CA2728">
   <path d="M1681 3429c0,850 -324,1084 -842,1084 -242,0 -461,-41 -630,-97l-138 995c243,81 615,129 898,129 1197,0 1941,-542 1941,-2095l0 -3445 -1229 0 0 3429z"/>
   <path d="M4778 3130l324 -1157c89,-315 170,-727 251,-1051l16 0c81,324 178,728 275,1051l339 1157 -1205 0zm-178 -3130l-1666 5451 1278 0 388 -1399 1561 0 421 1399 1326 0 -1690 -5451 -1618 0z"/>
   <path d="M11796 4735c-35,0 -57,2 -68,5l0 191 66 0c74,0 120,-40 120,-100 0,-66 -46,-96 -118,-96z"/>
   <path d="M12887 4743l-2 0c-9,35 -18,77 -28,113l-47 149 155 0 -47 -149c-12,-36 -22,-78 -31,-113z"/>
   <path d="M15945 5269c-170,0 -277,-130 -277,-307 0,-185 116,-316 286,-316 176,0 280,133 280,305 0,202 -122,318 -289,318zm-909 -10l-110 0 0 -603 110 0 0 603zm-837 -76c-60,54 -156,82 -273,82 -64,0 -113,-3 -148,-8l0 -593c48,-8 110,-13 175,-13 113,0 191,24 246,70 58,48 94,119 94,222 0,107 -37,188 -94,240zm-1161 76l-54 -171 -192 0 -52 171 -113 0 193 -603 141 0 196 603 -119 0zm-1106 0c-9,-18 -23,-67 -40,-142 -17,-79 -46,-104 -108,-106l-56 0 0 248 -109 0 0 -595c41,-7 103,-13 167,-13 86,0 145,15 186,49 33,27 51,69 51,120 0,78 -52,131 -109,152l0 2c43,16 69,59 84,117 19,75 35,145 48,168l-114 0zm2325 -827l0 -32 2540 -3688 0 -712 -3955 0 0 1019 2354 0 0 32 -2349 3381 -3054 0 0 -32 2539 -3688 0 -712 -3955 0 0 1019 2354 0 0 32 -2596 3737 0 663 4464 0 1340 0 2898 0 0 -1019 -2580 0z"/>
   <path d="M13963 4737c-35,0 -60,3 -75,6l0 432c15,2 38,2 61,2 143,1 228,-77 228,-230 1,-134 -76,-210 -214,-210z"/>
   <path d="M15952 4735c-110,0 -168,101 -168,225 0,123 62,220 168,220 106,0 166,-98 166,-224 0,-114 -56,-221 -166,-221z"/>
   <polygon points="10227,6529 12525,6529 12525,7226 11080,7226 11080,8085 12430,8085 12430,8776 11080,8776 11080,10288 10227,10288 "/>
   <path d="M15988 8849c-17,-452 -34,-998 -34,-1545l-17 0c-117,480 -273,1015 -418,1456l-457 1466 -664 0 -401 -1455c-123,-441 -251,-976 -340,-1467l-11 0c-23,508 -40,1088 -67,1556l-67 1428 -786 0 239 -3759 1132 0 368 1255c117,435 235,903 318,1344l17 0c106,-435 234,-932 357,-1350l401 -1249 1110 0 206 3759 -831 0 -55 -1439z"/>
   <path d="M1279 7331c-216,0 -394,144 -394,416 0,273 178,417 394,417 216,0 395,-144 395,-417 0,-272 -179,-416 -395,-416zm913 1480l-740 1450 -972 0 762 -1434c-76,26 -157,26 -216,26 -470,0 -1026,-381 -1026,-1106 0,-776 588,-1177 1279,-1177 691,0 1280,401 1280,1177 0,376 -189,720 -367,1064z"/>
   <path d="M4146 7331c-216,0 -394,144 -394,416 0,273 178,417 394,417 216,0 394,-144 394,-417 0,-272 -178,-416 -394,-416zm912 1480l-739 1450 -972 0 761 -1434c-75,26 -156,26 -216,26 -469,0 -1026,-381 -1026,-1106 0,-776 589,-1177 1280,-1177 691,0 1279,401 1279,1177 0,376 -189,720 -367,1064z"/>
   <polygon points="5803,10261 5803,9336 6775,9336 6775,10261 "/>
   <path d="M8432 8698c-216,0 -394,144 -394,417 0,272 178,416 394,416 216,0 394,-144 394,-416 0,-273 -178,-417 -394,-417zm0 1594c-691,0 -1279,-401 -1279,-1177 0,-376 189,-720 367,-1064l739 -1450 972 0 -761 1434c75,-26 156,-26 216,-26 469,0 1026,381 1026,1106 0,776 -589,1177 -1280,1177z"/>
 </g>
</svg>
