<svg xmlns="http://www.w3.org/2000/svg" viewBox="0 0 10748 3977" xmlns:xlink="http://www.w3.org/1999/xlink">
	<path fill="#e31e24" d="M210 2395l2526 -1703 28 -514 730 -113c0,47 2,97 0,141 -3,47 65,4 93,-19l168 -140 693 -10 -908 758 56 870 -1122 150c-3,-59 -6,-119 -9,-178 3,-37 -19,-37 -66,0l-299 299 -1534 477 -356 -18zm3985 -908l543 -1459 589 0 14 501c1,19 37,26 51,4l365 -533 590 0 795 1628 -1170 -103c-31,-187 -62,-374 -93,-561 -22,-38 -44,-38 -66,0l-233 542 -1385 -19zm4584 431l-1272 -1534 -637 9 -130 -365 1917 103 328 253c-141,0 -281,0 -422,0 -111,6 -73,59 -27,102l2001 1759 -364 19 -1394 -346z"/>
	<g fill="#2b2a29">
		<polygon points="0,3956 0,3060 3677,3060 3677,3248 1918,3248 1918,3435 3583,3435 3583,3603 1918,3603 1918,3957 "/>
		<polygon points="4303,3977 4303,3060 7189,3060 7530,3406 7895,3070 10748,3070 10748,3958 8915,3958 8915,3462 8194,3968 6810,3968 6155,3462 6155,3977 "/>
		<path d="M3549 2000l29 0c56,0 109,-15 158,-45 49,-30 79,-70 90,-122l12 0 166 0 0 939 -13 0 -221 0 0 -659 -221 0 0 -113zm1149 789c-125,0 -220,-45 -283,-133 -63,-88 -95,-206 -95,-354 0,-147 32,-265 95,-354 63,-88 158,-133 283,-133l13 0c112,0 195,31 248,92 54,61 90,128 109,202 9,34 15,69 18,102 3,34 4,64 4,91 0,27 -1,58 -4,91 -3,34 -9,68 -18,103 -19,73 -55,140 -109,201 -53,61 -136,91 -248,91l-13 1zm7 -154c54,-2 92,-24 113,-66 22,-42 36,-88 42,-139 4,-23 5,-45 6,-67 0,-22 0,-42 0,-61 0,-18 0,-38 0,-60 -1,-22 -2,-45 -6,-67 -6,-51 -20,-97 -42,-140 -21,-42 -59,-64 -113,-65 -54,1 -91,23 -114,65 -22,43 -36,89 -42,138 -3,23 -4,46 -5,68 -1,22 -1,43 -1,61 0,19 0,39 1,62 1,22 2,45 5,67 6,50 20,96 42,138 23,42 60,64 114,66zm603 -635l29 0c57,0 109,-15 158,-45 49,-30 79,-70 90,-122l13 0 165 0 0 939 -12 0 -222 0 0 -659 -221 0 0 -113zm859 559l12 0 222 0 0 213 -13 0 -221 0 0 -213zm421 -726l13 0 776 0 0 156c-6,5 -26,24 -60,59 -35,34 -72,80 -112,138 -18,25 -35,53 -52,82 -17,29 -32,60 -46,93 -32,71 -55,141 -69,210 -15,68 -23,135 -25,201l-13 0 -230 0c3,-56 10,-110 23,-161 14,-51 28,-98 43,-139 6,-14 11,-28 16,-41 5,-13 10,-25 15,-36 32,-69 70,-135 117,-198 46,-64 94,-121 144,-170 3,-4 5,-7 8,-10 3,-3 6,-6 10,-8l0 -4 -558 0 0 -172z"/>
	</g>   
   
</svg>
