<svg xmlns="http://www.w3.org/2000/svg" viewBox="0 0 7457 9384" xmlns:xlink="http://www.w3.org/1999/xlink">
  <path fill="#fff" d="M3729 1492c1235,0 2237,1001 2237,2237 0,1235 -1002,2237 -2237,2237 -1236,0 -2237,-1002 -2237,-2237 0,-1236 1001,-2237 2237,-2237z"/>
  <path fill="#008CCC" d="M1492 3729c0,-304 60,-593 169,-857l-1378 -571c-182,440 -283,922 -283,1428 0,505 101,987 283,1427l1378 -571c-109,-264 -169,-553 -169,-856z"/>
  <path fill="#0CAB66" d="M283 2301l1378 571c227,-547 664,-984 1211,-1211l-571 -1378c-911,378 -1640,1107 -2018,2018z"/>
  <path fill="#94C72E" d="M2301 283l571 1378c264,-109 553,-169 857,-169 303,0 592,60 856,169l571 -1378c-440,-182 -922,-283 -1427,-283 -506,0 -988,101 -1428,283z"/>
  <path fill="#BAD405" d="M5156 283l-571 1378c547,227 984,664 1211,1211l1379 -571c-378,-911 -1108,-1640 -2019,-2018z"/>
  <path fill="#94C72E" d="M7175 2301l-1379 571c110,264 170,553 170,857 0,303 -60,592 -170,856l1379 571c182,-440 282,-922 282,-1427 0,-506 -100,-988 -282,-1428z"/>
  <path fill="#0CAB66" d="M7175 5156l-1379 -571c-227,547 -664,984 -1211,1211l571 1379c911,-378 1641,-1107 2019,-2019z"/>
  <path fill="#008CCC" d="M5156 7175l-571 -1379c-264,110 -553,170 -856,170 -304,0 -593,-60 -857,-170l-571 1379c440,182 922,282 1428,282 505,0 987,-100 1427,-282z"/>
  <path fill="#0079AD" d="M2301 7175l571 -1379c-547,-227 -984,-664 -1211,-1211l-1378 571c378,912 1107,1641 2018,2019z"/>
  <polygon fill="#008CCC" points="283,8043 7175,7767 7175,9109 283,9384 "/>
  <g id="_864542992">
   <path fill="#0079AD" d="M2432 3192l0 146 -108 0 0 -640c36,0 72,0 108,0 0,17 0,33 0,49 133,-110 428,-85 428,200 0,296 -294,352 -428,245zm818 -7c-129,107 -358,59 -358,-106 0,-176 219,-180 357,-197 -14,-147 -178,-101 -261,-40 -15,-30 -31,-61 -47,-91 148,-101 417,-104 417,142 0,113 0,225 0,337 -36,0 -72,0 -108,0 0,-15 0,-30 0,-45zm639 45c-126,0 -252,0 -377,0l0 48 -104 0 0 -146c21,0 42,0 63,0 85,-119 73,-289 77,-434 120,0 240,0 361,0 0,145 0,290 0,434 28,0 56,0 84,0l0 146 -104 0 0 -48zm535 -345l-301 345 -77 0 0 -532 108 0 0 332 289 -332 90 0 0 532 -109 0 0 -345zm451 357c-388,0 -389,-555 6,-555 382,0 378,555 -6,555zm-2284 -98c193,3 218,-356 12,-359 -217,-4 -221,355 -12,359zm659 -164c-117,15 -247,10 -247,97 0,100 247,107 247,-97zm550 -184c-50,0 -101,0 -151,0 -8,116 -3,232 -56,336 69,0 138,0 207,0 0,-112 0,-224 0,-336zm1079 -11c-232,3 -234,362 -3,359 223,-4 225,-359 3,-359z"/>
   <path fill="#2B2926" d="M2596 3764l-226 -333 -343 0 0 1046 351 0 0 -554 166 246 104 0 166 -246 0 554 349 0 0 -1046 -342 0 -225 333zm2387 243c76,0 166,-29 166,-184 0,-119 -78,-148 -166,-148l-90 0 0 332 90 0zm-1310 470l328 -482 0 482 351 0 0 -1046 -320 0 -328 493 0 -493 -351 0 0 1046 320 0zm869 0l0 0 0 -1046 500 0c231,0 458,113 458,392 0,303 -239,428 -458,428l-149 0 0 226 -351 0z"/>
  </g>
  <path fill="#fff" d="M2602 8519c0,65 -9,126 -25,182 -17,56 -42,103 -76,142 -37,41 -83,72 -137,93 -55,21 -119,31 -191,31 -26,0 -54,-2 -84,-5 -30,-3 -49,-6 -59,-8l0 -153 21 0c10,5 25,10 45,16 19,5 45,8 79,8 27,0 53,-3 79,-10 27,-7 49,-18 68,-33 20,-15 37,-35 50,-58 13,-24 22,-52 27,-85 -30,17 -58,30 -84,39 -26,10 -59,14 -97,14 -30,0 -58,-3 -84,-10 -27,-7 -51,-18 -73,-33 -29,-21 -52,-48 -69,-82 -17,-33 -26,-76 -26,-127 0,-83 29,-151 87,-203 58,-53 134,-79 228,-79 48,0 91,6 128,19 38,13 70,32 97,58 32,30 56,69 72,115 16,46 24,103 24,169zm-200 -29c0,-43 -4,-77 -12,-105 -8,-27 -20,-48 -34,-63 -10,-11 -22,-19 -35,-24 -13,-5 -27,-7 -42,-7 -13,0 -26,2 -39,7 -12,4 -24,12 -36,24 -10,11 -19,26 -26,44 -7,18 -10,39 -10,64 0,25 4,45 11,62 7,16 17,29 30,39 12,9 27,16 43,20 17,4 35,6 54,6 16,0 33,-2 52,-6 18,-4 32,-8 42,-13 0,-3 1,-9 1,-16 1,-7 1,-18 1,-32zm877 461l-519 0 0 -136 164 0 0 -410 -164 0 0 -127c25,0 49,-2 72,-5 23,-3 42,-8 58,-15 18,-9 31,-20 40,-34 9,-14 14,-31 16,-52l172 0 0 643 161 0 0 136zm343 0l-195 0 0 -205 195 0 0 205zm736 -263c0,40 -8,78 -23,112 -15,35 -37,65 -66,89 -32,27 -68,46 -110,59 -42,13 -89,19 -142,19 -63,0 -116,-5 -158,-15 -44,-10 -78,-20 -106,-32l0 -172 22 0c32,19 66,35 103,47 37,13 73,19 109,19 22,0 46,-2 72,-7 26,-5 46,-15 61,-28 12,-11 21,-22 27,-33 6,-11 9,-28 9,-52 0,-18 -4,-33 -12,-47 -8,-13 -19,-23 -32,-31 -19,-12 -42,-19 -68,-23 -27,-4 -51,-5 -73,-5 -31,0 -61,2 -90,7 -29,6 -54,11 -76,16l-23 0 0 -437 554 0 0 149 -366 0 0 126c11,0 25,-1 41,-2 17,0 32,0 44,0 43,0 81,4 115,12 34,8 63,19 87,34 32,19 57,44 74,76 18,31 27,71 27,119zm828 -161l-240 0 0 98 223 0 0 102 -223 0 0 224 -136 0 0 -526 376 0 0 102zm612 424l-136 0 0 -352 -97 228 -93 0 -97 -228 0 352 -128 0 0 -526 157 0 118 264 117 -264 159 0 0 526z"/>
</svg>
