<svg xmlns="http://www.w3.org/2000/svg"  viewBox="0 0 4088 4517" xmlns:xlink="http://www.w3.org/1999/xlink">
    <path fill="#008DD2" d="M397 0l3294 0c219,0 397,175 397,389l0 3739c0,214 -178,389 -397,389l-3294 0c-218,0 -397,-175 -397,-389l0 -3739c0,-214 179,-389 397,-389z"/>
	<g fill-rule="evenodd">
    <path fill="#FEFEFE" d="M2622 1661c0,-28 -23,-51 -51,-51 -27,0 -50,23 -50,51l0 278 -207 0c-13,0 -23,-10 -23,-22l0 -104 0 0 0 -152c0,-28 -23,-51 -51,-51 -28,0 -51,23 -51,51l0 256c0,68 56,123 125,123l207 0 0 226c0,27 23,50 50,50 28,0 51,-23 51,-50l0 -605zm-1946 -1167c-1,0 -3,0 -4,0 -28,0 -51,23 -51,51l0 604c0,28 23,51 51,51 28,0 50,-23 50,-51l0 -225 193 0c68,0 124,-55 124,-123l0 -183c0,-68 -56,-124 -124,-124l-239 0zm46 329l0 -227 193 0c12,0 23,10 23,22l0 183c0,12 -11,22 -23,22l-193 0zm580 202l213 0 46 140c9,27 38,42 64,33 27,-9 41,-37 33,-64l-200 -613c-7,-22 -28,-35 -49,-35 -22,0 -42,13 -49,35l-200 613c-9,27 6,55 32,64 27,9 56,-6 64,-33l46 -140zm180 -101l-147 0 74 -227 73 227zm203 1217l213 0 46 140c9,27 37,42 64,33 26,-9 41,-37 32,-64l-199 -613c-8,-22 -28,-35 -50,-35 -21,0 -42,13 -49,35l-199 613c-9,27 6,55 32,64 27,9 55,-6 64,-33l46 -140zm180 -101l-147 0 73 -227 74 227zm1052 101l214 0 45 140c9,27 38,42 64,33 27,-9 41,-37 33,-64l-200 -613c-7,-22 -27,-35 -49,-35 -22,0 -42,13 -49,35l-200 613c-9,27 6,55 33,64 26,9 55,-6 63,-33l46 -140zm181 -101l-148 0 74 -227 74 227zm-1121 -1544c-23,3 -42,21 -44,45l-56 550 -25 0c-27,2 -48,24 -48,51l0 70c0,28 22,51 50,51 28,0 51,-23 51,-51l0 -19 298 0 0 19c0,28 22,51 50,51 28,0 51,-23 51,-51 0,-23 0,-47 0,-70 0,-28 -23,-50 -49,-51l-18 0c0,-182 0,-364 0,-546 0,-26 -19,-47 -44,-50 -1,-1 -1,-1 -2,-1 0,0 0,0 -1,0 0,0 -1,0 -1,0 -1,0 -1,0 -1,0 -1,0 -1,0 -2,0l-209 2zm52 100l107 0 0 495 -157 0 50 -495zm-963 1016c-22,3 -41,21 -44,45l-55 550 -26 0c-26,2 -48,24 -48,51l0 70c0,28 23,51 51,51 28,0 51,-23 51,-51l0 -19 297 0 0 19c0,28 23,51 51,51 28,0 50,-23 50,-51 0,-23 0,-47 0,-70 0,-28 -22,-50 -49,-51l-17 0c0,-182 0,-364 0,-546 0,-26 -20,-47 -45,-50 0,0 -1,-1 -1,-1 0,0 -1,0 -1,0 -1,0 -1,0 -2,0 0,0 0,0 -1,0 0,0 -1,0 -1,0l-210 2zm53 100l106 0 0 495 -156 0 50 -495zm1666 -1189l-233 430 0 -408c0,-28 -23,-51 -51,-51 -27,0 -50,23 -50,51l0 604c0,28 23,51 50,51 20,0 40,-13 49,-30l232 -429 0 408c0,28 22,51 50,51 28,0 51,-23 51,-51l0 -604c0,-28 -23,-51 -51,-51 -19,0 -38,12 -47,29zm384 73l176 0c13,0 23,10 23,22l0 459c0,12 -10,22 -23,22l-176 0c-13,0 -24,-10 -24,-22l0 -459c0,-12 11,-22 24,-22zm0 -102l176 0c68,0 124,56 124,124l0 459c0,67 -56,123 -124,123l-176 0c-69,0 -125,-55 -125,-123l0 -459c0,-68 56,-124 125,-124z"/>
    <path fill="#FEFEFE" d="M397 177l3294 0c121,0 220,95 220,212l0 3739c0,117 -99,212 -220,212l-3294 0c-121,0 -220,-95 -220,-212l0 -3739c0,-117 99,-212 220,-212zm0 -79l3294 0c165,0 299,131 299,291l0 3739c0,160 -134,291 -299,291l-3294 0c-164,0 -299,-131 -299,-291l0 -3739c0,-160 135,-291 299,-291z"/>
   <path fill="#FEFEFE" d="M715 3967c0,34 -28,62 -62,62 -34,0 -62,-28 -62,-62l0 -628 -67 67c-24,24 -63,24 -88,0 -24,-24 -24,-64 0,-88l176 -175c10,-10 25,-15 41,-15 34,0 62,27 62,62l0 777zm1655 0c0,34 -28,62 -62,62 -34,0 -62,-28 -62,-62l0 -628 -67 67c-24,24 -63,24 -87,0 -24,-24 -24,-64 0,-88l175 -175c11,-10 25,-15 41,-15 34,0 62,27 62,62l0 777zm1096 -345c32,0 59,25 59,57l0 300c0,28 22,50 49,50 27,0 49,-22 49,-50l0 -300c0,-87 -70,-158 -157,-158l-15 0 -284 0c-27,0 -50,22 -50,50l0 408c0,28 23,50 50,50 27,0 49,-22 49,-50l0 -359 105 0 0 359c0,28 22,50 49,50 28,0 50,-22 50,-50l0 -358 0 0 46 1zm-500 -2c27,0 49,-22 49,-49 0,-28 -22,-50 -49,-50l-94 0 1 -57c0,-32 26,-59 58,-59l31 -1c28,0 50,-21 50,-49 0,-27 -22,-49 -50,-49l-31 0c-87,0 -157,71 -157,158l-1 57 -25 0c-28,0 -50,22 -50,50 0,27 22,49 50,49l26 0 0 359c0,28 22,50 49,50 27,0 49,-22 49,-50l0 -359 94 0zm-1297 357c-10,32 -44,52 -77,43 -33,-10 -52,-44 -43,-77l194 -691c-67,0 -134,0 -200,0l0 26c0,34 -28,62 -62,62 -35,0 -62,-28 -62,-62l0 -88c0,-35 27,-62 62,-62l343 0c34,0 62,27 62,62 0,11 -5,27 -8,38l-209 749zm311 -79c34,0 62,28 62,62 0,34 -28,62 -62,62 -34,0 -62,-28 -62,-62 0,-34 28,-62 62,-62zm-921 -770l58 0c112,0 204,92 204,205l0 490c0,112 -92,204 -204,204l-58 0c-112,0 -204,-92 -204,-204l0 -490c0,-113 92,-205 204,-205zm0 124l58 0c44,0 80,36 80,81l0 490c0,44 -36,80 -80,80l-58 0c-44,0 -80,-36 -80,-80l0 -490c0,-45 36,-81 80,-81z"/>
   </g>
</svg>
