<svg xmlns="http://www.w3.org/2000/svg" xmlns:xlink="http://www.w3.org/1999/xlink" viewBox="0 0 295.272 295.271">
<path fill="#ee3737" d="M18.676,0h258.261c10.051,0,18.273,8.22,18.273,18.271v258.262
	c0,10.05-8.223,18.27-18.273,18.27H18.676c-10.048,0-18.271-8.22-18.271-18.27V18.271C0.404,8.22,8.627,0,18.676,0z"/>
<g fill="#FFFFFF">
	<path  d="M195.36,75.241c13.322,13.316,13.322,34.91,0,48.232
		l-40.194,40.195c-4.424,4.425-11.655,4.425-16.078,0c-13.398-13.396-26.795-26.796-40.196-40.195
		c-13.319-13.322-13.319-34.916,0-48.232c13.32-13.325,34.914-13.325,48.233,0C160.446,61.917,182.041,61.917,195.36,75.241
		L195.36,75.241z M143.041,137.325c2.756,2.527,5.259,2.591,8.016,0.183l24.957-24.445c13.049-14.857-3.032-33.978-19.759-22.074
		c-3.04,2.045-5.965,4.327-9.114,4.327c-3.153,0-6.078-2.282-9.115-4.327c-16.726-11.903-32.925,8.299-19.758,22.074
		L143.041,137.325z"/>
	<path  d="M214.833,140.997h10.205c4.888,0,6.917-1.358,8.559-5.776
		c3.745-10.072,5.797-20.967,5.797-32.345c0-10.969-1.913-21.497-5.409-31.262c-1.898-5.316-4.956-6.442-10.497-6.442h-7.154
		c-13.372-24.491-39.356-41.109-69.227-41.109c-29.867,0-55.854,16.618-69.221,41.109h-7.161c-5.54,0-8.597,1.125-10.496,6.442
		c-3.498,9.765-5.409,20.293-5.409,31.262c0,11.378,2.054,22.273,5.796,32.345c1.643,4.417,3.672,5.776,8.562,5.776h10.202
		c4.386,0,5.275-2.115,3.691-5.188c-11.496-22.315-10.497-49.226,2.694-70.637c12.674-20.571,35.404-34.29,61.342-34.29
		c25.941,0,48.668,13.718,61.342,34.29l0,0c13.157,21.342,14.234,48.244,2.696,70.637
		C209.559,138.882,210.447,140.997,214.833,140.997z"/>

	<path  d="M122.663,190.444c11.376,0,20.601,9.222,20.601,20.6
		s-9.225,20.601-20.601,20.601c-11.377,0-20.603-9.223-20.603-20.601S111.286,190.444,122.663,190.444L122.663,190.444z
		 M122.663,199.833c-6.193,0-11.21,5.021-11.21,11.211c0,6.19,5.018,11.205,11.21,11.205c6.188,0,11.206-5.015,11.206-11.205
		C133.869,204.854,128.851,199.833,122.663,199.833z"/>
	<path  d="M165.673,231.667h0.006c1.636-0.022,3.058-0.894,3.842-2.331
		l17.818-35.1c1.348-2.361,0.587-3.41-2.245-3.41h-3.913c-2.211-0.021-2.981,1.149-4.009,2.922l-11.362,22.684l-11.289-22.684
		c-1.028-1.772-1.794-2.942-4.007-2.922h-4.15c-2.836,0-3.594,1.049-2.247,3.41l17.711,35.1
		C162.613,230.773,164.035,231.645,165.673,231.667z"/>
	<path  d="M97.557,222.089H78.499v-28.295c0-1.629-1.332-2.968-2.961-2.968
		h-3.396c-1.631,0-2.964,1.339-2.964,2.968c0,11.554,0,23.104,0,34.657c0,1.635,1.333,2.963,2.964,2.963c8.472,0,16.944,0,25.416,0
		c1.527,0,2.775-1.25,2.775-2.775v-3.776C100.332,223.341,99.083,222.089,97.557,222.089z"/>
	<path  d="M222.265,222.089h-19.061v-6.303h14.938
		c1.525,0,2.775-1.249,2.775-2.774v-3.777c0-1.526-1.25-2.775-2.775-2.775h-14.938v-6.306h19.061c1.521,0,2.772-1.247,2.772-2.775
		v-3.771c0-1.528-1.252-2.78-2.772-2.78c-8.474,0-16.949,0-25.422,0c-1.63,0-2.963,1.339-2.963,2.968c0,11.554,0,23.104,0,34.657
		c0,1.635,1.333,2.963,2.963,2.963c8.473,0,16.948,0,25.422,0c1.521,0,2.772-1.25,2.772-2.775v-3.776
		C225.038,223.341,223.786,222.089,222.265,222.089z"/>

	<path  d="M178.428,260.669h-8.555v7.26c0,0.935-0.766,1.698-1.701,1.698
		h-1.946c-0.934,0-1.694-0.764-1.694-1.698c0-6.619,0-13.24,0-19.854c0-0.935,0.761-1.7,1.694-1.7c4.854,0,9.71,0,14.563,0
		c0.877,0,1.589,0.716,1.589,1.589v2.167c0,0.87-0.712,1.59-1.589,1.59h-10.915v3.608h8.555c0.875,0,1.592,0.72,1.592,1.589v2.162
		C180.02,259.955,179.303,260.669,178.428,260.669z"/>
	<path  d="M123.121,269.76c1.476,0,2.683-1.206,2.683-2.687
		c0-1.478-1.207-2.683-2.683-2.683c-1.479,0-2.686,1.205-2.686,2.683C120.435,268.554,121.642,269.76,123.121,269.76z"/>
	<path  d="M210.695,256.121v11.808c0,0.935,0.762,1.698,1.701,1.698h1.944
		c0.934,0,1.697-0.764,1.697-1.698v-19.854c0-0.935-0.764-1.7-1.697-1.7c-1.075,0-2.146,0-3.215,0
		c-1.27-0.011-1.712,0.655-2.296,1.673l-6.514,12.994l-6.466-12.994c-0.587-1.018-1.026-1.684-2.293-1.673c-1.118,0-2.235,0-3.35,0
		c-0.938,0-1.698,0.766-1.698,1.7v19.854c0,0.935,0.761,1.698,1.698,1.698h1.945c0.938,0,1.7-0.764,1.7-1.698v-11.758l6.185,12.262
		c0.426,0.781,1.169,1.243,1.959,1.327l0,0l0.059,0.003h0.005l0.058,0.003h0.003l0.061,0.005l0,0h0.061h0.002h0.057h0.006
		l0.059-0.005h0.003l0.06-0.003l0,0l0.061-0.003l0,0c0.79-0.084,1.534-0.551,1.959-1.327L210.695,256.121z"/>

	<path  d="M86.026,263.047l-2.37,4.639c-0.773,1.353-0.339,1.953,1.287,1.953h2.243
		c1.267,0.013,1.708-0.657,2.296-1.675l4.801-9.534c0.01-0.02,0.02-0.038,0.028-0.059c0.551-1.12,0.86-2.379,0.86-3.711
		c0-4.65-3.77-8.419-8.419-8.419s-8.419,3.769-8.419,8.419C78.334,259.065,81.717,262.679,86.026,263.047L86.026,263.047z
		 M86.753,257.825c-1.747,0-3.165-1.417-3.165-3.165s1.418-3.165,3.165-3.165c1.749,0,3.166,1.417,3.166,3.165
		S88.502,257.825,86.753,257.825z"/>

	<path  d="M141.851,251.74l-7.844,15.908c-0.773,1.349-0.34,1.947,1.281,1.947h2.234
		c1.262,0.012,1.701-0.655,2.285-1.669l8.346-17.159c0.119-0.242,0.176-0.605,0.176-0.758v-1.864c0-0.952-0.777-1.73-1.73-1.73
		h-14.38c-0.995,0-1.81,0.813-1.81,1.81v1.81c0,0.938,0.768,1.706,1.706,1.706H141.851z"/>

	<path  d="M109.768,264.27h-2.691c-0.536,0-1.019-0.236-1.347-0.604c-0.52-0.586-0.515-1.197-1.444-1.221h-2.85
		c-0.949,0-1.531,0.603-1.317,1.574c0.706,3.19,3.555,5.576,6.958,5.576h2.691c4.236,0,7.67-3.435,7.67-7.67
		c0-4.236-3.434-7.671-7.67-7.671h-4.153v-2.512h9.438c0.995,0,1.81-0.814,1.81-1.81v-1.811c0-0.938-0.768-1.706-1.706-1.706
		c-4.387,0-8.774,0-13.161,0c-0.938,0-1.706,0.768-1.706,1.706v9.728l0,0c0.011,0.966,0.765,1.719,1.73,1.73h1.863h5.885
		c1.296,0,2.345,1.05,2.345,2.345S111.063,264.27,109.768,264.27z"/>
</g>
</svg>
