<svg xmlns="http://www.w3.org/2000/svg" viewBox="0 0 6341 8194" xmlns:xlink="http://www.w3.org/1999/xlink">
   <polygon fill="#2B2A29" points="6340,7095 0,7095 0,8194 6340,8194 "/>
   <path fill="#FEFEFE" d="M706 7428l-242 0 -28 133 226 0 -31 146 -226 0 -33 153 253 0 -32 150 -443 0 155 -732 433 0 -32 150zm472 582l-203 0 -30 -267c-4,-38 -7,-74 -9,-112 -2,-37 -5,-74 -9,-110 -3,43 -8,86 -15,128 -7,43 -15,86 -24,129l-46 232 -178 0 157 -732 207 0 29 278c3,37 6,73 9,109 3,37 4,73 4,109 6,-55 12,-101 18,-137 5,-37 10,-64 13,-83l54 -276 179 0 -156 732zm651 -582l-243 0 -28 133 227 0 -31 146 -226 0 -33 153 253 0 -32 150 -443 0 155 -732 433 0 -32 150zm574 9c0,63 -16,113 -47,150 -32,37 -77,57 -136,60 17,3 32,8 45,14 13,6 24,13 33,22 9,9 16,20 21,32 5,13 7,29 7,47 0,22 -2,44 -5,65 -4,21 -8,42 -11,63 -4,22 -6,39 -7,52 -2,12 -2,22 -2,30 0,18 5,28 16,31l0 7 -201 0c-3,-9 -5,-16 -6,-21 0,-5 -1,-12 -1,-19 0,-9 1,-19 3,-30 2,-12 4,-27 8,-45 4,-26 8,-50 11,-70 4,-20 5,-36 5,-48 0,-24 -5,-41 -16,-51 -10,-10 -28,-14 -52,-14l-24 0 -64 298 -191 0 157 -732 219 0c30,0 59,1 88,3 28,3 54,9 76,20 22,11 40,27 54,48 14,21 20,51 20,88zm-195 39c0,-22 -6,-39 -18,-49 -13,-10 -34,-16 -63,-16l-20 0 -37 177 22 0c17,0 31,-1 41,-2 10,-2 20,-6 29,-11 14,-8 25,-21 33,-39 9,-19 13,-38 13,-60zm770 -39c0,7 0,13 -1,18 0,4 0,9 -1,14 0,5 -1,10 -2,15 -1,6 -2,13 -3,21l-184 0c3,-16 5,-28 6,-38 1,-10 2,-18 2,-26 0,-33 -15,-50 -45,-50 -13,0 -23,3 -32,10 -8,6 -16,16 -22,30 -7,14 -13,31 -19,53 -6,22 -12,47 -19,78 -3,13 -6,25 -8,35 -3,11 -5,21 -8,32 -2,11 -5,24 -7,37 -3,14 -7,31 -11,50 -7,38 -12,67 -16,86 -3,19 -4,34 -4,45 0,37 16,56 48,56 15,0 28,-4 37,-12 10,-8 17,-18 23,-30 6,-12 11,-25 14,-38 4,-13 7,-26 9,-37 2,-10 4,-18 6,-23 1,-6 3,-14 5,-24l-67 0 27 -123 247 0 -84 394 -130 0 0 -27c1,-6 2,-10 2,-14 0,-4 0,-10 1,-18 -18,28 -40,47 -66,58 -26,11 -55,17 -87,17 -118,0 -177,-57 -177,-173 0,-27 2,-54 6,-81 5,-27 10,-54 15,-81 8,-39 16,-74 23,-105 7,-31 15,-61 23,-89 11,-38 24,-71 38,-100 14,-30 31,-54 52,-74 20,-20 46,-35 75,-45 30,-10 67,-16 110,-16 29,0 57,3 84,9 27,5 51,15 71,28 21,13 37,31 50,53 13,23 19,51 19,85zm356 288l-61 285 -190 0 60 -285 -97 -447 210 0 14 140c2,23 3,46 4,70 1,23 0,46 -2,69 9,-23 18,-48 27,-72 9,-23 20,-47 32,-69l67 -138 210 0 -274 447zm762 283l-191 0 105 -497 -135 0 28 -121 47 0c18,0 36,-3 53,-8 18,-5 34,-12 49,-22 14,-9 27,-21 38,-35 11,-14 19,-30 24,-48l136 0 -154 731zm575 -571c0,-14 -4,-24 -11,-32 -7,-7 -18,-11 -31,-11 -12,0 -22,3 -30,10 -8,7 -14,17 -20,29 -5,13 -10,28 -15,46 -4,17 -9,36 -14,58 -2,9 -4,21 -7,35 -4,14 -7,29 -10,44 -4,15 -7,30 -10,44 -3,15 -6,28 -8,39 -3,11 -5,25 -8,39 -3,15 -5,30 -8,44 -2,14 -4,28 -6,41 -2,13 -3,24 -3,33 0,34 14,51 41,51 13,0 23,-4 32,-14 8,-9 15,-21 21,-35 6,-14 10,-31 14,-48 3,-18 7,-36 11,-53 6,-24 10,-44 14,-62 4,-17 7,-33 11,-49 3,-15 7,-29 10,-44 3,-14 6,-30 9,-49 6,-29 10,-53 13,-72 4,-20 5,-34 5,-44zm182 24c0,20 -2,46 -6,76 -5,30 -10,61 -16,94 -7,32 -14,64 -22,96 -9,32 -17,60 -24,85 -11,35 -24,66 -38,93 -14,26 -31,48 -51,65 -20,18 -44,31 -72,39 -27,9 -60,13 -97,13 -35,0 -65,-3 -92,-8 -27,-6 -50,-15 -69,-30 -18,-14 -32,-33 -42,-57 -10,-24 -15,-55 -15,-92 0,-22 2,-49 6,-81 5,-32 10,-65 17,-98 6,-34 14,-67 22,-99 9,-33 17,-61 26,-85 11,-33 23,-61 38,-86 14,-24 31,-44 51,-61 20,-16 44,-28 71,-36 27,-8 59,-12 96,-12 31,0 60,3 87,9 27,5 50,16 69,30 19,14 34,33 45,57 10,24 16,53 16,88zm297 247c0,-14 -3,-25 -11,-34 -7,-9 -18,-13 -32,-13 -12,0 -22,3 -31,10 -8,7 -14,16 -19,27 -6,11 -10,23 -13,37 -4,14 -7,28 -10,43 -4,22 -7,38 -9,50 -1,11 -2,20 -2,28 0,31 14,47 42,47 12,0 22,-3 30,-10 8,-7 15,-16 20,-26 5,-10 9,-22 13,-35 3,-13 6,-25 9,-38 5,-22 8,-39 10,-52 2,-12 3,-24 3,-34zm235 -271l0 11c0,4 0,9 -1,16l-179 0c1,-9 2,-15 2,-18l0 -10c0,-27 -14,-41 -42,-41 -12,0 -22,3 -30,9 -8,6 -15,15 -21,27 -6,12 -11,26 -16,44 -6,17 -11,37 -16,60l-15 57c16,-23 34,-39 55,-49 21,-10 46,-16 76,-16 48,0 85,13 110,38 26,26 38,63 38,112 0,14 -1,30 -3,47 -2,17 -5,35 -9,52 -4,18 -9,36 -14,53 -5,17 -11,33 -17,48 -22,52 -51,90 -88,112 -37,23 -87,34 -149,34 -150,0 -225,-63 -225,-189 0,-15 2,-33 4,-54 2,-21 6,-44 10,-69 4,-25 9,-52 15,-79 6,-28 13,-56 21,-85 11,-42 22,-79 35,-113 13,-34 29,-62 50,-85 20,-23 47,-41 78,-54 32,-13 72,-19 121,-19 72,0 125,13 159,39 34,27 51,67 51,122zm136 571l-169 0 43 -200 169 0 -43 200zm443 0l-191 0 105 -497 -135 0 28 -121 48 0c17,0 35,-3 52,-8 18,-5 34,-12 49,-22 14,-9 27,-21 38,-35 11,-14 19,-30 24,-48l136 0 -154 731z"/>
   <path fill="#2b2a29" d="M4408 1291c0,-79 33,-168 122,-198 88,-31 122,35 122,114 0,79 -34,168 -122,198 -89,31 -122,-35 -122,-114zm-137 48c0,152 94,241 259,184 165,-57 259,-211 259,-363 0,-153 -94,-242 -259,-185 -165,57 -259,211 -259,364zm-565 -59l-150 52 -172 404 0 -344 -133 45 0 526 154 -53 168 -394 0 336 133 -46 0 -526zm-1017 1002l0 -247 -61 21 0 -408 -380 131 0 95c0,115 -18,223 -70,338l-53 18 0 246 131 -45 0 -128 302 -105 0 129 131 -45zm-198 -178l-168 58c47,-111 56,-200 56,-292l0 -18 112 -39 0 291zm-1457 621l141 -49 33 -105 184 -64 32 83 143 -49 -197 -458 -139 48 -197 594zm266 -472l1 0 58 164 -119 41 60 -205zm-1142 347l92 -32c42,-15 74,-7 74,44 0,47 -31,76 -74,91l-92 31 0 -134zm-137 463l137 -47 0 -175 113 -39c115,-40 190,-117 190,-247 0,-125 -92,-138 -190,-104l-250 86 0 526z"/>
   <path fill="#e31e24" d="M5704 1267c350,0 634,-283 634,-633 0,-350 -284,-634 -634,-634 -350,0 -633,284 -633,634 0,350 283,633 633,633zm-1978 2106c-124,42 -490,179 -490,179l0 -581c0,0 253,-91 379,-133 123,-42 231,80 238,200 6,107 26,263 -127,335zm1130 -1578l0 614 417 -148c0,0 2,1614 0,1698 -46,492 -559,335 -726,210 -52,-39 -437,-307 -437,-307 374,-132 958,-610 669,-1261 -361,-662 -999,-445 -999,-445l-1748 611 0 602 253 -89 0 840 -1126 -1058 -1159 405 0 603 350 -128 0 1718 -345 123 0 632 1319 -460 0 -427c-146,8 -314,20 -367,40 -104,34 -172,163 -185,225 -30,-37 -87,-113 -87,-113l-40 75 -65 -117 -42 36 -7 -151c0,0 183,-159 194,-165 12,-5 410,-43 491,-66 38,-9 74,-22 108,-35l0 -722 319 291c15,-54 73,-137 84,-140 7,3 31,45 48,67 18,21 54,62 63,60 10,-1 138,-149 182,-197 44,-48 229,-227 345,-316 117,-88 274,-191 560,-256 286,-65 567,-32 773,52 289,111 742,521 1021,659 150,83 331,193 633,167 646,-39 954,-437 986,-922 0,1 0,1 0,2 1,-403 3,-2722 3,-2722l-1485 515z"/>
   <path fill="#B0292B" d="M949 6086l-411 -412 0 0 0 0 42 -36 65 117 40 -75c0,0 57,76 87,113 13,-62 81,-191 185,-225 53,-20 221,-32 367,-40l0 427 -375 131z"/>
   <path fill="#2B2A29" d="M6338 4000c-32,485 -340,883 -986,922 -302,26 -483,-84 -633,-167 -279,-138 -732,-548 -1021,-659 -206,-84 -487,-117 -773,-52 -286,65 -443,168 -560,256 -116,89 -301,268 -345,316 -44,48 -172,196 -182,197 -9,2 -45,-39 -63,-60 -17,-22 -41,-64 -48,-67 -12,3 -81,103 -87,156 -6,53 24,131 24,149 1,18 -21,34 -29,35 -8,1 -61,-68 -69,-67 -7,2 -32,45 -40,74 -7,30 5,105 5,105 -68,57 -184,120 -315,154 -81,23 -479,61 -491,66 -11,6 -194,165 -194,165l7 151 42 -36 65 117 40 -75c0,0 57,76 87,113 13,-62 81,-191 185,-225 99,-37 598,-49 614,-51 -2,14 -27,89 -27,93 0,4 109,119 116,122 6,3 60,-15 65,-19 4,-4 10,-14 12,-26 3,0 41,2 60,-10 -51,-16 -52,-46 -39,-74 13,-27 94,-38 136,-11 42,27 66,74 45,125 -18,44 -74,23 -87,21 4,9 45,34 46,38 2,3 1,14 1,14 0,0 12,17 20,16 8,-1 175,-91 187,-99 12,-9 46,-43 68,-84 0,0 -57,-38 -54,-104 4,-67 63,-106 130,-97 66,8 101,66 82,141 -15,61 -321,416 -594,553 -181,105 -347,92 -357,94 -11,2 -174,142 -174,142l-7 128 30 -15 48 133 34 -52 101 107 21 -90 125 95c0,0 6,-48 10,-88 17,-15 204,-183 223,-200 20,-17 294,-156 535,-317 275,-185 543,-380 547,-427 -34,-28 -167,-153 -163,-290 4,-137 161,-268 345,-350 185,-81 423,-53 584,67 109,77 579,401 1208,367 661,-36 1049,-251 1281,-650 232,-400 214,-695 209,-770zm-4669 1381l44 -194 63 23 -80 160 -27 11z"/>
</svg>
