<svg xmlns="http://www.w3.org/2000/svg" viewBox="0 0 8951 5155" xmlns:xlink="http://www.w3.org/1999/xlink">
	<path fill="#FEFEFE" d="M8864 3821c0,306 -247,554 -553,554l-993 0 -474 678 -1342 -678 -4267 0c-306,0 -489,-255 -554,-554 -170,-781 -483,-2310 -602,-3122 -45,-302 185,-619 491,-619l7741 398c306,0 553,248 553,554l0 2789z"/>
	<path fill="#E41B41" d="M6877 5155l-1388 -700 -4248 0c-311,0 -547,-231 -631,-617 -170,-777 -484,-2314 -604,-3127 -26,-179 31,-370 153,-511 111,-129 259,-200 418,-200l4 0 7739 398c348,1 631,285 631,634l0 2789c0,350 -284,634 -634,634l-951 0 -489 700zm-6302 -4995l0 0c-111,0 -215,51 -295,144 -92,107 -136,250 -116,384 120,809 432,2341 602,3116 25,115 133,491 475,491l4286 0 1298 656 458 -656 1034 0c262,0 474,-212 474,-474l0 -2789c0,-262 -212,-474 -474,-474l-4 0 -7738 -398z"/>

	<path fill="#2B2A29" d="M6951 2255l79 -67c-3,20 -55,395 -70,564l-78 67c14,-169 66,-545 69,-564zm147 -444l0 0c2,-8 3,-16 5,-24 5,-27 10,-55 16,-83l-79 67c-6,28 -11,55 -16,82 0,3 -1,6 -2,8 -1,6 -1,11 -2,16l-21 105 341 -9 -35 230 78 -66 36 -230 -341 8 20 -104zm-263 -408l0 0 -79 66 680 -110 -57 365 79 -67 56 -364 -679 110zm777 811l0 0 78 -66 -170 594 -78 67 170 -595zm216 362l0 0 79 -66 173 -372 -79 66 -173 372zm-37 -825l0 0 79 -66 -306 49 -79 67 306 -50zm19 442l0 0 79 -67 -19 -441 -79 66 19 442zm510 -483l0 0 79 -66 -281 39 -78 66 280 -39zm-55 731l0 0c3,-17 7,-33 10,-50 6,-32 12,-64 18,-96 4,-19 7,-38 11,-56 5,-30 11,-61 16,-91 2,-9 3,-19 5,-28 2,-13 5,-27 7,-40 3,-18 6,-37 9,-55 4,-25 8,-50 12,-75 3,-18 6,-37 9,-55 4,-26 8,-52 12,-78 3,-17 5,-33 8,-49 6,-42 12,-84 17,-124l-79 66c-5,42 -11,84 -17,126 -2,13 -4,26 -6,38 -5,30 -9,59 -14,89 -2,17 -5,34 -8,52 -4,25 -8,50 -12,75 -4,20 -7,41 -11,61 -3,20 -7,40 -10,60 -6,32 -11,64 -17,96 -4,18 -7,36 -10,54 -6,32 -12,63 -19,95 -3,17 -6,35 -10,52 -7,35 -14,69 -21,102 -3,15 -6,29 -9,43 -10,48 -20,96 -30,143l78 -66c11,-47 21,-95 31,-143 3,-14 6,-27 9,-41 7,-35 14,-70 21,-105zm-2547 -151l0 0c0,0 0,0 0,-1 3,-15 6,-29 9,-44 1,-4 1,-8 2,-11 3,-15 6,-30 10,-44l-66 55c-3,14 -6,29 -9,43 -1,5 -2,9 -3,13 -2,12 -4,24 -7,37 -1,3 -1,6 -2,9 -2,14 -5,28 -8,42 -1,9 -3,18 -5,28 0,2 -1,4 -1,7 -2,9 -3,18 -5,27 -15,86 -28,173 -38,250 -1,2 -1,5 -1,8 -1,7 -2,15 -3,22 -1,6 -2,12 -2,17 -1,6 -2,11 -2,17 -2,11 -3,22 -4,32l65 -55c2,-11 3,-22 4,-33 1,-4 1,-8 2,-12 1,-8 2,-16 3,-25 0,-4 1,-8 1,-13 1,-9 3,-18 4,-27 0,-4 1,-7 1,-11 2,-13 4,-26 6,-40 0,-2 0,-3 1,-5 2,-12 3,-25 5,-38 1,-2 1,-5 2,-8 1,-12 3,-25 5,-37 1,-2 1,-4 1,-6 5,-31 10,-61 16,-91 3,-18 6,-35 9,-52 0,-1 0,-2 0,-3 3,-17 7,-34 10,-51zm137 -577l0 0c8,-32 18,-64 28,-96 2,-8 4,-16 7,-24l-66 55c-1,5 -3,10 -4,15 -1,3 -2,6 -3,9 -9,32 -19,64 -27,96l-29 118c126,-49 221,-100 282,-152 22,-18 44,-36 65,-55 -61,52 -155,103 -282,152l29 -118zm778 -393l0 0c0,-1 -1,-2 -1,-3 0,-5 -1,-10 -2,-16 -1,-2 -1,-4 -1,-7 0,0 -1,-1 -1,-2 0,-2 -1,-4 -2,-6 -1,-5 -3,-9 -4,-13 -1,-3 -2,-5 -3,-7 -1,-2 -2,-4 -3,-5 -1,-2 -2,-4 -3,-6 -2,-3 -4,-6 -5,-8 -3,-4 -5,-7 -8,-10 -2,-2 -4,-5 -6,-7 -1,-1 -2,-2 -2,-3 -2,-2 -5,-4 -7,-6 -2,-2 -5,-5 -7,-7 -4,-3 -8,-5 -11,-8 -3,-2 -6,-4 -9,-6 0,0 -1,-1 -1,-1 -6,-4 -12,-7 -18,-10 -2,-1 -3,-1 -4,-2 -4,-2 -8,-4 -13,-6 -2,-1 -4,-1 -6,-2 -3,-1 -5,-2 -8,-3 -6,-3 -13,-5 -19,-7 -3,-1 -5,-1 -8,-2 -1,0 -1,-1 -2,-1 -6,-2 -11,-3 -17,-4 -4,-1 -8,-2 -12,-3 -7,-2 -15,-3 -23,-4 -4,-1 -7,-2 -11,-2 0,0 0,0 -1,0 -1,-1 -2,-1 -4,-1 -13,-2 -27,-3 -41,-5 -5,0 -10,-1 -15,-1 -12,-1 -25,-1 -37,-2 -4,0 -7,0 -10,-1 -2,0 -4,0 -6,0 -17,0 -35,0 -54,0 -22,1 -44,2 -67,3 -4,0 -7,0 -10,0 -22,2 -45,4 -69,6 -4,0 -9,1 -13,1 -6,1 -11,1 -17,2 -19,2 -38,4 -57,6 -1,1 -2,1 -3,1 -25,3 -51,7 -78,11 -8,1 -16,2 -23,4 -22,3 -44,7 -66,11 -6,1 -13,2 -20,3 -28,5 -57,11 -86,17 -7,2 -14,3 -21,5 -24,4 -48,10 -73,15 -9,2 -18,4 -27,6 -31,8 -63,15 -96,23l-66 55c33,-8 65,-15 97,-23 9,-2 18,-4 26,-6 25,-5 49,-10 73,-15 7,-2 15,-3 21,-5 30,-6 59,-11 87,-17 7,-1 13,-2 20,-3 22,-4 44,-8 65,-11 8,-1 16,-3 23,-4 27,-4 53,-8 79,-11 1,0 2,0 3,0 25,-4 50,-6 74,-9 4,0 9,-1 13,-1 23,-2 46,-4 68,-5 4,-1 7,-1 11,-1 23,-1 45,-2 67,-3 18,0 36,0 54,1 5,0 10,0 15,0 13,1 26,1 38,2 5,1 10,1 15,1 14,2 28,3 41,5 2,0 3,1 5,1 4,0 7,1 11,2 7,1 15,2 23,4 4,1 8,2 12,3 7,2 13,3 19,5 3,1 5,1 8,2 6,2 13,4 19,7 2,1 5,2 8,3 6,2 12,5 18,8 2,1 3,1 4,2 7,4 14,7 20,11 3,2 6,4 9,6 3,3 7,6 10,8 3,2 5,5 8,7 3,3 6,6 9,9 2,2 4,5 6,7 3,4 5,7 7,10 2,3 4,6 5,8 3,4 4,7 6,11 1,2 2,5 3,7 2,4 3,9 5,13 0,2 1,4 2,6 1,3 1,6 1,9 2,6 2,11 3,16 1,7 1,13 1,20 0,9 0,17 -1,25 0,3 0,6 -1,9 0,6 -1,12 -2,18 0,3 -1,6 -1,9 -1,7 -2,13 -4,19 0,3 -1,6 -2,9 -2,9 -4,17 -7,26 -2,8 -5,15 -7,22 -1,3 -2,5 -3,8 -3,7 -6,14 -9,21 -1,3 -2,6 -4,9 -5,12 -12,25 -19,37 -2,3 -4,7 -6,10 -6,11 -12,21 -19,32 -2,2 -3,5 -5,7 -3,4 -6,8 -8,12 -4,6 -8,11 -12,17 -3,4 -7,8 -10,12 -4,5 -8,11 -13,16 -3,4 -7,9 -10,13 -5,5 -10,11 -14,16 -4,4 -8,8 -12,12 -5,6 -10,11 -15,17 -4,4 -8,8 -12,12 -6,6 -11,12 -17,17 -4,4 -8,8 -12,12 -7,6 -13,12 -20,18 -4,4 -8,8 -12,11 -9,8 -19,17 -29,25 -1,1 -2,2 -4,4 0,0 0,0 0,0 22,-18 44,-37 65,-55 12,-10 23,-20 34,-29 3,-3 7,-7 10,-10 7,-6 14,-13 21,-19 4,-4 8,-8 12,-11 6,-6 12,-12 18,-18 3,-4 7,-8 11,-12 5,-5 11,-11 16,-17 4,-4 7,-8 11,-12 5,-5 10,-11 15,-17 3,-4 6,-8 9,-11 5,-6 10,-12 14,-18 3,-4 6,-7 9,-11 4,-6 9,-13 13,-19 3,-3 5,-6 7,-9 0,-1 1,-2 2,-3 1,-2 2,-4 4,-6 6,-10 13,-21 18,-31 2,-3 5,-7 7,-10 6,-13 13,-25 19,-37 0,0 0,-1 0,-1 2,-4 4,-9 6,-14 2,-5 4,-10 6,-15 2,-4 3,-9 5,-13 2,-5 4,-11 5,-17 0,0 1,0 1,0 2,-9 5,-18 7,-27 0,-2 1,-5 1,-7 1,-5 3,-11 4,-16 0,-1 0,-3 0,-4 1,-3 1,-6 1,-9 1,-6 2,-12 3,-18 0,-3 0,-6 0,-9 1,-3 1,-5 1,-7 0,-6 0,-12 0,-18 0,-5 0,-11 0,-17zm-355 547l0 0c0,0 0,0 0,0 0,0 0,0 1,0l-1 0z"/>
	<path fill="#E41B41" d="M6568 1392c0,270 -298,554 -894,853 -39,175 -75,403 -91,552l-441 14c5,-31 22,-106 59,-267l116 -509c103,-468 150,-709 140,-723 295,-72 537,-110 726,-114 258,-4 387,60 385,194zm-467 281l0 0c7,-12 11,-21 11,-28 -1,-25 -25,-36 -73,-36 -46,1 -117,14 -214,39 -13,40 -24,80 -35,120l-29 118c176,-69 290,-140 340,-213zm1241 299l0 0 -36 231c-132,22 -343,49 -354,51 -3,20 -54,395 -69,564l-321 6 196 -1356 679 -110 -56 365c-129,14 -229,28 -339,47 -8,36 -15,71 -21,106l-21 105 342 -9zm470 220l0 0 -20 -441 -306 49 -288 1012 245 -4 170 -595 -18 365 234 -3 174 -372 -137 597 261 -5c78,-353 148,-736 195,-1086l-281 39 -229 444z"/>
	<path fill="#FFED00" d="M5714 2238c-39,-3 -68,33 -90,9 -28,-30 -48,-53 -19,-88 12,-14 31,-39 40,-55 34,-62 14,-65 -7,-99 -34,-56 -76,-36 -89,-26 -15,12 31,126 14,159 -25,48 -94,78 -97,90 -22,38 -38,88 -35,133 0,4 1,9 1,13 -21,17 -44,34 -55,38 -25,8 -51,15 -77,21 -19,71 -53,137 -98,194 21,1 40,1 59,0 70,-6 121,-33 177,-63 22,15 60,15 101,30 32,11 50,28 97,12 29,-10 54,-37 70,-53 23,-23 38,-53 44,-64 15,-28 23,-46 36,-101 1,-4 6,-29 6,-33 0,-56 -49,-115 -78,-117z"/>
	<path fill="#2B2A29" d="M5750 2237c-9,-9 -19,-15 -32,-16 -6,-1 -12,-1 -18,0 -13,2 -24,6 -33,10 -9,4 -17,7 -22,7 -3,1 -5,0 -6,0 -1,0 -3,-1 -5,-3 -17,-18 -29,-33 -30,-44 -1,-7 1,-15 11,-28 13,-16 33,-41 43,-59 8,-16 14,-28 17,-39 4,-11 5,-21 3,-30 -1,-11 -6,-19 -11,-27 -5,-7 -11,-14 -16,-23 -12,-19 -26,-32 -40,-39 -14,-7 -28,-8 -40,-6 -16,2 -28,9 -35,15 -4,3 -5,7 -6,10 -2,4 -2,7 -2,10 0,6 0,12 1,20 4,25 14,60 18,89 4,20 3,37 0,41 -14,28 -49,52 -73,68 -8,6 -15,10 -20,15 -3,3 -6,5 -8,10 -24,42 -41,95 -38,146 0,4 1,7 3,13 -16,17 -32,34 -49,37 -19,4 -37,7 -55,10 -2,9 -5,18 -7,27 26,-6 53,-13 80,-22 5,-1 33,-23 55,-41 -1,-5 -2,-9 -2,-14 0,0 0,0 0,0 -1,-5 -1,-9 -1,-13 -3,-45 13,-95 35,-133 3,-12 72,-42 97,-90 17,-33 -29,-147 -14,-159 12,-10 55,-30 89,26 21,34 41,37 7,99 -9,16 -28,41 -40,55 -29,35 -9,58 18,88 23,24 52,-12 91,-9 29,2 78,61 78,117 0,4 -5,29 -6,33 -13,55 -22,73 -36,101 -7,11 -21,41 -44,64 -16,16 -41,43 -70,53 -47,16 -65,-1 -97,-12 -32,-12 -48,-12 -77,-19 -11,-2 -22,-17 -28,-25 -63,32 -129,64 -200,70 -6,1 -13,1 -20,1 -5,7 -11,14 -16,21 11,-1 22,-1 32,-2 69,-6 135,-29 196,-55 23,10 62,22 105,22 20,7 45,23 76,19 0,0 0,0 1,0 29,-2 69,-27 100,-57 8,-9 30,-37 48,-66 7,-12 33,-71 42,-104 1,-4 6,-39 6,-46 -1,-52 -28,-90 -55,-116z"/>
	<path fill="#2B2A29" d="M5521 2401c9,-50 20,-38 27,-60 1,-3 -6,-22 -5,-36 2,-47 49,-46 63,-42 3,-2 62,13 69,14 9,2 34,-1 42,-2 5,0 17,6 19,22 2,25 -22,17 -41,8 -17,-8 -96,-40 -124,-24 -17,10 -17,31 -15,47 4,40 119,51 117,55 -6,15 -43,-4 -81,-14 -17,-4 -33,-9 -41,-3 -20,14 -16,60 -11,71 8,20 98,31 70,47 -3,1 -67,-49 -85,5 -12,33 -5,43 5,53 13,13 51,41 59,39 15,-6 16,7 14,8 -5,5 -10,8 -28,-1 -9,-5 -22,-13 -39,-26 -15,-12 -28,-19 -30,-37 -2,-13 2,-29 10,-47 4,-10 10,-16 11,-23 2,-19 -12,-18 -6,-54z"/>

	<path fill="#2B2A29" d="M5227 2653c3,-4 5,-8 8,-12 56,-80 93,-168 111,-257 19,-90 19,-182 3,-271 -16,-89 -50,-174 -99,-252 -47,-73 -107,-139 -182,-192 -4,-4 -9,-7 -13,-10 -81,-56 -168,-92 -258,-111 -90,-19 -183,-20 -272,-4 -89,15 -175,48 -253,97 -74,47 -141,108 -196,183 -2,3 -5,7 -7,10 -56,80 -93,167 -112,257 -19,90 -20,182 -4,271 17,89 50,175 99,253 47,73 108,140 183,194 4,3 8,6 12,9 81,56 169,93 259,112 91,18 183,20 273,4 57,-11 113,-29 167,-52 106,-46 221,-153 281,-229z"/>

	<path fill="#FFED00" d="M5038 1673c78,54 141,121 189,196 48,75 80,158 96,244 16,86 15,175 -2,262 -19,87 -54,172 -108,250 -20,28 -42,55 -65,80 -8,8 -71,83 -170,131 -65,35 -135,59 -207,72 -87,15 -177,14 -264,-4 -88,-18 -173,-54 -251,-108 -78,-54 -142,-122 -189,-197 -48,-75 -80,-159 -96,-245 -15,-86 -15,-175 4,-262 18,-87 54,-172 108,-249 54,-77 121,-140 197,-187 75,-48 159,-79 245,-95 86,-15 176,-14 263,4 87,19 172,54 250,108z"/>

	<path fill="#2B2A29" d="M4961 1810c32,-24 105,-62 163,16 27,36 39,97 35,145 -10,125 -4,28 -9,-1 -8,-42 -17,-86 -42,-118 -82,-109 -172,-24 -147,-42z"/>

	<path fill="#2B2A29" d="M4807 1716c-1,-36 -16,-107 -107,-116 -42,-3 -93,16 -126,41 -84,65 -18,16 6,7 35,-14 73,-27 111,-23 126,11 117,118 116,91z"/>

	<path fill="#2B2A29" d="M5249 2283c-22,-69 -57,-79 -57,-79 0,0 51,78 32,87 -180,87 -530,-110 -599,-150 -307,-180 -375,-366 -375,-366 0,-12 83,-46 83,-46 0,0 -55,11 -90,29 -57,29 -53,88 -53,88 0,0 31,-60 41,-58 0,0 -11,133 -18,216 -19,227 63,494 211,562 312,144 809,-246 809,-246 17,8 -1,89 -1,89 0,0 40,-56 17,-126z"/>
	<path fill="#FEFEFE" d="M5232 2318c0,-8 -3,-13 -6,-15 -149,88 -462,-68 -603,-143 -287,-151 -368,-352 -380,-381 -4,1 -7,4 -7,7 -3,38 -7,140 -8,146 48,90 68,223 345,382 266,152 463,91 515,86 11,-1 143,-78 144,-82z"/>
	<path fill="#FEFEFE" d="M5035 2110c-6,7 -53,-9 -96,-33 -43,-24 -98,-52 -92,-63 13,-24 64,-74 137,-40 68,33 70,117 51,136z"/>

	<path fill="#2B2A29" d="M4911 2064c-45,-25 -70,-42 -65,-51 12,-21 71,-83 146,-42 86,48 53,131 44,140 -8,8 -58,-11 -98,-33 -4,-2 -9,-4 -13,-7 -5,-2 -9,-5 -14,-7zm78 -85l0 0c-2,-1 -4,-2 -6,-3 -73,-35 -123,17 -134,39 -5,8 42,34 64,46 4,3 9,5 13,8 5,2 9,5 13,7 44,24 91,36 97,31 6,-6 10,-27 7,-48 -2,-16 -12,-57 -54,-80z"/>

	<path fill="#FEFEFE" d="M4499 1813c-2,9 36,41 79,64 44,24 96,55 102,44 14,-23 30,-93 -38,-136 -64,-41 -137,2 -143,28z"/>

	<path fill="#2B2A29" d="M4591 1886c-5,-2 -9,-5 -13,-7 -40,-22 -82,-55 -80,-66 3,-13 56,-85 142,-37 75,42 54,124 42,146 -5,9 -32,-3 -78,-29 -4,-2 -9,-5 -13,-7zm-53 -107l0 0c-19,9 -35,24 -36,32 -2,7 34,41 77,65 4,3 9,5 13,8 5,2 9,5 14,7 22,12 69,38 73,30 12,-21 30,-91 -38,-135 -2,-1 -4,-2 -6,-3 -42,-24 -81,-10 -97,-4z"/>

	<path fill="#2B2A29" d="M4553 1863l63 35c15,-3 29,-13 37,-27 15,-27 5,-61 -21,-76 -27,-15 -61,-5 -76,22 -8,14 -9,31 -3,46z"/>
	<path fill="#2B2A29" d="M4967 2092l-64 -35c-5,-15 -4,-31 4,-46 15,-27 48,-36 75,-21 27,14 37,48 22,75 -8,14 -22,24 -37,27z"/>
	<path fill="#FEFEFE" d="M5028 2046c-7,13 -23,18 -36,11 -13,-7 -18,-24 -11,-37 7,-13 24,-18 37,-10 13,7 18,23 10,36z"/>
	<path fill="#FEFEFE" d="M4605 1811c-7,14 -24,18 -37,11 -13,-7 -18,-24 -10,-37 7,-13 23,-18 36,-10 13,7 18,23 11,36z"/>

	<path fill="#2B2A29" d="M1348 2215l66 -55c-51,250 -88,481 -109,670l-65 55c20,-189 58,-420 108,-670zm297 -1008l0 0 -433 76 -66 56 433 -77c-60,214 -117,435 -166,650 27,-6 55,-13 83,-21l66 -55c-29,7 -56,14 -84,21 50,-215 106,-436 167,-650zm488 1297l0 0c-10,3 -20,7 -30,10 -1,0 -1,0 -2,0 -5,2 -10,2 -14,4 -3,0 -5,1 -8,1 -8,2 -17,3 -25,4 -9,1 -18,2 -27,2 -5,0 -10,0 -15,0 -2,0 -3,-1 -4,-1 -10,0 -21,-1 -30,-2 -1,0 -1,0 -1,0 -1,0 -2,-1 -3,-1 -8,-1 -15,-3 -22,-5 -1,0 -2,0 -3,0 -2,-1 -3,-2 -5,-2 -6,-2 -11,-4 -16,-6 -1,0 -3,-1 -4,-1 -1,-1 -2,-2 -3,-2 -7,-3 -13,-6 -19,-9 -1,-1 -2,-2 -3,-2 -1,-1 -1,-1 -2,-1 -3,-2 -6,-5 -9,-7 -2,-2 -5,-4 -8,-6 -3,-2 -6,-5 -9,-8 -2,-2 -4,-4 -6,-6 0,0 -1,0 -1,0 -5,-6 -10,-12 -15,-19 -1,-1 -2,-3 -4,-5 -3,-5 -7,-11 -10,-17 0,-1 -1,-2 -1,-2 -1,-1 -1,-1 -1,-2 -3,-6 -6,-12 -8,-19 -1,-2 -1,-3 -2,-5 -2,-5 -3,-11 -5,-16 0,-1 0,-2 -1,-3 0,-1 0,-2 0,-3 -3,-11 -4,-22 -5,-33 0,0 0,-1 0,-1 -1,-6 -1,-12 -1,-18 0,-8 0,-17 0,-26 0,-1 0,-2 0,-3 1,-3 1,-6 1,-10 1,-7 1,-14 2,-21 1,-4 2,-8 2,-13 1,-3 1,-6 2,-9 0,-4 1,-8 2,-12 1,-4 1,-7 2,-11 3,-11 5,-22 9,-34 0,-3 1,-6 2,-10 1,-2 2,-4 3,-6 3,-12 8,-24 12,-36 1,-4 3,-8 5,-12 5,-14 11,-27 17,-41 0,-1 1,-2 1,-3 0,-1 0,-1 1,-1 2,-6 6,-13 9,-19 3,-6 5,-12 9,-18 3,-6 6,-12 9,-18 4,-6 7,-13 11,-19 3,-6 7,-12 10,-18 4,-6 8,-13 12,-19 4,-6 8,-13 12,-19 3,-5 6,-10 9,-15 1,-1 2,-2 2,-3 10,-14 20,-29 31,-43 38,-52 75,-94 112,-126l66 -55c-1,0 -1,0 -1,0 0,0 1,0 1,0 -28,24 -56,53 -85,88 -9,12 -18,25 -28,38 -10,14 -20,28 -30,43 -4,6 -9,13 -13,20 -4,5 -7,11 -11,16 -4,7 -8,14 -12,21 -3,6 -7,11 -10,17 -4,7 -8,14 -12,22 -3,5 -5,9 -8,14 -4,9 -8,17 -12,26 -2,4 -4,7 -6,11 -1,3 -2,5 -3,8 -6,12 -11,24 -16,37 -2,5 -3,10 -5,15 -4,10 -8,20 -11,31 -2,6 -4,12 -6,19 -3,12 -6,23 -8,34 -1,3 -2,7 -2,10 -2,8 -3,16 -5,23 0,4 -1,7 -1,11 -1,8 -2,15 -3,23 0,3 0,6 0,9 -1,10 -1,20 -1,29 0,7 1,14 1,20 0,2 1,4 1,6 0,5 1,9 2,14 0,2 1,5 1,7 1,3 2,7 2,10 2,6 4,12 5,17 1,2 1,3 2,5 2,6 5,13 8,19 1,2 2,3 3,4 3,6 6,11 10,17 1,2 2,4 3,5 5,7 10,13 15,19 3,2 5,4 8,6 3,3 6,6 9,8 2,2 5,4 7,6 3,2 6,5 10,7 1,1 3,1 5,2 6,4 12,7 18,10 2,1 5,2 8,3 5,2 10,4 15,6 3,0 5,1 8,2 7,2 15,4 23,5 1,0 2,0 3,1 10,1 20,2 30,2 7,0 13,1 19,1 18,-1 35,-3 52,-6 3,0 5,-1 8,-2 6,-1 11,-2 16,-4 10,-2 20,-6 30,-10 2,0 3,-1 5,-2 8,-3 16,-7 24,-11 3,-2 6,-4 9,-5 7,-4 14,-8 21,-13 2,-1 5,-3 8,-5 9,-7 18,-14 27,-21 -22,18 -43,37 -65,55 -9,8 -18,14 -27,21 -3,2 -6,4 -9,5 -6,5 -13,9 -20,13 -3,2 -6,3 -9,5 -8,4 -16,8 -24,11 -2,1 -3,2 -5,3zm719 -750l0 0c2,-19 4,-38 5,-57 0,-1 0,-2 0,-4 0,-2 0,-4 0,-6 1,-19 1,-38 1,-57 0,-15 -1,-29 -2,-44 0,-2 0,-3 0,-5 -1,-2 -1,-5 -1,-7 -2,-14 -3,-28 -5,-42 -1,-3 -1,-6 -2,-9 -2,-16 -5,-32 -9,-47 0,-2 0,-3 -1,-4 -1,-6 -2,-11 -4,-16 -1,-5 -2,-9 -3,-13 -2,-8 -4,-14 -7,-21 -1,-5 -2,-9 -4,-13 -2,-7 -5,-15 -8,-22 -1,-4 -2,-7 -4,-11 -4,-10 -9,-21 -14,-31 -3,-7 -6,-13 -9,-20 -1,-2 -2,-3 -3,-5 -3,-6 -7,-12 -10,-18 -2,-4 -5,-8 -7,-12 -4,-7 -8,-13 -12,-19 -2,-3 -4,-6 -6,-10 -13,-18 -27,-34 -41,-49 -1,-1 -1,-1 -2,-1 -1,-1 -2,-2 -3,-3 -8,-8 -16,-16 -25,-23 -2,-2 -5,-4 -7,-6 -10,-8 -20,-15 -31,-22 -1,0 -1,-1 -1,-1 -4,-3 -9,-5 -13,-7 -3,-2 -6,-4 -10,-6 -6,-3 -12,-6 -18,-9 -2,-1 -4,-2 -7,-3 0,0 0,0 0,0 0,0 0,0 0,0 -13,-6 -27,-10 -41,-14 -2,-1 -3,-2 -4,-2 -1,0 -3,0 -4,-1 -13,-3 -28,-6 -42,-9 -2,0 -3,0 -4,-1 -3,0 -7,0 -10,-1 -5,0 -9,-1 -14,-1 -6,-1 -11,-1 -17,-2 -5,0 -9,0 -14,-1 -1,0 -2,0 -4,0 -8,0 -16,0 -25,0 -18,0 -37,2 -55,4 -1,0 -1,0 -2,0 -5,0 -9,1 -14,2 -13,2 -27,4 -41,6 -6,2 -13,3 -19,5 -8,2 -16,3 -24,5 -4,2 -9,3 -14,5 -4,1 -8,2 -12,3 -17,6 -34,12 -51,19 -1,0 -1,0 -2,0 -16,7 -32,15 -49,23 -3,2 -7,4 -12,6 -16,9 -33,18 -49,28 0,0 0,0 -1,0 -16,10 -32,22 -48,33 -4,3 -8,6 -12,9 -16,12 -32,24 -48,38 -22,18 -44,36 -65,55 16,-14 32,-26 48,-38 4,-3 8,-6 12,-9 16,-11 32,-22 48,-33 0,0 0,0 0,0 17,-10 34,-19 50,-28 4,-2 8,-4 12,-6 16,-8 32,-16 49,-22 0,-1 1,-1 2,-1 16,-7 33,-13 50,-18 4,-2 9,-3 13,-4 13,-4 25,-7 37,-10 7,-1 13,-3 20,-4 14,-3 27,-5 41,-7 5,-1 9,-1 14,-2 19,-2 38,-3 57,-4 10,0 19,0 29,1 5,0 9,0 14,0 5,1 11,1 17,2 4,0 9,1 13,1 5,1 10,2 14,2 15,3 29,6 43,10 3,0 5,1 8,2 14,4 27,9 40,14 0,0 1,0 1,1 2,0 3,1 5,2 6,3 13,6 20,9 3,2 6,4 9,6 5,2 10,5 15,8 10,7 21,14 31,22 2,2 4,4 6,6 9,7 18,15 26,23 1,1 3,3 4,4 7,7 14,15 21,24 1,0 1,0 1,0 6,8 13,17 19,26 2,3 4,6 6,9 4,6 9,12 13,19 2,4 4,8 7,12 3,6 6,12 10,18 4,8 8,16 12,25 5,10 9,21 14,32 1,3 2,6 3,9 3,8 6,15 9,23 1,4 3,9 4,13 2,7 4,14 6,20 2,6 3,11 5,17 1,5 2,10 4,16 3,16 6,31 9,48 1,3 1,6 1,10 3,13 4,28 5,42 1,4 1,7 1,10 2,15 2,30 3,45 0,19 0,38 -1,57 0,4 0,7 -1,11 -1,18 -2,36 -4,55 -1,4 -1,8 -2,11 -2,18 -4,35 -7,53 -1,3 -1,6 -2,8 -3,19 -7,38 -11,57 -1,5 -2,10 -3,15 -5,19 -10,39 -16,59 -7,24 -14,48 -22,71 -2,3 -3,7 -4,10 -15,43 -34,86 -54,129 -3,6 -5,12 -8,17 -10,21 -21,40 -32,60 0,1 -1,3 -2,4 -11,21 -23,41 -36,61 -4,6 -8,12 -11,18 -11,17 -23,34 -34,50 -3,3 -5,6 -7,9 -14,20 -28,39 -43,58 -4,4 -7,9 -10,13 -16,19 -32,39 -49,58 -43,50 -88,94 -134,133 22,-19 44,-37 66,-56 45,-38 90,-82 134,-132 17,-19 33,-39 48,-58 3,-5 7,-9 10,-13 15,-19 30,-38 44,-58 2,-3 4,-6 6,-9 7,-10 14,-19 20,-29 5,-7 9,-15 14,-22 4,-5 8,-11 11,-17 13,-20 25,-41 37,-61 0,-1 1,-3 2,-4 11,-20 21,-39 31,-60 3,-6 6,-11 9,-17 3,-7 6,-14 9,-20 17,-36 31,-73 45,-109 1,-4 2,-7 3,-10 6,-17 12,-34 17,-51 2,-7 4,-13 6,-20 5,-20 10,-40 15,-60 1,-5 2,-9 3,-14 5,-19 9,-38 12,-57 0,-1 0,-1 0,-2 1,-2 1,-3 1,-5 3,-18 6,-37 8,-55 0,-3 1,-6 1,-9zm282 310l0 0 65 -55 -253 798 -66 55 254 -798zm306 493l0 0 66 -56 274 -511 -65 56 -275 511zm-32 -1123l0 0 65 -55 -456 71 -66 55 457 -71zm22 598l0 0 66 -55 -23 -598 -65 55 22 598zm768 -662l0 0 65 -56 -418 57 -66 55 419 -56zm-158 1072l0 0c6,-23 11,-46 16,-69 8,-35 16,-69 24,-104 5,-24 10,-48 16,-71 7,-36 15,-71 22,-106 5,-23 10,-46 15,-68 8,-40 16,-79 24,-119 3,-18 7,-36 11,-54 11,-57 22,-114 32,-171 2,-10 4,-19 5,-28 8,-42 16,-83 23,-125 1,-5 1,-9 2,-14 12,-67 23,-133 33,-199l-65 56c-10,65 -22,132 -33,199 -8,44 -16,88 -24,133 -2,11 -4,22 -6,33 -11,57 -22,114 -33,172 -3,17 -7,33 -10,50 -8,41 -16,82 -25,123 -4,21 -9,42 -13,63 -8,38 -16,75 -24,112 -5,22 -10,44 -15,66 -8,37 -17,74 -25,111 -5,21 -10,42 -15,63 -9,40 -18,79 -28,118 -4,18 -8,36 -13,54 -14,57 -28,114 -42,170l65 -55c15,-56 29,-112 42,-169 5,-19 10,-39 15,-59 9,-37 18,-74 26,-112z"/>
	<path fill="#E41B41" d="M2793 1685c-2,-104 -23,-199 -64,-285 -77,-167 -205,-249 -384,-246 -210,4 -407,111 -589,321 -112,130 -199,268 -259,416 -29,7 -56,14 -83,21 49,-215 105,-436 166,-650l-433 76 -279 1553 372 -6c21,-189 59,-420 109,-670l60 -13c-8,57 -13,111 -11,163 2,103 22,195 61,277 79,167 209,248 389,245 208,-4 404,-110 587,-318 150,-171 254,-357 312,-558 33,-118 48,-226 46,-326zm-387 469l0 0c-25,92 -67,172 -126,240 -74,85 -158,129 -253,131 -69,1 -123,-19 -162,-60 -35,-36 -53,-83 -54,-142 -1,-41 6,-88 20,-139 28,-98 80,-198 155,-300 94,-130 187,-196 279,-198 81,-1 133,49 155,151 21,104 16,210 -14,317zm1792 -785l0 0c-75,475 -183,987 -305,1468l-394 14 216 -806 -274 511 -335 4 28 -496 -253 798 -368 7 439 -1364 457 -71 22 598 349 -606 418 -57z"/>

	<g fill="#2B2A29">
		<path d="M6003 2967c5,0 1,100 -12,301l-22 452 -290 38 -3 -3 27 -150 68 -370 -181 156 -110 -167 0 -2c174,-149 274,-232 299,-248l3 0 221 -7z"/>
		<path d="M6392 3013l27 0c92,0 163,50 212,150 24,61 30,129 17,204 -23,131 -97,240 -223,328 -63,36 -122,54 -180,54 -118,0 -198,-67 -239,-201 -8,-52 -10,-95 -4,-130l7 -36c21,-121 92,-225 213,-314 65,-37 122,-55 170,-55zm-180 347l0 0c-13,71 7,121 59,150l21 2c44,0 82,-30 113,-91l21 -61c13,-78 -7,-130 -62,-157l-22 -2c-47,0 -87,39 -121,118l-9 41z"/>
		<path d="M6970 2945l87 130 -178 258 4 0 71 7 0 -3c22,-66 35,-99 40,-99 98,14 147,24 146,30l-8 65 4 0 61 -4 30 0 3 4 4 0 -43 201c-3,18 -21,27 -54,27l-23 0 -20 179 -4 3 -4 0 -252 15 -2 -4 63 -208c-191,-13 -292,-22 -305,-27l1 -4c28,-132 50,-198 65,-198 202,-244 307,-368 314,-372z"/>
		<path d="M7315 3551c29,0 51,9 68,28 17,19 23,42 19,69 -5,26 -19,49 -43,68 -23,19 -49,28 -78,28 -28,0 -51,-9 -68,-28 -17,-19 -23,-42 -18,-68 5,-27 19,-50 42,-69 24,-19 50,-28 78,-28z"/>
		<path d="M7866 2985l40 0c107,0 160,55 159,164l-4 26c-16,90 -104,212 -265,367l6 0 252 -7 9 13 -31 177c-2,10 -12,16 -32,19l-516 20c-6,-33 0,-96 16,-190 41,-35 146,-144 314,-327l4 -19 0 -33 -17 0c-20,0 -61,28 -124,85l-45 0c-80,0 -119,-7 -116,-20 14,-83 74,-161 178,-235 56,-26 113,-40 172,-40z"/>
	</g>
</svg>
