<svg xmlns="http://www.w3.org/2000/svg" viewBox="0 0 14633 6054" xmlns:xlink="http://www.w3.org/1999/xlink">
   <path fill="#A979B3" d="M401 3914c3540,0 6092,14 6643,-15 -577,-37 -1489,-189 -3205,-638 -2250,-589 -3376,221 -3438,653z"/>
   <path fill="#834E98" d="M12351 2957c225,-126 384,-261 496,-405 539,-695 -654,-1676 216,-2552 65,968 1052,523 1093,1463 -163,-663 -1297,-279 -1192,-1187 -817,930 1627,2220 -855,3192 -2264,768 -5056,341 -7105,-191 -1455,-378 -2427,-479 -3206,-320 -437,90 -813,261 -1179,511 308,-432 647,-764 1005,-1012 1479,-1024 3301,-643 4675,-164 2711,945 4824,1259 6052,665zm1831 -1758c190,-79 417,-97 387,-456 276,890 -378,1758 -1242,2208 641,-364 1310,-1269 855,-1752z"/>
   <path fill="#A979B3" d="M474 3183l-474 -525c17,-22 35,-44 52,-65l473 523c25,-33 51,-66 77,-98l-151 -193c12,-14 24,-27 36,-40l149 192c23,-27 46,-54 69,-80l-148 -189c12,-13 24,-26 36,-39l147 188c25,-27 49,-53 74,-79l-137 -195c13,-12 25,-25 37,-37l137 194c26,-27 52,-53 79,-79l-126 -199c12,-12 25,-24 38,-35l125 198c25,-23 49,-45 74,-67l-124 -197c13,-11 26,-22 39,-33l124 195c26,-23 53,-46 81,-69l-114 -201c13,-10 27,-21 40,-31l113 200c28,-23 56,-45 84,-66l-103 -204c14,-10 27,-20 41,-30l103 203c26,-19 52,-38 79,-57l-102 -201c14,-9 28,-19 42,-28l101 200c31,-21 62,-41 93,-61l-241 -533c22,-13 44,-26 66,-40l241 532c34,-21 69,-42 104,-62l-81 -205c14,-8 29,-16 43,-24l81 205c30,-17 59,-33 89,-48l-71 -207c15,-7 30,-15 44,-22l71 206c29,-14 58,-29 87,-42l-70 -204c15,-7 30,-13 45,-20l70 203c30,-14 61,-28 92,-41l-61 -204c16,-6 31,-12 46,-18l60 204c31,-13 62,-25 92,-37l-50 -205c15,-5 30,-11 46,-16l50 204c30,-11 60,-21 90,-32l-50 -201c15,-5 31,-10 46,-15l50 201c31,-10 62,-20 94,-29l-44 -201c16,-4 31,-8 47,-12l43 200c32,-9 63,-18 95,-26l-34 -200c15,-4 31,-8 46,-11l35 200c34,-9 67,-16 101,-23l-74 -493c24,-5 49,-9 73,-14l74 492c36,-7 72,-14 108,-20l-22 -198c16,-3 31,-5 47,-7l23 198c29,-5 59,-9 88,-12l-23 -198c16,-2 32,-4 48,-6l22 198c32,-4 64,-7 96,-10l-16 -199c15,-1 31,-2 47,-4l17 199c32,-2 64,-5 96,-6l-11 -200c16,-1 32,-2 47,-3l12 201c31,-2 62,-2 93,-3l-12 -202c16,0 32,-1 48,-1l11 203c25,0 50,0 75,0 7,0 14,0 21,0l-6 -205c16,0 32,0 47,0l6 205c32,-1 64,0 96,1l3 -205c16,0 32,1 48,1l-3 205c32,1 63,2 95,4l8 -205c16,1 32,2 48,3l-9 205c33,2 66,5 99,8l15 -428c25,1 49,3 74,6l-15 429c35,3 71,7 107,12l12 -210c16,2 32,4 47,5l-12 211c32,4 63,8 95,13l18 -212 47 7 -18 212c31,5 62,10 93,15l22 -214 47 8 -22 214c31,6 62,12 93,18l25 -217c16,3 32,6 47,8l-24 218c29,5 58,11 87,18l25 -219 47 9 -25 220c31,6 62,13 93,20l32 -220 47 10 -32 221c31,7 63,15 94,22l35 -221 47 11 -35 222c29,7 58,14 87,22l38 -222c16,4 31,8 47,12l-38 222c34,9 68,18 102,27l67 -422c24,6 48,13 72,20l-67 422c33,9 67,18 100,28l41 -221c16,5 31,9 47,14l-41 220c29,9 59,18 88,26l44 -218 47 15 -44 217c31,9 62,19 94,28l43 -215 46 15 -43 214c29,9 59,18 88,28l46 -211 46 16 -45 209 89 28 44 -206 46 17 -44 204 91 29 46 -199 45 18 -45 196 89 29 44 -191 45 17 -43 189 88 29 43 -182 37 15 8 3 -41 179 95 32 75 -322 70 28 -74 317 104 35 38 -163 45 18 -37 160 90 30 34 -157 45 17 -33 155 88 29 33 -151 46 17 -32 150 88 29 32 -147 46 16 -32 146 87 28 30 -144 45 16 -28 143 88 29 29 -142 46 16 -28 141 93 29 28 -139 46 15 -27 139c29,9 58,18 87,27l28 -137 46 15 -27 136c31,10 62,19 94,29l54 -292 71 22 -54 291c35,10 70,20 104,30l25 -134 47 14 -25 134c31,9 62,17 93,26l23 -133 46 13 -23 133c29,8 59,16 88,24l22 -132 47 13 -23 131c30,8 59,15 89,23l20 -130 47 12 -20 130c30,7 61,15 92,22l20 -128 47 12 -20 127c30,7 60,14 89,21l20 -125 47 11 -20 124c31,7 62,14 93,20l17 -122 47 11 -17 121 11 2c26,6 51,12 76,18l18 -121 47 10 -18 122c33,7 66,14 98,21l33 -257c24,5 49,10 73,15l-33 258c36,7 72,15 108,22l14 -124 47 9 -14 124c30,5 59,11 88,16l14 -124 47 9 -14 124c31,5 62,10 93,16l12 -125 47 8 -12 124c31,5 62,10 93,15l12 -125c16,3 32,5 48,7l-13 125c31,4 62,8 93,13l10 -125c16,2 32,4 48,6l-11 125c31,4 62,7 92,11l11 -125c16,2 31,4 47,6l-10 124c31,3 62,7 92,10l7 -125c16,2 32,3 48,4l-7 125c29,2 58,5 87,7l6 -124 47 3 -5 124c33,3 66,5 99,6l16 -236c25,1 50,3 74,4l-16 236c36,1 71,2 106,3l2 -122 47 1 -1 122c30,1 61,1 91,1l-3 -122c16,0 32,0 48,0l3 121c32,0 63,-1 94,-2l-5 -120c16,-1 32,-1 48,-2l5 120c31,-1 61,-3 92,-4l-8 -120c16,0 32,-1 48,-2l7 118c31,-2 62,-4 92,-7l-10 -118c16,-1 32,-2 47,-4l11 117c32,-3 65,-7 97,-11l-15 -116c16,-2 32,-3 48,-5l14 114c31,-4 62,-9 92,-14l-19 -113c16,-3 32,-6 48,-8l18 112c31,-6 61,-12 92,-18l-21 -111c16,-3 32,-6 47,-10l21 110c33,-7 66,-15 98,-24l-42 -192c25,-6 49,-12 73,-19l41 191c33,-10 66,-20 99,-31l-30 -104c15,-5 30,-10 46,-15l30 103c32,-12 63,-24 94,-36l-34 -90 45 -18 34 89c29,-12 57,-25 84,-38l-29 -78 44 -21 30 77c27,-14 55,-29 82,-44l-28 -63 45 -20 26 58c24,-14 47,-28 70,-43l-27 -53 44 -24 25 49c25,-18 50,-35 74,-54l14 37c-790,610 -2202,612 -3640,297 -2057,-355 -3519,-1296 -5352,-1265 -1066,6 -2190,469 -3048,1632l-145 -165 5 -6z"/>
   <path fill="#A979B3" d="M636 4778l0 -62 92 0c12,0 28,-4 38,-12 19,-16 20,-53 20,-69 0,-31 -6,-48 -16,-59 -12,-13 -28,-15 -46,-15l-120 0c-15,0 -24,6 -29,11 -8,8 -9,21 -9,30l0 176 70 0zm0 -117l0 -33c0,-5 1,-13 13,-13l38 0c9,0 17,0 22,5 6,4 7,11 7,17 0,9 -2,15 -6,19 -6,6 -14,5 -23,5l-51 0zm742 117l74 0 17 -44 79 0 17 44 74 0 -81 -193c-10,-25 -29,-27 -50,-27 -33,0 -42,10 -49,27l-81 193zm128 -149c0,-2 2,-5 2,-5 1,0 3,3 3,5l20 55 -45 0 20 -55zm734 95l-22 0 0 54 261 0 0 -54 -22 0 -58 -141c-5,-11 -14,-25 -50,-25 -37,0 -46,14 -50,25l-59 141zm105 -94c1,-2 2,-6 4,-6 2,0 3,4 3,6l35 94 -76 0 34 -94zm973 148l0 -166c0,-18 -2,-54 -52,-54 -13,0 -33,1 -47,26l-60 104c-3,5 -4,8 -6,8 -4,0 -4,-4 -4,-7 0,-1 0,-2 0,-4l3 -124 -71 0 0 168c0,26 5,52 48,52 30,0 41,-12 47,-22l62 -106c4,-7 6,-11 8,-11 3,0 3,5 3,9l-3 127 72 0zm733 -220c-33,0 -72,1 -95,23 -24,21 -24,59 -24,89 0,28 0,66 24,88 23,22 63,23 95,23 33,0 72,-1 95,-23 24,-22 25,-60 25,-88 0,-30 -1,-68 -25,-89 -23,-22 -62,-23 -95,-23zm-47 112c0,-19 0,-30 8,-42 9,-14 21,-16 39,-16 19,0 30,2 40,16 8,12 8,23 8,42 0,17 0,29 -8,41 -10,14 -21,16 -40,16 -17,0 -30,-2 -39,-16 -7,-11 -8,-24 -8,-41zm1006 108l-82 -110 80 -107 -84 0 -37 58 -37 -58 -84 0 80 107 -83 110 84 0 40 -61 39 61 84 0zm712 -220c-33,0 -72,1 -95,23 -24,21 -25,59 -25,89 0,28 1,66 25,88 23,22 63,23 95,23 32,0 72,-1 95,-23 24,-22 25,-60 25,-88 0,-30 -1,-68 -25,-89 -23,-22 -62,-23 -95,-23zm-48 112c0,-19 1,-30 8,-42 10,-14 22,-16 40,-16 18,0 30,2 39,16 9,12 9,23 9,42 0,17 0,29 -9,41 -9,14 -21,16 -39,16 -18,0 -30,-2 -40,-16 -7,-11 -8,-24 -8,-41zm757 108l74 0 53 -144c1,-1 2,-5 3,-5 2,0 3,4 4,5l52 144 75 0 -84 -197c-9,-22 -33,-23 -47,-23 -13,0 -38,1 -47,23l-83 197zm859 -54l-21 0 0 54 260 0 0 -54 -22 0 -58 -141c-4,-11 -13,-25 -50,-25 -37,0 -46,14 -50,25l-59 141zm105 -94c1,-2 2,-6 4,-6 2,0 3,4 3,6l35 94 -76 0 34 -94zm973 148l0 -166c0,-18 -2,-54 -52,-54 -13,0 -33,1 -47,26l-60 104c-3,5 -4,8 -6,8 -4,0 -4,-4 -4,-7 0,-1 0,-2 0,-4l3 -124 -71 0 0 168c0,26 5,52 48,52 30,0 41,-12 47,-22l62 -106c4,-7 6,-11 8,-11 3,0 3,5 3,9l-3 127 72 0zm839 -217l-70 0 0 77 -79 0 0 -77 -70 0 0 217 70 0 0 -86 79 0 0 86 70 0 0 -217zm691 217l0 -149c0,-4 0,-9 2,-11 2,-4 8,-3 12,-3l112 0 0 -54 -162 0c-10,0 -20,4 -26,10 -8,9 -8,20 -8,30l0 177 70 0z"/>
   <path fill="#2B2A29" d="M652 5802l-95 0 0 241 1158 0 0 -241 -97 0 -260 -628c-19,-49 -59,-109 -222,-109 -163,0 -203,60 -223,109l-261 628zm469 -420c2,-8 7,-24 15,-24 8,0 12,16 15,24l155 420 -340 0 155 -420zm638 661l329 0 76 -199 348 0 76 199 328 0 -357 -861c-45,-108 -129,-117 -221,-117 -150,0 -191,45 -221,117l-358 861zm566 -665c3,-7 9,-20 13,-20 4,0 10,13 12,20l87 245 -199 0 87 -245zm1745 665l0 -739c0,-79 -9,-239 -230,-239 -56,0 -147,6 -208,113l-267 465c-12,22 -19,35 -28,35 -17,0 -17,-25 -16,-48l14 -554 -318 0 0 746c0,116 25,232 215,232 134,0 182,-53 209,-98l275 -470c19,-32 28,-47 36,-47 14,0 14,18 14,36l-14 568 318 0zm-620 -1107l0 270 166 -270 -166 0zm829 866l-95 0 0 241 1158 0 0 -241 -97 0 -260 -628c-20,-48 -59,-109 -222,-109 -163,0 -203,61 -223,109l-261 628zm469 -420c3,-8 7,-24 15,-24 8,0 12,16 15,24l155 420 -340 0 155 -420zm637 661l379 0 235 -368c33,-51 57,-94 57,-132 0,-35 -24,-74 -45,-108l-216 -359 -360 0 277 398c16,23 37,48 37,71 0,16 -8,38 -47,89l-317 409zm1714 0l-317 -409c-39,-51 -47,-74 -47,-89 0,-23 21,-48 38,-71l281 -398 -359 0 -222 359c-26,42 -44,77 -44,108 0,38 24,81 56,132l235 368 379 0zm-1013 0l312 0 0 -967 -312 0 0 967zm1971 0l0 -235 -472 0c-20,0 -45,1 -60,-13 -6,-5 -14,-16 -14,-36l0 -104 528 0 0 -210 -528 0 0 -74c0,-12 1,-34 16,-47 11,-9 30,-13 48,-13l478 0 0 -235 -695 0c-34,0 -81,5 -117,38 -36,34 -42,74 -42,111l0 663c0,45 0,85 44,122 37,30 78,33 118,33l696 0zm975 0l0 -241 -268 0c-103,0 -194,0 -235,-76 -9,-16 -23,-53 -23,-160 0,-47 4,-126 31,-174 43,-77 119,-76 221,-76l259 0 0 -240 -409 0c-109,0 -250,13 -339,125 -68,88 -84,209 -84,371 0,185 31,280 89,352 78,98 179,119 330,119l428 0zm730 0l0 -727 346 0 0 -240 -1003 0 0 240 345 0 0 727 312 0z"/>
   <path fill="#A979B3" d="M10942 6037l0 -583 645 0 0 -334 -645 0 0 -104c0,-32 7,-61 24,-78 19,-19 46,-21 67,-21l793 0 0 -359 -1101 0c-53,0 -131,4 -193,63 -57,55 -67,125 -67,186l0 1230 477 0zm2703 -896c13,-40 21,-53 30,-53 8,0 19,8 19,49l-17 900 482 0 0 -1236c0,-91 -28,-260 -364,-260 -127,0 -304,15 -380,245l-239 718c-4,15 -27,68 -44,68 -17,0 -40,-53 -45,-68l-239 -718c-76,-230 -253,-245 -378,-245 -76,0 -363,0 -363,260l0 1236 479 0 -14 -900c0,-15 -2,-49 17,-49 10,0 21,25 29,53l228 714c34,108 76,199 286,199 209,0 251,-91 285,-199l228 -714z"/>
   <path fill="#834E98" d="M11507 2664l89 -12 -31 -229c-2,-16 -9,-28 -17,-33 -8,-5 -19,-8 -32,-6l-95 12 9 68 34 -4c7,-1 11,1 13,3 4,4 5,13 6,18l24 183zm-69 11l-8 -71 -78 9 8 71 78 -9zm-328 29l99 -7 109 -207c7,-14 9,-27 8,-42 -2,-16 -7,-38 -40,-35l-209 17 6 67 137 -11c7,-1 10,1 10,3 0,1 -1,3 -3,8l-117 207zm-145 -62c-9,0 -21,0 -28,-8 -5,-5 -7,-15 -8,-38l-3 -53c0,-10 0,-23 7,-32 7,-8 18,-10 25,-10 8,0 19,0 27,8 8,8 9,21 9,31l3 53c1,23 -1,33 -5,39 -7,8 -19,9 -27,10zm-125 -36c2,41 9,82 35,98 17,10 45,11 93,9 48,-2 76,-6 91,-17 25,-18 29,-60 27,-101l-2 -56c-1,-21 -4,-70 -34,-93 -24,-19 -63,-17 -95,-16 -31,1 -71,3 -93,24 -28,26 -26,76 -25,96l3 56zm-114 104l90 0 -3 -232c0,-16 -5,-28 -13,-35 -7,-5 -18,-10 -31,-10l-95 1 0 69 34 0c8,0 11,2 13,4 3,4 4,14 4,19l1 184z"/>
   <path fill="#834E98" d="M8394 2294l151 46c20,7 45,13 66,2 25,-13 35,-47 41,-66 6,-20 12,-39 4,-60 -10,-23 -26,-30 -41,-35l-70 -21c-5,-2 -10,-4 -13,-8 -2,-4 -3,-10 -1,-15l1 -5c1,-3 2,-6 6,-9 5,-2 10,-1 15,1l126 39 20 -65 -183 -56c-21,-6 -33,-2 -39,2 -12,6 -17,19 -19,27l-20 63c-4,13 -10,35 3,51 8,11 25,15 36,18l68 21c7,3 15,5 19,13 2,5 1,11 0,14 -2,5 -5,11 -8,13 -8,6 -18,2 -27,0l-115 -36 -20 66zm-122 -115c-8,-3 -19,-8 -22,-18 -3,-7 -1,-17 6,-38l19 -50c3,-10 8,-22 18,-27 9,-5 20,-2 27,0 8,3 18,8 22,18 4,10 0,23 -4,32l-18 50c-7,21 -13,30 -19,34 -9,5 -21,2 -29,-1zm-101 -81c-14,38 -23,79 -5,104 11,15 37,27 82,43 45,17 72,25 91,20 29,-7 49,-45 63,-83l20 -53c6,-19 23,-66 4,-99 -14,-26 -51,-40 -81,-50 -30,-11 -67,-25 -95,-14 -36,13 -53,60 -60,79l-19 53zm-149 54l83 32 83 -216c6,-15 5,-28 0,-37 -4,-8 -13,-16 -25,-21l-89 -34 -25 64 32 12c7,3 9,7 10,9 2,5 -1,14 -3,19l-66 172z"/>
   <path fill="#834E98" d="M7209 1851l186 71 25 -66 -113 -43c-1,0 -3,-1 -2,-2 0,-2 3,-3 5,-3l93 -9c29,-2 49,-12 69,-64 7,-18 13,-40 6,-58 -6,-16 -22,-28 -36,-34l-156 -59 -24 62 103 40c7,2 16,5 20,13 3,6 1,12 -1,15 -2,7 -7,16 -21,17l-131 16c-26,4 -38,32 -41,42 -10,24 -9,51 18,62zm-66 -27l25 -66 -73 -28 -25 66 73 28zm-178 -189l-66 -25c-4,-2 -5,-4 -4,-5 0,-1 3,-3 4,-3l84 -32c2,0 4,-2 6,-2 1,1 1,2 1,2l-25 65zm-39 103l83 32 13 -35 39 15 26 -68 -39 -15 45 -117c4,-10 8,-19 2,-33 -6,-14 -20,-21 -33,-26 -28,-11 -45,-7 -56,-3l-158 61c-15,6 -28,14 -40,44 -10,27 -6,43 -6,44 3,14 13,18 21,22l116 44 -13 35zm-259 -171c-9,-3 -19,-8 -23,-18 -3,-7 -1,-17 7,-38l18 -50c3,-10 8,-22 18,-27 9,-5 20,-2 27,0 8,3 18,8 22,17 4,11 0,24 -3,33l-18 50c-8,21 -13,30 -20,34 -9,5 -20,2 -28,-1zm-102 -81c-14,38 -23,80 -5,104 11,16 37,27 82,44 45,16 73,24 91,19 30,-7 50,-45 64,-83l19 -53c7,-19 23,-66 4,-99 -14,-26 -52,-40 -81,-50 -30,-11 -67,-25 -95,-14 -36,13 -53,60 -60,79l-19 53zm-153 60l85 29 75 -219c5,-15 4,-29 -1,-37 -5,-8 -14,-16 -26,-20l-90 -31 -23 65 32 11c8,2 10,6 11,9 2,4 -1,13 -3,18l-60 175z"/>
   <path fill="#834E98" d="M5661 1214c-6,-1 -14,-6 -16,-11 -2,-4 -2,-11 -1,-16 3,-9 8,-12 11,-13 7,-2 14,0 19,1l14 4c5,2 12,3 16,9 3,4 5,10 3,17 -2,4 -5,11 -9,13 -5,3 -14,3 -20,1l-17 -5zm29 -97c-5,-1 -11,-3 -13,-8 -2,-4 -1,-9 0,-13 1,-5 3,-12 9,-14 5,-2 13,-1 18,0l8 2c4,2 12,5 15,9 4,5 2,12 0,17 -1,5 -3,9 -7,12 -4,2 -11,1 -15,0l-15 -5zm-74 9c-11,-1 -24,0 -33,4 -20,9 -27,32 -31,47 -5,17 -8,33 -2,50 11,30 40,39 72,48l57 16c32,9 61,17 87,-2 14,-11 20,-27 24,-44 5,-14 11,-38 -1,-56 -5,-8 -16,-16 -26,-21l0 0c7,1 16,1 27,-4 19,-10 25,-27 29,-40 4,-14 10,-42 -1,-62 -14,-24 -53,-34 -72,-39l-39 -11c-19,-6 -57,-18 -81,-5 -21,11 -30,38 -34,52 -4,13 -7,31 4,49 6,10 14,15 20,17l0 1zm-111 113l18 -68 -76 -21 -18 69 76 20zm-348 -93l170 42c18,5 35,6 55,-4 23,-12 29,-31 36,-55 3,-15 8,-37 -5,-54 -7,-10 -20,-18 -31,-20l0 -2c13,2 26,-1 35,-7 14,-10 20,-27 23,-42 4,-15 7,-33 0,-50 -11,-25 -32,-31 -48,-35l-165 -41 -16 64 116 29c8,1 16,3 21,10 4,5 3,10 2,15 -1,4 -4,10 -9,13 -8,5 -17,2 -24,0l-112 -28 -15 59 117 29c8,2 14,3 19,7 8,6 7,14 5,21 -2,6 -4,12 -14,14 -6,2 -13,0 -37,-6l-106 -26 -17 67zm-127 -101c-9,-2 -20,-5 -25,-14 -4,-6 -4,-17 1,-39l11 -52c2,-10 5,-23 15,-29 8,-6 20,-5 27,-3 7,1 18,5 24,13 5,10 3,23 1,33l-11 52c-5,22 -9,32 -15,36 -8,7 -20,5 -28,3zm-112 -66c-9,40 -12,82 9,104 14,14 41,22 88,32 47,10 75,14 93,6 28,-11 42,-51 51,-90l11 -56c5,-19 15,-68 -8,-98 -19,-24 -57,-32 -88,-39 -31,-7 -70,-15 -96,0 -34,18 -44,66 -49,86l-11 55zm-141 78l88 18 44 -228c3,-15 0,-28 -6,-36 -5,-7 -16,-14 -29,-16l-93 -19 -13 68 33 6c7,2 10,5 12,7 2,5 0,14 0,19l-36 181z"/>
   <path fill="#834E98" d="M3787 950l99 5 133 -192c10,-13 13,-25 14,-40 0,-16 -2,-39 -35,-40l-210 -9 -3 67 138 6c7,0 9,3 9,4 0,2 -1,4 -4,7l-141 192zm-27 -2l0 -71 -79 1 1 71 78 -1zm-207 1l89 -1 -1 -231c-1,-16 -6,-28 -14,-35 -6,-6 -18,-10 -31,-10l-95 1 0 68 34 0c8,0 11,3 13,5 3,4 4,13 4,18l1 185zm-187 -64c-9,0 -20,-1 -27,-8 -5,-6 -7,-16 -8,-39l-1 -52c-1,-11 -1,-24 7,-33 7,-7 18,-9 26,-9 7,0 19,1 26,8 8,8 8,22 9,32l1 53c0,22 -1,33 -6,38 -6,8 -18,9 -27,10zm-124 -38c1,40 8,82 34,98 16,11 44,12 92,11 48,-1 76,-4 92,-15 24,-18 29,-60 28,-101l-1 -56c-1,-20 -2,-70 -32,-94 -23,-19 -63,-18 -94,-17 -32,1 -71,2 -94,22 -28,25 -27,75 -27,95l2 57zm-118 118l89 -5 -14 -232c-1,-15 -7,-27 -15,-34 -7,-5 -18,-9 -32,-8l-95 6 4 68 34 -2c8,0 11,3 13,4 3,4 4,14 5,18l11 185z"/>
   <path fill="#834E98" d="M848 1658c-6,3 -14,6 -20,5 -5,-2 -9,-7 -12,-12 -5,-7 -3,-13 -2,-16 3,-7 9,-10 14,-13l12 -7c4,-3 10,-7 17,-7 6,1 11,4 14,10 3,4 5,11 4,16 -1,6 -7,12 -13,15l-14 9zm-52 -87c-4,3 -10,5 -15,4 -4,-1 -7,-5 -10,-9 -2,-5 -6,-11 -3,-17 1,-4 8,-10 12,-12l7 -5c4,-2 12,-5 16,-5 7,1 11,7 13,12 3,4 5,8 4,13 -1,5 -6,8 -10,11l-14 8zm-44 60c-9,7 -17,18 -20,26 -7,21 6,42 13,55 10,15 19,29 36,36 29,12 56,-3 84,-20l50 -31c29,-17 55,-33 58,-65 2,-17 -6,-33 -15,-48 -8,-13 -21,-33 -42,-37 -9,-1 -22,1 -33,5l0 -1c5,-4 11,-10 15,-21 6,-21 -2,-37 -10,-49 -7,-13 -23,-36 -45,-41 -27,-7 -61,15 -78,25l-35 21c-17,10 -51,30 -59,57 -6,22 8,47 16,59 7,13 17,27 38,32 12,2 20,-1 27,-3l0 0zm7 170l-40 -59 -64 44 39 58 65 -43zm-260 -17l-30 22c-10,8 -15,9 -17,9 -5,0 -11,-3 -16,-9 -4,-6 -7,-12 -4,-19 1,-5 6,-10 11,-14l18 -13c5,-5 10,-4 12,-4 3,1 7,3 9,6l17 22zm-17 220l124 -94c15,-12 42,-33 35,-71 -4,-21 -17,-38 -27,-50l-66 -87c-10,-14 -21,-25 -37,-30 -30,-11 -54,4 -74,19l-69 52c-14,11 -30,25 -33,49 -4,28 11,47 26,66 13,17 28,39 52,44 12,3 29,2 47,-12l76 -57 11 14c2,4 5,8 4,14 -2,6 -7,10 -10,12l-101 76 42 55zm-216 38l30 -25c5,-5 11,-10 19,-10 5,1 12,6 15,10 5,6 6,11 5,16 0,4 -3,8 -8,12l-18 15c-2,2 -8,7 -12,8 -8,1 -13,-5 -17,-9l-14 -17zm-39 -47l-12 -14c-2,-2 -6,-8 -5,-14 0,-2 1,-6 14,-17l88 -74 -44 -53 -116 98c-12,10 -28,25 -33,48 -5,27 9,47 19,59l81 97c13,15 30,33 57,32 11,1 28,-3 46,-17l79 -67c25,-21 33,-42 29,-62 -4,-21 -25,-47 -33,-56 -10,-13 -31,-37 -58,-37 -19,0 -35,13 -47,22l-65 55z"/>
   <path fill="#834E98" d="M9191 2522l88 17 44 -230c3,-16 -1,-29 -7,-37 -5,-7 -15,-13 -29,-16l-94 -18 -13 68 33 7c8,1 11,5 12,7 3,4 1,14 0,19l-34 183zm140 -85c-8,40 -10,83 12,104 14,14 42,21 89,30 48,9 76,12 94,5 28,-12 42,-53 50,-93l10 -56c4,-20 13,-70 -11,-99 -19,-24 -58,-32 -90,-38 -31,-6 -70,-13 -97,2 -33,19 -43,69 -46,89l-11 56zm115 63c-9,-1 -21,-4 -26,-13 -3,-7 -3,-17 1,-40l10 -52c2,-10 5,-24 14,-30 8,-6 20,-6 27,-4 7,1 19,5 24,13 6,10 4,23 2,34l-10 52c-4,23 -8,32 -14,37 -8,7 -20,5 -28,3zm253 -58l4 -18c0,-3 2,-10 7,-13 2,-1 7,-3 23,0l115 22 12 -69 -151 -28c-15,-3 -37,-5 -58,6 -25,12 -31,36 -34,52l-24 125c-3,20 -7,44 11,65 7,9 20,20 43,24l103 20c32,6 54,-1 67,-17 14,-17 21,-49 23,-62 3,-16 8,-47 -9,-68 -12,-15 -32,-20 -47,-23l-85 -16zm-11 61l39 7c7,1 15,3 19,9 3,4 3,12 2,18 -1,7 -5,12 -9,14 -3,2 -9,3 -14,1l-24 -4c-3,-1 -10,-2 -14,-5 -5,-5 -4,-12 -3,-19l4 -21zm244 159l13 -70 -78 -15 -13 71 78 14zm69 13l89 17 43 -230c3,-15 0,-29 -6,-37 -6,-7 -16,-13 -29,-16l-95 -18 -13 69 34 6c7,1 10,5 12,7 2,5 1,14 0,19l-35 183z"/>
   <path fill="#834E98" d="M1814 1259l150 -49c20,-7 44,-16 55,-37 13,-25 2,-59 -4,-78 -7,-20 -13,-38 -32,-51 -21,-13 -38,-10 -53,-5l-70 23c-5,2 -10,3 -15,1 -4,-2 -8,-6 -10,-12l-1 -4c-1,-3 -3,-7 -1,-11 2,-4 8,-6 13,-8l125 -41 -21 -64 -182 60c-20,7 -28,18 -31,24 -5,12 -2,25 0,33l21 63c5,13 12,34 32,40 13,3 29,-2 39,-6l68 -22c7,-2 16,-5 23,-1 5,3 7,8 8,11 2,6 3,12 1,16 -3,9 -14,12 -22,15l-115 38 22 65z"/>
   <path fill="#834E98" d="M1562 1356l145 -57c18,-7 49,-20 52,-59 2,-21 -6,-41 -11,-55l-40 -102c-7,-16 -14,-29 -29,-39 -26,-18 -53,-10 -75,-1l-81 31c-17,7 -35,16 -45,38 -11,26 -2,49 7,71 8,20 17,45 38,57 10,5 27,10 49,1l88 -34 7 16c1,4 3,9 0,14 -3,5 -10,8 -13,9l-117 46 25 64zm76 -207l-35 14c-12,4 -17,4 -19,3 -4,-1 -10,-5 -13,-13 -2,-7 -3,-13 1,-19 3,-5 9,-8 14,-11l21 -8c7,-2 11,-1 13,0 3,2 6,5 8,8l10 26z"/>
   <path fill="#834E98" d="M2209 1130l87 -22 -57 -227c-4,-15 -13,-26 -22,-30 -8,-5 -20,-6 -33,-3l-93 24 17 67 33 -8c8,-2 12,0 14,1 4,3 7,13 8,17l46 181z"/>
   <polygon fill="#834E98" points="2151,1151 2129,1083 2054,1107 2076,1175 "/>
</svg>
