<svg xmlns="http://www.w3.org/2000/svg"><symbol id="logo-kit" viewBox="0 0 16853 4511">
    <g fill="currentColor">
        <path d="M462 4507c4077 0 7016 16 7651-17-665-43-1715-217-3691-734-2592-679-3889 254-3960 751z"/>
        <path d="M546 3665L0 3061c20-25 40-50 60-74l544 602c30-39 60-76 90-113l-174-223c13-15 27-30 40-45l173 220c26-31 52-61 79-91l-171-219c14-15 28-29 42-44l170 217c28-31 56-62 85-92l-158-224c14-14 28-29 43-43l157 224c30-31 60-61 91-91l-146-230c15-13 30-27 44-40l145 229c28-27 56-53 85-78l-143-227c15-13 30-26 45-38l142 225c31-27 62-54 94-79l-131-232c15-12 31-24 46-36l131 230c31-26 64-51 96-76l-119-235c16-11 32-23 47-34l119 234c30-22 60-44 91-66l-118-232c17-10 33-22 49-32l117 231c35-24 70-48 106-70l-277-614c25-16 51-31 76-46l277 612c40-24 80-48 120-71l-94-237 51-27 93 236c34-19 68-38 102-55l-82-239c17-8 34-16 51-25l82 238c33-17 67-33 100-49l-81-235c18-8 35-15 52-23l81 234c35-16 70-32 105-47l-69-236c18-6 35-13 52-20l69 234c36-14 71-28 107-42l-58-235c17-7 35-13 53-19l58 235c34-13 69-25 103-37l-58-232c18-6 36-11 54-17l57 232c36-12 72-23 108-34l-50-231 54-15 50 231c36-11 72-20 109-30l-40-231 54-12 40 230c39-9 77-18 116-26l-85-568c28-5 56-10 84-16l85 566c42-8 83-15 125-22l-26-228c18-3 36-6 55-9l26 229c34-6 67-10 101-15l-26-227c19-3 37-5 55-7l26 228c37-4 74-8 110-12l-19-228c18-2 37-3 55-5l19 229c37-3 74-5 111-7l-13-231c18-1 37-2 55-3l13 231c36-1 71-2 107-3l-13-232c18-1 36-2 55-2l13 234h109l-6-236h55l6 236c37 0 74 0 111 1l3-236c19 1 37 1 55 2l-3 235c36 2 72 3 109 5l10-236c18 1 37 2 55 3l-10 237c38 2 75 5 113 8l18-493c28 2 56 5 85 7l-18 494c41 5 83 9 124 14l13-241c19 2 37 4 55 6l-13 242 108 15 21-243 54 7-21 245c36 5 72 11 108 17l24-246 55 8-25 248c36 6 72 13 107 19l29-249 54 9-28 251c33 6 67 13 101 20l28-252 55 11-29 253c36 8 71 15 107 24l36-254 54 12-36 254c36 8 72 17 108 26l40-255 54 12-40 256c33 8 67 17 100 25l44-255c18 4 36 9 54 14l-44 255c39 11 78 21 117 32l78-487c28 8 56 15 83 23l-78 486c39 11 78 22 116 33l48-254c17 5 35 10 53 15l-47 254 102 30 51-251 53 16-51 251c36 10 72 21 109 32l50-248 53 18-50 247c34 10 68 20 102 31l52-243 53 19-52 241 102 32 52-237 53 19-51 235 104 33 53-228 53 20-53 225 103 34 51-220 52 20-50 217 102 34 49-210 42 17 10 4-48 206 110 37 86-371 81 32-85 366 120 39 43-186 53 20-43 184 103 34 39-180 52 20-38 178 102 34 38-175 53 19-38 173 102 34 37-170 53 19-37 168 101 33 33-166 53 18-33 165 102 33 33-163 53 18-33 162 108 34 33-160 53 18-33 159c34 11 68 21 102 31l31-158 54 18-32 157c36 11 72 22 108 32l63-336 82 26-62 335c40 12 80 24 120 35l28-154 54 16-29 154c36 10 71 20 107 30l26-154 54 16-26 152c33 10 67 19 100 28l26-152 54 15-26 151c34 9 68 18 102 26l23-150 54 15-23 149c35 9 71 18 107 26l23-147 54 14-24 146c35 8 69 16 103 24l23-145 54 13-23 144c36 7 71 15 107 22l20-140 54 12-20 140 13 2c29 7 59 14 88 21l20-140 54 12-20 140c38 8 75 17 113 25l38-296c28 6 55 11 83 17l-38 297c42 8 84 17 125 25l16-142 55 10-17 142c34 7 67 13 101 19l16-142 54 9-16 143c36 6 72 12 107 18l14-143 55 9-15 143c36 6 72 12 108 17l14-143c18 3 36 5 54 8l-14 143c36 5 71 10 107 15l12-144c18 3 36 5 54 7l-12 144c36 4 71 9 106 13l13-144c18 3 36 4 54 6l-12 144c36 4 71 7 107 11l8-144c18 2 36 4 55 5l-8 144c33 3 67 5 100 8l6-143 55 4-6 143c38 2 77 5 115 7l18-273c28 2 57 3 85 5l-18 272c40 1 81 3 121 3l2-141 55 2-2 140c36 1 71 1 106 1l-4-140h55l4 139c36 0 72-1 108-2l-5-138c18-1 36-2 55-2l5 138c36-1 71-3 106-5l-9-138c18 0 37-2 55-3l9 137c35-3 71-5 106-9l-12-135c18-2 36-3 54-5l13 135c37-4 74-9 111-14l-17-132c19-3 37-4 55-7l17 132c35-5 71-11 106-17l-22-130c18-3 36-6 55-9l21 130 105-21-23-128c18-3 36-7 54-11l23 127c38-9 76-19 114-29l-48-221c28-7 56-14 83-22l48 220c38-11 76-23 113-36l-35-119c18-5 36-12 53-18l35 119c37-13 73-27 109-42l-40-103 53-21 39 103c33-14 65-29 97-44l-34-89 51-25 34 89c32-16 63-33 94-51l-32-72 52-23 30 67c27-17 54-33 81-51l-31-60 50-28 29 56c29-20 57-40 85-61l16 42c-909 702-2535 705-4192 342-2369-409-4052-1492-6164-1457-1228 7-2521 540-3510 1880l-166-190 5-8z"/>
        <path d="M14224 3406c259-146 443-301 572-467 620-800-754-1931 249-2939 74 1115 1212 603 1258 1685-187-764-1494-321-1372-1367-941 1070 1873 2556-985 3676-2607 885-5823 393-8183-220-1676-435-2796-551-3692-368-503 103-936 300-1358 588 354-498 745-880 1158-1166 1703-1179 3800-740 5383-188 3123 1088 5556 1449 6970 766zm2109-2025c219-91 480-112 446-525 318 1025-436 2025-1430 2542 737-419 1508-1461 984-2017z"/>
        <path d="M13253 3068l102-14-35-264c-3-18-11-31-21-38-8-5-21-9-37-7l-108 15 10 78 38-5c9-1 14 2 16 4 4 4 6 14 7 20l28 211zm-80 12l-9-81-90 10 10 82 89-11zm-377 35l113-9 125-238c9-16 11-31 10-48-2-19-8-44-46-41l-241 19 7 77 158-12c8-1 11 1 11 3s-1 5-4 9l-133 240zm-168-73c-10 1-24 0-32-8-6-6-8-18-10-44l-2-61c-1-12-1-27 7-37 8-9 21-11 30-12 8 0 22 1 30 9 9 9 10 25 11 37l3 60c1 26-1 38-6 45-8 9-21 11-31 11zm-144-41c2 47 11 95 41 113 19 12 52 13 107 10 55-2 87-6 105-19 28-21 33-70 31-116l-3-65c-1-24-4-81-39-108-27-21-73-19-109-17-36 1-82 3-107 27-32 30-30 87-29 110l3 65zm-130 121l102-1-2-267c0-18-7-32-16-40-8-7-20-12-36-11l-109 1v79l39-1c9 0 13 3 15 6 4 4 4 15 4 21l3 213zM9667 2642l174 53c23 7 52 15 76 2 29-15 41-54 47-76 8-23 14-44 4-69-10-26-28-34-46-40l-81-24c-5-2-11-4-15-10-2-4-3-11-1-17l2-5c1-4 2-8 6-10 5-4 12-2 17 0l146 45 23-74-212-65c-23-7-37-2-44 2-14 7-19 21-22 31l-23 73c-4 15-11 40 3 59 10 12 29 17 41 21l79 24c8 2 18 6 22 14 2 6 1 13 0 16-2 6-5 13-10 16-8 6-20 2-30-1l-133-41-23 76zm-140-133c-9-3-22-9-26-20-3-8-1-20 8-44l21-58c4-11 10-25 21-31 11-5 23-2 32 1 8 3 20 9 24 20 5 11 0 26-4 37l-21 58c-9 24-15 34-22 38-10 6-24 2-33-1zm-117-93c-16 44-26 92-6 120 13 18 43 31 95 50s83 28 105 23c34-9 57-52 73-96l22-61c8-22 27-76 6-114-17-30-60-46-94-58-35-13-77-28-110-16-41 15-61 69-69 91l-22 61zm-172 63l96 37 96-249c7-17 6-33 0-43-4-9-15-18-29-24l-102-39-29 74 36 13c9 4 12 8 12 11 2 5-1 16-3 21l-77 199zM8302 2131l215 82 29-75-131-50c-1 0-3-1-3-3 1-2 4-2 6-2l108-11c33-3 57-14 79-73 8-21 16-47 7-68-7-18-25-32-42-38l-179-69-27 72 119 45c7 3 18 7 22 16 3 6 1 13 0 17-3 7-9 18-25 20l-151 19c-29 3-43 36-48 47-10 28-10 59 21 71zm-76-30l30-77-85-32-29 77 84 32zm-205-218l-76-29c-4-2-5-4-4-6 0-1 3-3 5-3l96-37c2 0 5-2 7-2 2 1 1 2 1 3l-29 74zm-45 119l96 36 16-40 44 17 30-78-44-17 51-135c5-12 9-22 2-38s-23-25-38-30c-32-12-51-8-64-3l-183 70c-16 7-32 16-45 51-12 31-8 49-7 50 4 16 14 22 24 25l134 51-16 41zm-298-198c-10-3-22-9-26-20-3-8-1-20 7-44l21-57c4-11 10-26 21-32 11-5 24-2 32 1s20 9 25 20c5 12 0 26-4 37l-21 58c-9 24-15 34-22 39-11 6-24 2-33-2zm-118-92c-16 44-26 91-5 120 13 17 43 31 95 49 52 19 83 28 105 23 34-9 56-52 72-96l23-61c7-22 27-76 5-114-17-30-60-46-94-58s-77-28-110-15c-41 15-61 69-68 90l-23 62zm-175 68l97 34 87-253c6-17 4-32-1-42-6-9-16-18-31-23l-103-36-26 75 37 13c8 3 11 7 12 10 2 5-1 16-3 21l-69 201zM6520 1399c-7-2-16-7-19-13-3-5-2-13 0-19 2-10 9-14 12-15 8-3 16 0 22 2l15 4c6 2 14 4 19 10 4 5 5 12 3 19-1 5-5 13-10 16-6 4-16 3-23 1l-19-5zm33-112c-5-2-12-4-15-10-3-4-1-10 0-15 2-6 4-14 11-16 5-2 15-1 20 0l9 3c5 1 14 6 17 10 5 6 3 14 1 19-2 6-4 11-8 14-5 3-12 1-18 0l-17-5zm-85 10c-13-2-28 0-38 4-23 10-31 37-36 54-6 20-10 39-2 58 12 35 46 45 83 55l65 19c37 10 71 20 100-3 16-12 23-30 29-50 5-17 12-44-2-65-6-9-18-18-30-23v-1c8 1 19 1 31-5 22-10 29-30 33-46 5-16 13-48-1-71-16-28-60-39-82-45l-45-13c-22-6-66-20-94-5-23 12-34 43-38 59-5 16-9 37 4 57 7 12 16 17 23 20v1zm-128 130l21-79-87-23-21 79 87 23zm-401-108l196 49c21 5 41 8 64-5 26-14 33-35 40-63 4-17 10-42-4-62-9-12-24-20-37-23l1-2c15 2 29-1 40-8 16-12 23-32 27-48 4-18 7-39-1-59-12-28-36-35-56-40l-189-47-18 73 133 34c9 2 19 4 24 11 4 7 3 12 2 18-1 5-4 11-10 15-9 5-19 2-28 0l-128-32-17 68 133 33c10 3 17 4 23 8 9 7 8 16 6 24s-5 15-16 17c-7 2-15 0-43-7l-122-30-20 76zm-146-115c-10-2-23-6-29-17-4-7-4-19 2-44l12-60c3-12 6-27 17-34 10-7 23-6 31-4 9 2 21 6 27 16 7 11 4 27 2 38l-13 60c-5 25-10 36-17 41-9 8-23 6-32 4zm-130-76c-9 46-13 94 12 119 15 16 47 25 100 37 54 11 87 16 107 8 33-14 50-59 59-105l14-64c5-22 16-79-11-113-21-28-65-37-101-45-35-8-80-17-110 0-39 20-51 76-56 99l-14 64zm-161 90l101 20 51-262c3-18 0-33-7-42s-18-16-33-19l-108-21-15 78 38 7c9 2 12 6 14 9 2 5 1 15 0 21l-41 209zM4362 1094l113 6 154-221c11-15 14-29 15-47s-2-44-40-46l-241-10-4 77 159 7c8 0 11 3 11 5s-2 4-5 9l-162 220zm-31-2l-1-82-90 1v82l91-1zm-239 1l103-1-2-267c0-18-7-32-16-40-7-6-20-11-36-11l-109 1v79l39-1c9 0 13 4 15 6 4 4 4 15 4 21l2 213zm-215-74c-10 0-24 0-32-9-6-7-8-18-9-44l-1-61c-1-12-1-28 8-37 8-9 21-11 30-11 8 0 21 1 30 9 9 9 10 25 10 37l1 61c1 26-1 38-6 44-8 9-21 11-31 11zm-143-44c1 47 9 95 38 114 19 12 52 13 107 12 55-2 88-5 105-18 29-20 35-68 33-115l-1-65c-1-23-3-81-37-108-27-22-72-21-108-20-37 1-82 2-108 25-33 30-32 87-31 110l2 65zm-136 136l102-6-16-266c-1-18-8-32-17-39-8-7-21-11-37-10l-109 7 5 79 38-3c9 0 14 3 16 5 3 4 5 15 5 21l13 212zM976 1910c-6 3-16 7-22 5s-11-8-14-13c-6-9-4-16-3-20 4-7 11-11 16-14l14-8c5-3 13-8 20-8 6 1 12 5 16 11 3 5 6 13 5 19s-9 14-15 17l-17 11zm-59-101c-5 3-11 7-17 5-5-1-9-6-12-11s-7-12-4-19c2-5 9-12 14-14l8-5c5-3 14-7 19-6 8 1 12 8 15 13s5 10 4 15c-1 6-7 10-12 13l-15 9zm-51 70c-10 8-19 20-23 30-8 24 7 48 16 63 10 18 21 34 40 41 34 14 65-4 98-23l57-35c33-20 63-39 67-75 2-20-7-38-18-55-9-15-24-39-48-43-11-2-26 1-38 6v-1c6-5 13-12 17-25 7-24-2-42-11-57-9-14-27-41-52-47-32-7-70 17-90 29l-40 24c-20 12-59 35-68 66-7 25 9 54 18 68 8 14 20 32 44 36 14 3 23 0 31-3v1zm8 195l-45-68-75 50 46 68 74-50zm-299-19l-35 25c-12 9-17 10-19 10-6 0-13-3-19-10-5-7-8-14-5-22 2-6 7-12 13-16l20-16c7-5 12-4 15-4 3 1 8 4 10 7l20 26zm-20 253l143-108c18-14 48-38 40-82-5-25-20-44-30-58l-76-100c-12-16-25-28-44-35-34-12-62 6-84 22l-80 61c-16 12-34 28-38 56-5 32 13 54 30 76 15 20 33 45 60 51 13 2 33 2 54-14l87-66 13 17c3 4 6 8 4 15-1 7-8 12-11 15l-116 87 48 63zm-248 44l34-29c6-5 13-12 21-11 7 0 14 6 18 11 5 6 7 13 6 18 0 5-4 10-9 14l-21 18c-3 2-10 7-14 8-9 1-15-5-19-10l-16-19zm-45-54l-14-16c-2-3-8-9-7-16 1-3 2-8 17-20l102-86-51-60-134 112c-14 12-32 30-37 56-7 31 9 54 21 68l93 111c15 18 35 38 65 38 13 0 33-4 53-21l92-77c28-24 37-48 33-71-5-25-28-54-38-65-12-15-36-42-66-42-23 0-41 15-54 26l-75 63zM10585 2905l102 19 50-265c3-18-1-33-8-42-6-8-18-16-33-19l-109-20-15 78 39 8c9 1 12 5 13 8 3 5 2 16 1 21l-40 212zm161-99c-8 47-11 96 15 121 15 15 47 24 102 34s88 14 108 5c33-13 48-60 57-107l12-64c5-23 15-80-13-114-22-28-67-36-103-43s-81-16-112 2c-38 22-49 79-53 102l-13 64zm132 74c-10-2-23-6-29-16-4-7-4-20 1-45l11-61c2-12 6-27 16-35 10-7 23-6 32-4 8 2 21 5 28 16s4 26 2 38l-12 60c-4 26-9 37-16 43-9 7-23 6-33 4zm293-67l4-21c0-3 2-12 8-16 2-1 7-3 26 1l132 25 15-79-174-33c-18-3-43-6-67 7-28 14-36 42-39 60l-28 144c-4 23-7 51 12 75 8 10 24 23 50 28l119 23c37 6 62-2 77-20 16-20 24-56 27-71 3-19 9-55-10-78-15-18-38-23-55-27l-97-18zm-13 70l44 8c8 1 18 3 22 10 4 5 4 14 3 21-2 8-6 14-10 16-4 3-11 3-17 2l-28-6c-3 0-12-2-15-5-7-6-5-14-4-22l5-24zm280 183l15-81-89-17-15 81 89 17zm80 15l102 19 50-264c4-18 0-33-7-43-7-8-18-15-34-18l-109-21-14 79 38 7c9 2 12 6 14 8 3 5 1 16 0 22l-40 211zM2089 1450l173-57c23-7 51-18 64-42 14-29 1-68-6-90-8-23-15-44-37-58-23-16-43-12-60-6l-81 26c-5 2-12 4-17 1-5-2-9-7-11-13l-2-5c-1-4-3-8-1-12 3-6 9-8 14-10l145-48-24-73-210 69c-23 8-32 20-35 27-7 14-3 29 0 39l24 72c5 15 13 40 36 46 15 4 33-2 46-6l78-26c8-3 18-5 26-1 6 3 8 10 9 13 2 6 3 14 2 18-4 10-16 14-25 17l-133 44 25 75zM1799 1562l167-65c20-9 56-24 60-69 2-24-7-47-13-63l-46-118c-8-18-16-33-33-44-30-22-61-12-87-2l-93 36c-19 8-41 18-52 44-13 30-2 56 8 82 9 23 20 51 44 65 12 6 31 11 56 1l102-39 7 19c2 4 4 10 1 16-4 6-11 9-16 10l-134 53 29 74zm87-239l-40 16c-14 6-19 5-22 4-5-1-11-6-14-15-3-8-4-15 1-22 3-6 10-10 16-12l24-10c8-3 13-1 15 0 3 2 7 6 8 10l12 29zM2544 1302l101-26-67-261c-4-18-14-30-25-35-9-5-23-7-38-3l-107 27 20 78 38-10c8-2 13 0 16 2 4 3 7 14 9 19l53 209zM2478 1325l-26-78-87 28 26 79z"/>
    </g>
</symbol><symbol id="logo" viewBox="0 0 15791 1757">
    <g fill="currentColor">
        <path d="M92 276v-73h107c14 0 32-4 44-14 22-18 23-61 23-79 0-37-7-56-19-69-14-15-33-18-53-18H54c-17 0-28 7-33 13-9 10-10 24-10 35v205h81zm0-136v-39c0-6 1-15 14-15h46c9 0 18 0 25 6 7 5 7 13 7 20 0 10-2 17-6 22-7 7-17 6-27 6H92zm862 136h85l20-52h91l20 52h86l-93-225c-12-28-34-31-58-31-39 0-50 12-58 31l-93 225zm148-174c0-2 2-5 3-5s2 3 3 5l23 64h-52l23-64zm852 111h-25v63h303v-63h-26l-67-164c-6-13-16-29-59-29-42 0-53 16-58 29l-68 164zm122-110c1-2 2-6 4-6 3 0 4 4 4 6l41 110h-89l40-110zm1129 173V83c0-21-2-63-60-63-15 0-38 2-54 30l-70 122c-3 5-5 9-7 9-5 0-5-6-5-9v-4l4-145h-83v195c0 30 7 61 56 61 35 0 48-14 55-26l72-123c5-8 7-12 9-12 4 0 4 5 4 10l-4 148h83zm852-256c-38 0-83 1-111 26-27 26-28 70-28 104 0 33 1 77 28 103 27 25 73 26 111 26 37 0 84-1 110-26 28-26 29-70 29-103 0-34-1-78-29-104-27-25-72-26-110-26zm-55 130c0-21 0-35 9-48 11-17 25-19 46-19s35 2 46 19c9 14 9 26 9 48 0 20 0 34-9 48-11 16-25 18-46 18s-35-2-46-18c-8-13-9-29-9-48zm1168 126l-96-128 93-125h-97l-43 68-43-68h-98l93 125-96 128h98l46-71 46 71h97zm827-256c-39 0-84 1-111 26-27 26-28 70-28 104 0 33 1 77 28 103 27 25 73 26 111 26 37 0 83-1 110-26 28-26 29-70 29-103 0-34-1-78-29-104-27-25-72-26-110-26zm-56 130c0-21 1-35 10-48 11-17 25-19 46-19s34 2 45 19c10 14 10 26 10 48 0 20 0 34-10 48-11 16-24 18-45 18s-35-2-46-18c-9-13-10-29-10-48zm879 126h86l61-167c1-2 2-6 4-6s3 4 4 6l61 167h87l-97-230c-11-24-39-26-55-26-15 0-44 2-54 26l-97 230zm997-63h-25v63h303v-63h-26l-67-164c-5-13-16-29-58-29-43 0-54 16-59 29l-68 164zm123-110c0-2 1-6 4-6 2 0 3 4 3 6l41 110h-89l41-110zm1128 173V83c0-21-2-63-60-63-15 0-38 2-54 30l-70 122c-3 5-5 9-7 9-4 0-4-6-4-9v-4l3-145h-83v195c0 30 7 61 56 61 35 0 48-14 55-26l72-123c5-8 7-12 9-12 4 0 4 5 4 10l-4 148h83zm975-253h-81v90h-92V23h-82v253h82V176h92v100h81V23zm802 253V102c0-4 0-9 2-12 3-4 10-4 15-4h129V23h-188c-12 0-23 6-30 12-9 11-10 23-10 34v207h82zM111 1465H0v279h1344v-279h-112L930 735c-22-56-68-127-258-127-189 0-235 71-258 127l-303 730zm544-488c3-9 8-29 17-29 10 0 15 20 18 29l180 488H475l180-488zm740 767h382l88-231h405l88 231h381l-415-999c-52-126-149-137-257-137-173 0-221 53-256 137l-416 999zm658-772c3-8 10-24 14-24 5 0 12 16 15 24l101 284h-231l101-284zm2025 772V886c0-92-9-278-266-278-66 0-171 7-242 132l-310 540c-14 26-22 40-32 40-21 0-20-29-19-56l16-643h-369v866c0 135 29 270 250 270 156 0 212-62 242-114l320-546c21-37 32-54 41-54 16 0 17 21 16 42l-16 659h369zM3359 459v314l193-314h-193zm963 1006h-111v279h1344v-279h-112l-302-730c-23-56-69-127-258-127s-235 71-258 127l-303 730zm543-488c4-9 9-29 18-29s14 20 18 29l179 488h-394l179-488zm741 767h440l272-427c38-59 66-109 66-154 0-40-27-85-51-125l-252-417h-417l321 462c19 27 43 56 43 83 0 18-9 44-55 103l-367 475zm1989 0l-367-475c-46-59-55-85-55-103 0-27 24-56 43-83l328-462h-417l-259 417c-30 49-51 90-51 125 0 45 28 95 66 154l272 427h440zm-1176 0h363V621h-363v1123zm2289 0v-273h-549c-22 0-51 1-69-14-7-7-16-20-16-42v-122h613v-244h-613v-85c0-14 0-40 18-54 13-11 35-16 56-16h555V621h-807c-40 0-95 7-136 45-42 39-48 85-48 128v770c0 53-1 99 51 141 43 36 90 39 136 39h809zm1131 0v-279h-311c-120 0-225 0-272-89-10-18-28-61-28-186 0-54 6-145 37-202 50-89 138-88 257-88h300V621h-475c-126 0-290 15-393 146-79 101-98 242-98 430 0 215 36 326 103 409 91 113 208 138 383 138h497zm849 0V900h400V621H9924v279h401v844h363zM12058 1737v-677h748V672h-748V552c0-37 7-71 27-91 22-22 53-24 78-24h920V20h-1278c-61 0-152 5-223 73-67 64-79 145-79 216v1428h555zm3137-1040c15-47 25-62 35-62 9 0 22 10 22 57l-20 1045h559V302c0-106-32-302-422-302-147 0-353 17-441 285l-277 834c-5 17-32 78-52 78-19 0-46-61-51-78l-278-834c-88-268-294-285-439-285-88 0-422 0-422 302v1435h557l-17-1045c0-17-2-57 20-57 12 0 24 30 34 62l265 829c39 125 88 231 331 231s292-106 331-231l265-829z"/>
    </g>
</symbol><symbol id="mail" viewBox="0 0 14 14">
    <path d="M2.333 2.333h9.333A1.17 1.17 0 0 1 12.833 3.5v7a1.17 1.17 0 0 1-1.167 1.167H2.333A1.17 1.17 0 0 1 1.166 10.5v-7a1.17 1.17 0 0 1 1.167-1.167zm0 2.334l4.666 2.916 4.667-2.916V3.5L6.999 6.417 2.333 3.5v1.167z" fill="currentColor"/>
</symbol><symbol id="phone" viewBox="0 0 24 24">
    <path d="M4 3a1 1 0 0 0-1 1c0 9.388 7.612 17 17 17a1 1 0 0 0 1-1v-3.5a.999.999 0 0 0-1-.999c-1.248 0-2.448-.201-3.572-.569a.997.997 0 0 0-1.015.245l-2.201 2.203a15.08 15.08 0 0 1-6.589-6.586l2.2-2.207a1 1 0 0 0 .245-1.015A11.468 11.468 0 0 1 8.499 4c0-.553-.447-1-.999-1H4z" fill="currentColor"/>
</symbol><symbol id="soc-fb" viewBox="0 0 24 24" preserveAspectRatio="xMidYMid">
    <path d="M11.994.003C5.382.003.003 5.384.003 12c0 6.614 5.379 11.996 11.991 11.996 6.613 0 11.992-5.382 11.992-11.996 0-6.616-5.379-11.997-11.992-11.997zm2.983 12.419h-1.951v6.957h-2.891v-6.957H8.76V9.963h1.375v-1.59c0-1.139.541-2.919 2.917-2.919l2.142.008v2.387h-1.555c-.254 0-.613.127-.613.67v1.444h2.203l-.252 2.459z" fill="currentColor" fill-rule="evenodd"/>
</symbol><symbol id="soc-tw" viewBox="0 0 38 38">
    <path d="M19 0C8.523 0 0 8.523 0 19c0 10.476 8.523 19 19 19 10.476 0 19-8.524 19-19C38 8.523 29.477 0 19 0zm8.476 14.651c.008.189.013.379.013.568 0 5.78-4.398 12.44-12.443 12.44a12.37 12.37 0 0 1-6.704-1.962c.342.04.69.06 1.043.06 2.05 0 3.935-.699 5.432-1.871a4.377 4.377 0 0 1-4.086-3.038 4.409 4.409 0 0 0 1.975-.073 4.374 4.374 0 0 1-3.508-4.288l.001-.055c.59.326 1.264.524 1.98.546a4.37 4.37 0 0 1-1.945-3.64c0-.801.215-1.553.592-2.199a12.418 12.418 0 0 0 9.013 4.57 4.368 4.368 0 0 1-.112-.996 4.373 4.373 0 0 1 7.564-2.993 8.729 8.729 0 0 0 2.778-1.061 4.393 4.393 0 0 1-1.925 2.42 8.691 8.691 0 0 0 2.512-.688 8.793 8.793 0 0 1-2.18 2.26z" fill="currentColor"/>
</symbol><symbol id="soc-vk" viewBox="0 0 38 38">
    <path d="M19 0C8.507 0 0 8.507 0 19s8.507 19 19 19 19-8.507 19-19S29.493 0 19 0zm9.638 21.055c.885.865 1.822 1.679 2.617 2.633.352.422.684.859.937 1.35.36.7.035 1.468-.591 1.51l-3.893-.001c-1.005.083-1.805-.323-2.48-1.01-.538-.548-1.038-1.133-1.556-1.699a3.64 3.64 0 0 0-.701-.624c-.531-.345-.992-.24-1.296.315-.31.564-.38 1.19-.41 1.817-.043.918-.32 1.158-1.24 1.201-1.968.092-3.835-.206-5.57-1.198-1.531-.875-2.716-2.11-3.749-3.509-2.01-2.726-3.55-5.718-4.934-8.795-.311-.693-.083-1.064.681-1.079 1.27-.024 2.541-.021 3.811 0 .518.007.86.303 1.058.791.687 1.69 1.528 3.296 2.583 4.787.281.397.568.792.977 1.073.45.31.794.207 1.007-.297.136-.32.195-.662.224-1.004.101-1.175.113-2.349-.062-3.519-.108-.732-.52-1.204-1.25-1.343-.371-.07-.317-.208-.136-.42.313-.367.607-.594 1.195-.594h4.398c.693.135.848.446.942 1.145l.004 4.887c-.008.27.136 1.07.621 1.248.389.128.645-.184.878-.43 1.055-1.12 1.806-2.44 2.479-3.807a25.62 25.62 0 0 0 .802-1.852c.185-.462.473-.69.994-.682l4.235.005a2.2 2.2 0 0 1 .375.022c.714.123.91.43.689 1.126-.348 1.094-1.023 2.005-1.683 2.919-.707.978-1.462 1.922-2.163 2.904-.643.898-.593 1.35.207 2.13z" fill="currentColor"/>
</symbol><symbol id="web" viewBox="0 0 38 38">
    <path d="M25.913 20.858c.212.84-2.114.574-2.681 1.36-.569.786-1.957.258-2.28.107-.322-.151-1.555.352-1.447-.504.107-.856.857-.907 1.662-1.259.804-.352 1.964-1.523 1.394-1.676-2.683-.72-3.599-3.24-3.599-3.24-.161-.031-.12-1.783-.817-1.833-.698-.05-1.073.201-2.092 0-1.019-.202-.804-.857-.965-2.267-.16-1.41.43-.957.748-1.41.028-.04.064-.075.1-.11-3.732 1.277-6.423 4.817-6.423 8.976v.02c.694.044 1.957.19 2.016.667.082.657 0 1.478.575 1.724.575.247.74-.985 1.232-.657.493.329 1.807.645 1.807 1.226 0 .58-.247 1.485 0 1.649.246.164 1.231 1.314 1.232 1.478 0 .164.347 1 .243 1.32-.085.264-.518 1.086-.938 1.46 1.034.387 2.152.6 3.32.6 5.231 0 9.488-4.256 9.488-9.487 0-1.55-.376-3.012-1.038-4.305.064.965.021 1.844.232 2.132.925 1.259-2.252 2.125-1.77 4.03z" fill="currentColor"/>
    <path d="M19 0C8.506 0 0 8.507 0 19c0 10.492 8.506 19 19 19 10.493 0 19-8.507 19-19S29.493 0 19 0zm0 30.459c-6.318 0-11.459-5.14-11.459-11.459S12.681 7.541 19 7.541c6.318 0 11.459 5.14 11.459 11.459S25.319 30.459 19 30.459z" fill="currentColor"/>
</symbol><symbol id="whatsapp" viewBox="0 0 38 38">
    <path d="M19.005 0h-.01C8.52 0 0 8.521 0 19a18.86 18.86 0 0 0 3.617 11.136L1.25 37.195l7.303-2.335A18.836 18.836 0 0 0 19.005 38C29.48 38 38 29.476 38 19S29.48 0 19.005 0zM30.06 26.83c-.458 1.295-2.277 2.368-3.728 2.682-.993.211-2.29.38-6.655-1.43-5.584-2.313-9.18-7.987-9.46-8.355-.268-.368-2.256-3.005-2.256-5.731 0-2.727 1.385-4.054 1.943-4.624.458-.468 1.216-.682 1.943-.682.235 0 .446.012.636.021.558.024.838.057 1.207.939.458 1.104 1.574 3.83 1.707 4.11.136.281.27.661.08 1.03-.177.38-.334.548-.614.87-.28.324-.546.57-.827.918-.256.301-.546.624-.223 1.182.323.546 1.44 2.368 3.083 3.831 2.12 1.888 3.84 2.491 4.455 2.748.459.19 1.005.145 1.34-.211.425-.459.95-1.219 1.484-1.967.38-.537.86-.603 1.363-.413.513.178 3.228 1.52 3.786 1.798.558.28.926.413 1.062.648.133.235.133 1.34-.326 2.636z" fill="currentColor"/>
</symbol></svg>