<svg viewBox="0 0 69 48" xmlns="http://www.w3.org/2000/svg">
<path d="M66.0675 4.62545C64.1959 1.25673 62.1647 0.637091 58.029 0.401455C53.8976 0.117818 43.5088 0 34.5086 0C25.4912 0 15.0981 0.117819 10.971 0.397091C6.84394 0.637091 4.80844 1.25236 2.91956 4.62545C0.991875 7.98982 0 13.7847 0 23.9869C0 23.9956 0 24 0 24C0 24.0087 0 24.0131 0 24.0131V24.0218C0 34.1804 0.991875 40.0189 2.91956 43.3484C4.80844 46.7171 6.83962 47.328 10.9667 47.6116C15.0981 47.856 25.4912 48 34.5086 48C43.5088 48 53.8976 47.856 58.0333 47.616C62.169 47.3324 64.2002 46.7215 66.0718 43.3527C68.0168 40.0233 69 34.1847 69 24.0262C69 24.0262 69 24.0131 69 24.0044C69 24.0044 69 23.9956 69 23.9913C69 13.7847 68.0167 7.98982 66.0675 4.62545Z" fill="#F44336"/>
<path d="M25.875 37.091V10.9092L47.4375 24.0001L25.875 37.091Z" fill="#FAFAFA"/>
</svg>
